<svg xmlns="http://www.w3.org/2000/svg" width="1884.71" height="977.77" viewBox="0 0 1884.71 977.77">
  <defs>
    <style>
      .cls-1, .cls-3, .cls-4 {
        fill: none;
      }

      .cls-1, .cls-10, .cls-11, .cls-3, .cls-4, .cls-5 {
        stroke: #000;
        stroke-miterlimit: 10;
      }

      .cls-1, .cls-10, .cls-11 {
        stroke-width: 3px;
      }

      .cls-2 {
        fill: #fff;
      }

      .cls-4 {
        stroke-dasharray: 12.07 12.07;
      }

      .cls-5 {
        fill: #4d4d4d;
        stroke-width: 4px;
      }

      .cls-10, .cls-6 {
        fill: #666;
      }

      .cls-7 {
        fill: #333;
      }

      .cls-8 {
        fill: gray;
      }

      .cls-9 {
        fill: #b3b3b3;
      }

      .cls-11 {
        fill: #ccc;
      }
    </style>
  </defs>
  <title>flowchart8</title>
  <g id="arrows">
    <g>
      <path class="cls-1" d="M344.41,173H486.89c9.44.88,15.14,5.52,15.11,15.91v17.18" transform="translate(-16.33 -76.61)"/>
      <polygon points="474.56 121.05 485.67 125.77 496.77 121.05 485.67 147.39 474.56 121.05"/>
    </g>
    <g>
      <line class="cls-1" x1="598.48" y1="190.51" x2="656.44" y2="190.51"/>
      <polygon points="648.02 201.62 652.74 190.51 648.02 179.4 674.35 190.51 648.02 201.62"/>
    </g>
    <g>
      <path class="cls-1" d="M734.15,300.54v40.61c0,10.05,3,16.83,12.68,16.83h17.87" transform="translate(-16.33 -76.61)"/>
      <polygon points="739.93 292.48 744.65 281.37 739.93 270.26 766.27 281.37 739.93 292.48"/>
    </g>
    <g id="flipper2turn">
      <g>
        <path class="cls-1" d="M1427,358h28.67a20.06,20.06,0,0,0,20-20V98.11a20.06,20.06,0,0,0-20-20H231.83a20.1,20.1,0,0,0-20,20l0,16.07" transform="translate(-16.33 -76.61)"/>
        <polygon points="184.34 29.12 195.44 33.86 206.56 29.16 195.41 55.48 184.34 29.12"/>
      </g>
    </g>
    <g>
      <line class="cls-1" x1="195.49" y1="246.49" x2="195.49" y2="314.92"/>
      <polygon points="184.38 306.5 195.49 311.22 206.6 306.5 195.49 332.83 184.38 306.5"/>
    </g>
    <g>
      <path class="cls-1" d="M331,442h98.58c13,0,22-7.86,22-25.53V343.91" transform="translate(-16.33 -76.61)"/>
      <polygon points="446.33 275.72 435.22 271 424.11 275.72 435.22 249.39 446.33 275.72"/>
    </g>
    <g>
      <line class="cls-1" x1="496.4" y1="249.39" x2="496.4" y2="466.14"/>
      <polygon points="485.29 457.72 496.4 462.44 507.51 457.72 496.4 484.05 485.29 457.72"/>
    </g>
    <g id="fall2turn">
      <g>
        <path class="cls-1" d="M395.74,588.06H41a20.06,20.06,0,0,1-20-20V247.6a20.06,20.06,0,0,1,20-20H61.33" transform="translate(-16.33 -76.61)"/>
        <polygon points="36.57 162.09 41.29 150.98 36.57 139.87 62.91 150.98 36.57 162.09"/>
      </g>
    </g>
    <g id="fallapart2andineedyou">
      <g>
        <line class="cls-1" x1="496.4" y1="549.93" x2="496.4" y2="604.05"/>
        <polygon points="485.29 595.62 496.4 600.34 507.51 595.62 496.4 621.96 485.29 595.62"/>
      </g>
    </g>
    <g id="andineedyou2nowtonight">
      <g>
        <line class="cls-1" x1="614.3" y1="670.14" x2="668.41" y2="670.14"/>
        <polygon points="659.99 681.25 664.71 670.14 659.99 659.03 686.32 670.14 659.99 681.25"/>
      </g>
    </g>
    <g id="nowtonight2andineedyou">
      <g>
        <path class="cls-1" d="M814.67,799.43V832.2a20.06,20.06,0,0,1-20,20H648.55" transform="translate(-16.33 -76.61)"/>
        <polygon points="640.64 764.47 635.92 775.58 640.64 786.69 614.3 775.58 640.64 764.47"/>
      </g>
    </g>
    <g id="andineedyou2morethanever">
      <g>
        <path class="cls-1" d="M512.73,887.33v62.52a20.06,20.06,0,0,0,20,20H696.1" transform="translate(-16.33 -76.61)"/>
        <polygon points="671.35 904.35 676.07 893.24 671.35 882.13 697.68 893.24 671.35 904.35"/>
      </g>
    </g>
    <g>
      <path class="cls-1" d="M906.69,969.86h50.78a20.06,20.06,0,0,0,20-20V679.27a20.06,20.06,0,0,1,20-20h18.9" transform="translate(-16.33 -76.61)"/>
      <polygon points="991.61 593.76 996.33 582.65 991.61 571.55 1017.94 582.65 991.61 593.76"/>
    </g>
    <g>
      <line class="cls-1" x1="1290.58" y1="749.2" x2="1290.58" y2="769.31"/>
      <polygon points="1279.48 760.89 1290.59 765.61 1301.69 760.89 1290.59 787.22 1279.48 760.89"/>
    </g>
    <g>
      <path class="cls-1" d="M1579.56,1032.83h158.63a20.06,20.06,0,0,0,20-20v-11.48" transform="translate(-16.33 -76.61)"/>
      <polygon points="1752.97 933.17 1741.86 928.45 1730.75 933.17 1741.86 906.84 1752.97 933.17"/>
    </g>
    <g>
      <line class="cls-1" x1="1741.86" y1="838.25" x2="1741.86" y2="808.03"/>
      <polygon points="1752.97 816.46 1741.86 811.74 1730.75 816.46 1741.86 790.12 1752.97 816.46"/>
    </g>
    <g>
      <line class="cls-1" x1="1647.67" y1="698.03" x2="1647.67" y2="614.53"/>
      <polygon points="1658.78 622.96 1647.67 618.24 1636.56 622.96 1647.67 596.62 1658.78 622.96"/>
    </g>
    <g>
      <line class="cls-1" x1="1798.67" y1="598.67" x2="1798.67" y2="678.07"/>
      <polygon points="1787.56 669.65 1798.67 674.37 1809.78 669.65 1798.67 695.98 1787.56 669.65"/>
    </g>
  </g>
  <g id="Lag_19" data-name="Lag 19">
    <g id="croonbeltline">
      <line class="cls-2" y1="528.41" x2="1882.71" y2="529.7"/>
      <g>
        <line class="cls-3" y1="528.41" x2="6" y2="528.41"/>
        <line class="cls-4" x1="18.07" y1="528.42" x2="1870.67" y2="529.69"/>
        <line class="cls-3" x1="1876.71" y1="529.69" x2="1882.71" y2="529.7"/>
      </g>
    </g>
  </g>
  <g id="screens">
    <g id="brighteyes">
      <rect class="cls-5" x="73.33" y="332.83" width="241.31" height="59.63" rx="20" ry="20"/>
      <path class="cls-6" d="M116.45,413.48c-13-.54-21,6.24-21,21.82l7.09,1.7s-1.13-16.15,11.05-16.44C114.46,420.85,116.45,413.48,116.45,413.48Z" transform="translate(-16.33 -76.61)"/>
      <path class="cls-7" d="M326.47,442l-9.12,1.59c-.16,12-5.55,14.27-17.84,14.66L294,465C313.48,465.81,325.92,458.92,326.47,442Z" transform="translate(-16.33 -76.61)"/>
      <g>
        <path class="cls-8" d="M114.5,428.15a3.44,3.44,0,0,1,.88-2.66,3.73,3.73,0,0,1,2.57-.79h7.85a21,21,0,0,1,3.46.27,9.85,9.85,0,0,1,3,1,5.65,5.65,0,0,1,2.2,2.05,6.32,6.32,0,0,1,.83,3.38,5.52,5.52,0,0,1-.94,3.13,5.75,5.75,0,0,1-2.7,2.12v.07a6.06,6.06,0,0,1,3.35,2.11,6.55,6.55,0,0,1,1.19,4.12,7.53,7.53,0,0,1-.74,3.44,6.44,6.44,0,0,1-2.07,2.39,9.39,9.39,0,0,1-3,1.39,14.43,14.43,0,0,1-3.69.45H118a3.73,3.73,0,0,1-2.57-.79,3.44,3.44,0,0,1-.88-2.66Zm5.9,7.2h4.86q4.1,0,4.1-3.17a2.63,2.63,0,0,0-1.19-2.45,5.91,5.91,0,0,0-3.1-.72h-4.68Zm0,10.73h5a10.82,10.82,0,0,0,1.82-.14,5.3,5.3,0,0,0,1.55-.5,2.75,2.75,0,0,0,1.12-1,3.37,3.37,0,0,0,.41-1.76,3.42,3.42,0,0,0-.45-1.84,2.82,2.82,0,0,0-1.22-1.08,6,6,0,0,0-1.75-.49,17.22,17.22,0,0,0-2.2-.13h-4.25Z" transform="translate(-16.33 -76.61)"/>
        <path class="cls-8" d="M140.13,433.77a2.39,2.39,0,0,1,.67-1.8,2.58,2.58,0,0,1,3.42,0,2.4,2.4,0,0,1,.67,1.8v2H145a8.69,8.69,0,0,1,1.57-3.2,3.41,3.41,0,0,1,2.79-1.26,3,3,0,0,1,2.07.72,2.35,2.35,0,0,1,.81,1.84,2.49,2.49,0,0,1-.74,2,2.76,2.76,0,0,1-1.85.63h-.94a2.69,2.69,0,0,0-2.47,1.33,9.15,9.15,0,0,0-.81,4.5v6.12a2.9,2.9,0,0,1-.59,1.91,3.23,3.23,0,0,1-4.07,0,2.9,2.9,0,0,1-.59-1.91Z" transform="translate(-16.33 -76.61)"/>
        <path class="cls-8" d="M155.47,424.88a2.78,2.78,0,1,1-.79,1.94A2.64,2.64,0,0,1,155.47,424.88Zm-.68,9.07a2.9,2.9,0,0,1,.59-1.91,3.23,3.23,0,0,1,4.07,0,2.9,2.9,0,0,1,.59,1.91v14.51a2.9,2.9,0,0,1-.59,1.91,3.23,3.23,0,0,1-4.07,0,2.9,2.9,0,0,1-.59-1.91Z" transform="translate(-16.33 -76.61)"/>
        <path class="cls-8" d="M182.33,449.07q0,4.57-2.54,6.91a9.67,9.67,0,0,1-6.82,2.34A13.15,13.15,0,0,1,170,458a10.69,10.69,0,0,1-2.54-.9,5.58,5.58,0,0,1-1.78-1.39A2.7,2.7,0,0,1,165,454a2.15,2.15,0,0,1,.65-1.58,2.07,2.07,0,0,1,1.51-.65,2.25,2.25,0,0,1,1.17.29,7.85,7.85,0,0,1,1.17.9,8.2,8.2,0,0,0,1.51,1.13,3.54,3.54,0,0,0,1.73.38,4.13,4.13,0,0,0,3.46-1.33,7.28,7.28,0,0,0,1-4.43v-1.08h-.07a5.73,5.73,0,0,1-2.14,1.78,6.29,6.29,0,0,1-2.93.74,8,8,0,0,1-6.25-2.39,9.13,9.13,0,0,1-2.18-6.39q0-4.86,2.45-7.56a7.19,7.19,0,0,1,2.61-1.84,8.32,8.32,0,0,1,3.19-.61,6.69,6.69,0,0,1,3.37.83,5.25,5.25,0,0,1,2.18,2.3h.07v-.65q0-2.48,2.38-2.48t2.38,2.48ZM170,444.71a3.55,3.55,0,0,0,3.13,1.51,3.77,3.77,0,0,0,3-1.31,6,6,0,0,0,1.13-4,7,7,0,0,0-1-4.16,3.38,3.38,0,0,0-2.88-1.35A3.79,3.79,0,0,0,170,437a7.45,7.45,0,0,0-1,4.19A6.11,6.11,0,0,0,170,444.71Z" transform="translate(-16.33 -76.61)"/>
        <path class="cls-8" d="M186.5,426.86a2.59,2.59,0,0,1,.7-1.94,3.05,3.05,0,0,1,3.85,0,2.59,2.59,0,0,1,.7,1.94v7.24h.07a7,7,0,0,1,5.87-2.77,8.63,8.63,0,0,1,2.43.34,5.75,5.75,0,0,1,2.12,1.15,5.56,5.56,0,0,1,1.51,2.16,8.53,8.53,0,0,1,.56,3.26v10.22a2.9,2.9,0,0,1-.59,1.91,3.23,3.23,0,0,1-4.07,0,2.9,2.9,0,0,1-.59-1.91v-9.18a4,4,0,0,0-.83-2.65,3.06,3.06,0,0,0-2.48-1,4,4,0,0,0-2.75,1.13,3.87,3.87,0,0,0-1.24,3v8.68a2.9,2.9,0,0,1-.59,1.91,3.23,3.23,0,0,1-4.07,0,2.9,2.9,0,0,1-.59-1.91Z" transform="translate(-16.33 -76.61)"/>
        <path class="cls-8" d="M209.87,435.25H209q-2.09,0-2.09-1.73t2.09-1.73h.9v-3.2a2.59,2.59,0,0,1,.7-1.94,3.05,3.05,0,0,1,3.85,0,2.59,2.59,0,0,1,.7,1.94v3.2h1.58q2.38,0,2.38,1.73t-2.38,1.73h-1.58v10.51q0,1.22,1.37,1.22h.76q1.84,0,1.84,1.76,0,2.34-3.82,2.34a6,6,0,0,1-4.1-1.17,4.49,4.49,0,0,1-1.3-3.51Z" transform="translate(-16.33 -76.61)"/>
        <path class="cls-8" d="M237.3,442.19a4.52,4.52,0,0,0,4.86,4.79,5.47,5.47,0,0,0,2.36-.41,7.9,7.9,0,0,0,1.71-1.17,5.72,5.72,0,0,1,1-.76,2.19,2.19,0,0,1,2.57.4,2,2,0,0,1,.63,1.4,2.91,2.91,0,0,1-.79,2,6.3,6.3,0,0,1-2.07,1.48,12.06,12.06,0,0,1-2.7.88,13.59,13.59,0,0,1-2.68.29,11.83,11.83,0,0,1-4.57-.81,8.61,8.61,0,0,1-3.17-2.18,8.8,8.8,0,0,1-1.8-3.06,10.75,10.75,0,0,1-.58-3.49,10.31,10.31,0,0,1,2.66-7.43,9.58,9.58,0,0,1,7.27-2.79,10.78,10.78,0,0,1,4,.7,8.75,8.75,0,0,1,3,1.94,8.45,8.45,0,0,1,1.87,2.77,8.3,8.3,0,0,1,.63,3.19,2.5,2.5,0,0,1-.49,1.8,2.65,2.65,0,0,1-1.82.47Zm9.22-3a4.75,4.75,0,0,0-1.46-3,4.18,4.18,0,0,0-3-1.17,4.51,4.51,0,0,0-3.13,1.1,5.6,5.6,0,0,0-1.66,3.08Z" transform="translate(-16.33 -76.61)"/>
        <path class="cls-8" d="M261.85,445.58h.07l3.2-11.92A3.81,3.81,0,0,1,266,432a2.16,2.16,0,0,1,1.62-.63,2.78,2.78,0,0,1,1.26.27,2.51,2.51,0,0,1,.85.65,2.72,2.72,0,0,1,.45.77,2.06,2.06,0,0,1,.14.68,5.28,5.28,0,0,1-.4,1.66l-6.08,17.24a11,11,0,0,1-2.32,4.18,5,5,0,0,1-3.69,1.3,3.84,3.84,0,0,1-2.48-.68,2.15,2.15,0,0,1-.83-1.73,1.93,1.93,0,0,1,.67-1.57,2.62,2.62,0,0,1,1.75-.56h.54a2.07,2.07,0,0,0,1.13-.29,2.18,2.18,0,0,0,.7-1.37l-5.47-15.59-.11-.29q-.29-.9-.41-1.33a2.93,2.93,0,0,1-.13-.83A2.38,2.38,0,0,1,254,432a2.52,2.52,0,0,1,1.8-.72,2.85,2.85,0,0,1,1.75.52,2.59,2.59,0,0,1,1,1.46Z" transform="translate(-16.33 -76.61)"/>
        <path class="cls-8" d="M276.9,442.19a4.52,4.52,0,0,0,4.86,4.79,5.47,5.47,0,0,0,2.36-.41,7.9,7.9,0,0,0,1.71-1.17,5.72,5.72,0,0,1,1-.76,2.19,2.19,0,0,1,2.57.4,2,2,0,0,1,.63,1.4,2.91,2.91,0,0,1-.79,2,6.3,6.3,0,0,1-2.07,1.48,12.06,12.06,0,0,1-2.7.88,13.59,13.59,0,0,1-2.68.29,11.83,11.83,0,0,1-4.57-.81A8.61,8.61,0,0,1,274,448.1a8.8,8.8,0,0,1-1.8-3.06,10.75,10.75,0,0,1-.58-3.49,10.31,10.31,0,0,1,2.66-7.43,9.58,9.58,0,0,1,7.27-2.79,10.78,10.78,0,0,1,4,.7,8.75,8.75,0,0,1,3,1.94,8.45,8.45,0,0,1,1.87,2.77,8.3,8.3,0,0,1,.63,3.19,2.5,2.5,0,0,1-.49,1.8,2.65,2.65,0,0,1-1.82.47Zm9.22-3a4.75,4.75,0,0,0-1.46-3,4.18,4.18,0,0,0-3-1.17,4.51,4.51,0,0,0-3.13,1.1,5.6,5.6,0,0,0-1.66,3.08Z" transform="translate(-16.33 -76.61)"/>
        <path class="cls-8" d="M294.32,434.51a5.37,5.37,0,0,1,1.84-1.84,8.61,8.61,0,0,1,2.54-1,12.38,12.38,0,0,1,2.83-.32,15,15,0,0,1,3,.29,12,12,0,0,1,2.59.81,5.3,5.3,0,0,1,1.82,1.28,2.41,2.41,0,0,1,.67,1.62A2.37,2.37,0,0,1,309,437a2,2,0,0,1-1.6.67,2,2,0,0,1-1-.23,7.1,7.1,0,0,1-1-.77,6.73,6.73,0,0,0-1.48-1,4.4,4.4,0,0,0-1.94-.36,5.09,5.09,0,0,0-2.23.4,1.29,1.29,0,0,0-.79,1.22,1.24,1.24,0,0,0,.67,1.19,8.76,8.76,0,0,0,2.14.68l2.2.5a24.75,24.75,0,0,1,2.45.7,8.39,8.39,0,0,1,2,1,5.14,5.14,0,0,1,1.51,1.62,4.37,4.37,0,0,1,.58,2.27,5.39,5.39,0,0,1-.68,2.74,6,6,0,0,1-1.84,2,8.18,8.18,0,0,1-2.61,1.17,11.79,11.79,0,0,1-3,.38,15.08,15.08,0,0,1-3.35-.36,10.58,10.58,0,0,1-2.79-1,6.3,6.3,0,0,1-1.89-1.51,2.84,2.84,0,0,1-.68-1.82,2.32,2.32,0,0,1,.54-1.57,2,2,0,0,1,1.58-.63,2,2,0,0,1,1.12.31,7.88,7.88,0,0,1,1.15,1,8.28,8.28,0,0,0,1.76,1.44,4.63,4.63,0,0,0,2.34.5,4.06,4.06,0,0,0,2.21-.54,1.59,1.59,0,0,0,.85-1.37,1.3,1.3,0,0,0-.61-1.22,8.46,8.46,0,0,0-2.12-.72l-.29-.07-3.1-.76a9.56,9.56,0,0,1-4-1.87,4.61,4.61,0,0,1-1.4-3.67A5.09,5.09,0,0,1,294.32,434.51Z" transform="translate(-16.33 -76.61)"/>
      </g>
    </g>
    <g id="getalittlebit">
      <rect class="cls-5" x="674.35" y="158.05" width="236" height="65.88" rx="20" ry="20"/>
      <path class="cls-6" d="M713.37,243c-10.48-.44-16.94,5-17,17.64l5.73,1.37s-.92-13.06,8.93-13.29C711.77,249,713.37,243,713.37,243Z" transform="translate(-16.33 -76.61)"/>
      <path class="cls-7" d="M921.56,267.12l-6.88,1.73c-.12,13-4.19,15.54-13.46,16L897,292.15C911.75,293,921.14,285.51,921.56,267.12Z" transform="translate(-16.33 -76.61)"/>
      <g>
        <path class="cls-9" d="M728.44,276.94a1.59,1.59,0,0,1-.48,1.17,1.63,1.63,0,0,1-1.2.48,1.6,1.6,0,0,1-1.44-.63,5.72,5.72,0,0,1-.66-2.16A7.5,7.5,0,0,1,722,278a8.59,8.59,0,0,1-3.75.75,11.88,11.88,0,0,1-4.79-.88,8.52,8.52,0,0,1-3.29-2.44,10.3,10.3,0,0,1-1.86-3.58,15.4,15.4,0,0,1-.6-4.4,13.39,13.39,0,0,1,.81-4.82,9.71,9.71,0,0,1,2.29-3.55,9.86,9.86,0,0,1,3.56-2.19,13.39,13.39,0,0,1,4.59-.75,11.42,11.42,0,0,1,3.53.51,9,9,0,0,1,2.65,1.32,6.36,6.36,0,0,1,1.63,1.71,3.2,3.2,0,0,1,.56,1.65,1.93,1.93,0,0,1-.67,1.67,2.69,2.69,0,0,1-1.64.5,1.67,1.67,0,0,1-1.08-.32,5.53,5.53,0,0,1-.87-.94,9,9,0,0,0-.66-.84,3.7,3.7,0,0,0-.78-.63,4.18,4.18,0,0,0-1.21-.48,7.33,7.33,0,0,0-1.73-.18,5.57,5.57,0,0,0-4.4,1.89q-1.66,1.89-1.67,5.79a8.07,8.07,0,0,0,1.59,5.24,5.49,5.49,0,0,0,4.53,2,5.27,5.27,0,0,0,3.47-1.23,4.51,4.51,0,0,0,1.66-3.18h-3.21a2.75,2.75,0,0,1-1.57-.44,1.62,1.62,0,0,1-.65-1.45,1.68,1.68,0,0,1,1.92-1.89h6.06a2,2,0,0,1,1.53.51,2.21,2.21,0,0,1,.48,1.56Z" transform="translate(-16.33 -76.61)"/>
        <path class="cls-9" d="M736,271.17a3.77,3.77,0,0,0,4,4,4.56,4.56,0,0,0,2-.35,6.58,6.58,0,0,0,1.42-1,4.77,4.77,0,0,1,.81-.63,1.82,1.82,0,0,1,2.15.33,1.66,1.66,0,0,1,.52,1.17,2.43,2.43,0,0,1-.66,1.67,5.26,5.26,0,0,1-1.73,1.23,10,10,0,0,1-2.25.73,11.28,11.28,0,0,1-2.24.24,9.85,9.85,0,0,1-3.81-.68,7.17,7.17,0,0,1-2.64-1.81,7.33,7.33,0,0,1-1.5-2.55,9,9,0,0,1-.48-2.91,8.6,8.6,0,0,1,2.22-6.19,8,8,0,0,1,6.06-2.33,9,9,0,0,1,3.31.58,7.29,7.29,0,0,1,2.52,1.62,7,7,0,0,1,1.56,2.31,6.92,6.92,0,0,1,.52,2.65,2.09,2.09,0,0,1-.4,1.5,2.21,2.21,0,0,1-1.52.39Zm7.68-2.52a4,4,0,0,0-1.22-2.5,3.48,3.48,0,0,0-2.47-1,3.76,3.76,0,0,0-2.61.92,4.67,4.67,0,0,0-1.38,2.56Z" transform="translate(-16.33 -76.61)"/>
        <path class="cls-9" d="M751.81,265.38h-.75q-1.74,0-1.74-1.44t1.74-1.44h.75v-2.67a2.16,2.16,0,0,1,.58-1.62,2.55,2.55,0,0,1,3.21,0,2.16,2.16,0,0,1,.58,1.62v2.67h1.32q2,0,2,1.44t-2,1.44h-1.32v8.76q0,1,1.14,1H758q1.53,0,1.53,1.47,0,2-3.18,2a5,5,0,0,1-3.42-1,3.74,3.74,0,0,1-1.08-2.92Z" transform="translate(-16.33 -76.61)"/>
        <path class="cls-9" d="M785.5,274a6.88,6.88,0,0,0,.09,1.23q.09.48.21,1a2.71,2.71,0,0,1,.15.75,1.49,1.49,0,0,1-.59,1.2,2.13,2.13,0,0,1-1.4.48,2.39,2.39,0,0,1-1.92-.71,3,3,0,0,1-.66-1.85,7.5,7.5,0,0,1-2.7,2,8.66,8.66,0,0,1-3.3.6,5.23,5.23,0,0,1-3.47-1.25,4,4,0,0,1-1.48-3.23,4.89,4.89,0,0,1,.46-2.23,3.83,3.83,0,0,1,1.29-1.47,6.77,6.77,0,0,1,1.92-.87,14.78,14.78,0,0,1,2.45-.47l2.67-.3a3.4,3.4,0,0,0,1.41-.44,1.32,1.32,0,0,0,.48-1.19,1.46,1.46,0,0,0-.78-1.35,3.92,3.92,0,0,0-2-.45,4.12,4.12,0,0,0-1.95.39,6.79,6.79,0,0,0-1.44,1.08,5,5,0,0,1-.84.71,1.55,1.55,0,0,1-.84.23,1.87,1.87,0,0,1-1.33-.5,1.57,1.57,0,0,1-.52-1.19,2.48,2.48,0,0,1,.46-1.36,4.6,4.6,0,0,1,1.36-1.29,7.88,7.88,0,0,1,2.21-.95,11,11,0,0,1,2.93-.36,10.35,10.35,0,0,1,5.2,1.11,3.66,3.66,0,0,1,1.91,3.39Zm-4.38-3.15a2.09,2.09,0,0,1-.77.42,9.15,9.15,0,0,1-1.1.27h0l-1.59.24a4.94,4.94,0,0,0-2.13.71,1.68,1.68,0,0,0-.69,1.46,1.58,1.58,0,0,0,.66,1.27,2.76,2.76,0,0,0,1.77.52,4.07,4.07,0,0,0,2.81-.94,2.9,2.9,0,0,0,1.06-2.23Z" transform="translate(-16.33 -76.61)"/>
        <path class="cls-9" d="M798.7,258.4a2.16,2.16,0,0,1,.58-1.62,2.54,2.54,0,0,1,3.21,0,2.16,2.16,0,0,1,.58,1.62v18a2.16,2.16,0,0,1-.58,1.62,2.54,2.54,0,0,1-3.21,0,2.16,2.16,0,0,1-.58-1.62Z" transform="translate(-16.33 -76.61)"/>
        <path class="cls-9" d="M807.61,256.74a2.32,2.32,0,1,1-.66,1.62A2.2,2.2,0,0,1,807.61,256.74ZM807,264.3a2.42,2.42,0,0,1,.5-1.59,2.69,2.69,0,0,1,3.39,0,2.42,2.42,0,0,1,.49,1.59V276.4a2.42,2.42,0,0,1-.49,1.59,2.69,2.69,0,0,1-3.39,0,2.42,2.42,0,0,1-.5-1.59Z" transform="translate(-16.33 -76.61)"/>
        <path class="cls-9" d="M816.28,265.38h-.75q-1.74,0-1.74-1.44t1.74-1.44h.75v-2.67a2.16,2.16,0,0,1,.58-1.62,2.55,2.55,0,0,1,3.21,0,2.16,2.16,0,0,1,.58,1.62v2.67H822q2,0,2,1.44t-2,1.44h-1.32v8.76q0,1,1.14,1h.63q1.53,0,1.53,1.47,0,2-3.18,2a5,5,0,0,1-3.42-1,3.74,3.74,0,0,1-1.08-2.92Z" transform="translate(-16.33 -76.61)"/>
        <path class="cls-9" d="M827.38,265.38h-.75q-1.74,0-1.74-1.44t1.74-1.44h.75v-2.67a2.16,2.16,0,0,1,.58-1.62,2.55,2.55,0,0,1,3.21,0,2.16,2.16,0,0,1,.58,1.62v2.67h1.32q2,0,2,1.44t-2,1.44h-1.32v8.76q0,1,1.14,1h.63q1.53,0,1.53,1.47,0,2-3.18,2a5,5,0,0,1-3.42-1,3.74,3.74,0,0,1-1.08-2.92Z" transform="translate(-16.33 -76.61)"/>
        <path class="cls-9" d="M837.58,258.4a2.16,2.16,0,0,1,.58-1.62,2.54,2.54,0,0,1,3.21,0,2.16,2.16,0,0,1,.58,1.62v18a2.16,2.16,0,0,1-.58,1.62,2.54,2.54,0,0,1-3.21,0,2.16,2.16,0,0,1-.58-1.62Z" transform="translate(-16.33 -76.61)"/>
        <path class="cls-9" d="M849.4,271.17a3.77,3.77,0,0,0,4,4,4.56,4.56,0,0,0,2-.35,6.58,6.58,0,0,0,1.42-1,4.77,4.77,0,0,1,.81-.63,1.82,1.82,0,0,1,2.15.33,1.66,1.66,0,0,1,.52,1.17,2.43,2.43,0,0,1-.66,1.67,5.26,5.26,0,0,1-1.73,1.23,10,10,0,0,1-2.25.73,11.28,11.28,0,0,1-2.24.24,9.85,9.85,0,0,1-3.81-.68,7.17,7.17,0,0,1-2.64-1.81,7.33,7.33,0,0,1-1.5-2.55,9,9,0,0,1-.48-2.91,8.6,8.6,0,0,1,2.22-6.19,8,8,0,0,1,6.06-2.33,9,9,0,0,1,3.31.58,7.29,7.29,0,0,1,2.52,1.62,7,7,0,0,1,1.56,2.31,6.92,6.92,0,0,1,.52,2.65,2.09,2.09,0,0,1-.4,1.5,2.21,2.21,0,0,1-1.52.39Zm7.68-2.52a4,4,0,0,0-1.22-2.5,3.48,3.48,0,0,0-2.47-1,3.76,3.76,0,0,0-2.61.92,4.67,4.67,0,0,0-1.38,2.56Z" transform="translate(-16.33 -76.61)"/>
        <path class="cls-9" d="M873.22,258.4a2.16,2.16,0,0,1,.58-1.62,2.54,2.54,0,0,1,3.21,0,2.16,2.16,0,0,1,.58,1.62v5.94h.06a4.38,4.38,0,0,1,1.77-1.65,5.5,5.5,0,0,1,2.55-.57,6.34,6.34,0,0,1,3,.66,6,6,0,0,1,2.11,1.8,8.15,8.15,0,0,1,1.26,2.6,11,11,0,0,1,.42,3.07,11.23,11.23,0,0,1-.54,3.65,7.38,7.38,0,0,1-1.5,2.63,6.13,6.13,0,0,1-2.19,1.56,6.83,6.83,0,0,1-2.64.51,5.61,5.61,0,0,1-2.86-.71,4,4,0,0,1-1.76-2.06h-.06v.69q0,2.07-2,2.07t-2-2.07Zm11,10.32a5.49,5.49,0,0,0-.56-1.56,3.19,3.19,0,0,0-1.08-1.17,3,3,0,0,0-1.68-.45,3,3,0,0,0-2.75,1.54,5.31,5.31,0,0,0-.58,1.56,8.49,8.49,0,0,0-.18,1.76,6.29,6.29,0,0,0,.85,3.42,2.92,2.92,0,0,0,2.66,1.35,3,3,0,0,0,2.58-1.38,6,6,0,0,0,.9-3.39A8.75,8.75,0,0,0,884.19,268.71Z" transform="translate(-16.33 -76.61)"/>
        <path class="cls-9" d="M892.36,256.74a2.32,2.32,0,1,1-.66,1.62A2.2,2.2,0,0,1,892.36,256.74Zm-.57,7.56a2.42,2.42,0,0,1,.5-1.59,2.69,2.69,0,0,1,3.39,0,2.42,2.42,0,0,1,.49,1.59V276.4a2.42,2.42,0,0,1-.49,1.59,2.69,2.69,0,0,1-3.39,0,2.42,2.42,0,0,1-.5-1.59Z" transform="translate(-16.33 -76.61)"/>
        <path class="cls-9" d="M901,265.38h-.75q-1.74,0-1.74-1.44t1.74-1.44H901v-2.67a2.16,2.16,0,0,1,.58-1.62,2.55,2.55,0,0,1,3.21,0,2.16,2.16,0,0,1,.58,1.62v2.67h1.32q2,0,2,1.44t-2,1.44h-1.32v8.76q0,1,1.14,1h.63q1.53,0,1.53,1.47,0,2-3.18,2a5,5,0,0,1-3.42-1,3.74,3.74,0,0,1-1.08-2.92Z" transform="translate(-16.33 -76.61)"/>
      </g>
    </g>
    <g id="fallapart">
      <rect class="cls-5" x="379.4" y="484.05" width="236" height="65.88" rx="20" ry="20"/>
      <path class="cls-6" d="M418.42,569c-10.48-.44-16.94,5-17,17.64l5.73,1.37s-.92-13.06,8.93-13.29C416.82,575,418.42,569,418.42,569Z" transform="translate(-16.33 -76.61)"/>
      <path class="cls-7" d="M626.61,593.12l-6.88,1.73c-.12,13-4.19,15.54-13.46,16l-4.19,7.34C616.8,619,626.19,611.51,626.61,593.12Z" transform="translate(-16.33 -76.61)"/>
      <g>
        <path class="cls-9" d="M445.26,585.47a2.86,2.86,0,0,1,.73-2.22,3.11,3.11,0,0,1,2.15-.66H459a3.3,3.3,0,0,1,1.85.43,2.16,2.16,0,0,1,0,3.08,3.21,3.21,0,0,1-1.85.45h-8.79v5h7.44a3.05,3.05,0,0,1,1.7.41,2.08,2.08,0,0,1,0,3,3,3,0,0,1-1.7.42h-7.44v6.75a2.44,2.44,0,0,1-.66,1.78,2.47,2.47,0,0,1-4.26-1.78Z" transform="translate(-16.33 -76.61)"/>
        <path class="cls-9" d="M476.4,600a6.87,6.87,0,0,0,.09,1.23q.09.48.21,1a2.71,2.71,0,0,1,.15.75,1.49,1.49,0,0,1-.59,1.2,2.13,2.13,0,0,1-1.4.48,2.39,2.39,0,0,1-1.92-.71,3,3,0,0,1-.66-1.85,7.49,7.49,0,0,1-2.7,2,8.65,8.65,0,0,1-3.3.6,5.23,5.23,0,0,1-3.47-1.25,4,4,0,0,1-1.48-3.23,4.89,4.89,0,0,1,.46-2.23,3.83,3.83,0,0,1,1.29-1.47,6.78,6.78,0,0,1,1.92-.87,14.73,14.73,0,0,1,2.45-.47l2.67-.3a3.39,3.39,0,0,0,1.41-.43,1.32,1.32,0,0,0,.48-1.19,1.46,1.46,0,0,0-.78-1.35,3.92,3.92,0,0,0-2-.45,4.13,4.13,0,0,0-1.95.39,6.8,6.8,0,0,0-1.44,1.08,5,5,0,0,1-.84.71,1.55,1.55,0,0,1-.84.23,1.87,1.87,0,0,1-1.33-.5,1.57,1.57,0,0,1-.52-1.19,2.48,2.48,0,0,1,.46-1.36,4.6,4.6,0,0,1,1.36-1.29,7.86,7.86,0,0,1,2.21-.95,11,11,0,0,1,2.93-.36,10.35,10.35,0,0,1,5.2,1.11,3.66,3.66,0,0,1,1.91,3.39ZM472,596.81a2.08,2.08,0,0,1-.77.42,9.14,9.14,0,0,1-1.1.27h0l-1.59.24a5,5,0,0,0-2.13.71,1.68,1.68,0,0,0-.69,1.46,1.58,1.58,0,0,0,.66,1.28,2.76,2.76,0,0,0,1.77.52,4.07,4.07,0,0,0,2.81-.94,2.9,2.9,0,0,0,1.06-2.24Z" transform="translate(-16.33 -76.61)"/>
        <path class="cls-9" d="M480.42,584.39a2.16,2.16,0,0,1,.58-1.62,2.54,2.54,0,0,1,3.21,0,2.16,2.16,0,0,1,.58,1.62v18a2.16,2.16,0,0,1-.58,1.62,2.54,2.54,0,0,1-3.21,0,2.16,2.16,0,0,1-.58-1.62Z" transform="translate(-16.33 -76.61)"/>
        <path class="cls-9" d="M488.76,584.39a2.16,2.16,0,0,1,.58-1.62,2.54,2.54,0,0,1,3.21,0,2.16,2.16,0,0,1,.58,1.62v18a2.16,2.16,0,0,1-.58,1.62,2.54,2.54,0,0,1-3.21,0,2.16,2.16,0,0,1-.58-1.62Z" transform="translate(-16.33 -76.61)"/>
        <path class="cls-9" d="M520.59,600a6.87,6.87,0,0,0,.09,1.23q.09.48.21,1a2.71,2.71,0,0,1,.15.75,1.49,1.49,0,0,1-.59,1.2,2.13,2.13,0,0,1-1.4.48,2.39,2.39,0,0,1-1.92-.71,3,3,0,0,1-.66-1.85,7.49,7.49,0,0,1-2.7,2,8.65,8.65,0,0,1-3.3.6,5.23,5.23,0,0,1-3.47-1.25,4,4,0,0,1-1.48-3.23,4.89,4.89,0,0,1,.46-2.23,3.83,3.83,0,0,1,1.29-1.47,6.78,6.78,0,0,1,1.92-.87,14.73,14.73,0,0,1,2.45-.47l2.67-.3a3.39,3.39,0,0,0,1.41-.43,1.32,1.32,0,0,0,.48-1.19,1.46,1.46,0,0,0-.78-1.35,3.92,3.92,0,0,0-2-.45,4.13,4.13,0,0,0-1.95.39,6.8,6.8,0,0,0-1.44,1.08,5,5,0,0,1-.84.71,1.55,1.55,0,0,1-.84.23,1.87,1.87,0,0,1-1.33-.5,1.57,1.57,0,0,1-.52-1.19,2.48,2.48,0,0,1,.46-1.36,4.6,4.6,0,0,1,1.36-1.29,7.86,7.86,0,0,1,2.21-.95,11,11,0,0,1,2.93-.36,10.35,10.35,0,0,1,5.2,1.11,3.66,3.66,0,0,1,1.91,3.39Zm-4.38-3.15a2.08,2.08,0,0,1-.77.42,9.14,9.14,0,0,1-1.1.27h0l-1.59.24a5,5,0,0,0-2.13.71,1.68,1.68,0,0,0-.69,1.46,1.58,1.58,0,0,0,.66,1.28,2.76,2.76,0,0,0,1.77.52,4.07,4.07,0,0,0,2.81-.94,2.9,2.9,0,0,0,1.06-2.24Z" transform="translate(-16.33 -76.61)"/>
        <path class="cls-9" d="M524.37,590.18q0-2.07,2-2.07t2,2.07v.69h.06a4,4,0,0,1,1.76-2.06,5.61,5.61,0,0,1,2.86-.71,6.83,6.83,0,0,1,2.64.51,6.13,6.13,0,0,1,2.19,1.56,7.38,7.38,0,0,1,1.5,2.63,11.23,11.23,0,0,1,.54,3.64,11,11,0,0,1-.42,3.08,8.14,8.14,0,0,1-1.26,2.6,6,6,0,0,1-2.11,1.8,6.35,6.35,0,0,1-3,.66,5.64,5.64,0,0,1-2.61-.57,4,4,0,0,1-1.71-1.65h-.06v5.85a2.16,2.16,0,0,1-.58,1.62,2.55,2.55,0,0,1-3.21,0,2.16,2.16,0,0,1-.58-1.62Zm10.23,2.73a3,3,0,0,0-2.58-1.38,2.92,2.92,0,0,0-2.66,1.35,6.29,6.29,0,0,0-.85,3.42,8.49,8.49,0,0,0,.18,1.75,5,5,0,0,0,.6,1.56,3.27,3.27,0,0,0,1.09,1.13,3.37,3.37,0,0,0,3.31,0,3.2,3.2,0,0,0,1.08-1.17,5.49,5.49,0,0,0,.56-1.56,8.74,8.74,0,0,0,.17-1.68A6,6,0,0,0,534.6,592.92Z" transform="translate(-16.33 -76.61)"/>
        <path class="cls-9" d="M557.25,600a6.87,6.87,0,0,0,.09,1.23q.09.48.21,1a2.71,2.71,0,0,1,.15.75,1.49,1.49,0,0,1-.59,1.2,2.13,2.13,0,0,1-1.4.48,2.39,2.39,0,0,1-1.92-.71,3,3,0,0,1-.66-1.85,7.49,7.49,0,0,1-2.7,2,8.65,8.65,0,0,1-3.3.6,5.23,5.23,0,0,1-3.47-1.25,4,4,0,0,1-1.48-3.23,4.89,4.89,0,0,1,.46-2.23,3.83,3.83,0,0,1,1.29-1.47,6.78,6.78,0,0,1,1.92-.87,14.73,14.73,0,0,1,2.45-.47l2.67-.3a3.39,3.39,0,0,0,1.41-.43,1.32,1.32,0,0,0,.48-1.19,1.46,1.46,0,0,0-.78-1.35,3.92,3.92,0,0,0-2-.45,4.13,4.13,0,0,0-1.95.39,6.8,6.8,0,0,0-1.44,1.08,5,5,0,0,1-.84.71,1.55,1.55,0,0,1-.84.23,1.87,1.87,0,0,1-1.33-.5,1.57,1.57,0,0,1-.52-1.19,2.48,2.48,0,0,1,.46-1.36,4.6,4.6,0,0,1,1.36-1.29,7.86,7.86,0,0,1,2.21-.95,11,11,0,0,1,2.93-.36,10.35,10.35,0,0,1,5.2,1.11,3.66,3.66,0,0,1,1.91,3.39Zm-4.38-3.15a2.08,2.08,0,0,1-.77.42,9.14,9.14,0,0,1-1.1.27h0l-1.59.24a5,5,0,0,0-2.13.71,1.68,1.68,0,0,0-.69,1.46,1.58,1.58,0,0,0,.66,1.28,2.76,2.76,0,0,0,1.77.52,4.07,4.07,0,0,0,2.81-.94,2.9,2.9,0,0,0,1.06-2.24Z" transform="translate(-16.33 -76.61)"/>
        <path class="cls-9" d="M561.27,590.15a2,2,0,0,1,.56-1.5,2.15,2.15,0,0,1,2.85,0,2,2,0,0,1,.56,1.5v1.68h.06a7.24,7.24,0,0,1,1.31-2.67,2.84,2.84,0,0,1,2.32-1.05,2.5,2.5,0,0,1,1.73.6,2,2,0,0,1,.67,1.53,2.07,2.07,0,0,1-.61,1.67,2.29,2.29,0,0,1-1.54.53h-.78a2.24,2.24,0,0,0-2.05,1.11,7.63,7.63,0,0,0-.68,3.75v5.1a2.42,2.42,0,0,1-.49,1.59,2.69,2.69,0,0,1-3.39,0,2.42,2.42,0,0,1-.5-1.59Z" transform="translate(-16.33 -76.61)"/>
        <path class="cls-9" d="M574.38,591.38h-.75q-1.74,0-1.74-1.44t1.74-1.44h.75v-2.67a2.16,2.16,0,0,1,.58-1.62,2.54,2.54,0,0,1,3.21,0,2.16,2.16,0,0,1,.58,1.62v2.67h1.32q2,0,2,1.44t-2,1.44h-1.32v8.76q0,1,1.14,1h.63q1.53,0,1.53,1.47,0,1.95-3.18,2a5,5,0,0,1-3.42-1,3.74,3.74,0,0,1-1.08-2.92Z" transform="translate(-16.33 -76.61)"/>
      </g>
    </g>
    <g id="everynow">
      <rect class="cls-5" x="373.59" y="149.46" width="224.89" height="98" rx="20" ry="20"/>
      <path class="cls-6" d="M416.71,234.46c-13-.54-21,6.24-21,21.82l7.09,1.7s-1.13-16.15,11.05-16.44C414.72,241.83,416.71,234.46,416.71,234.46Z" transform="translate(-16.33 -76.61)"/>
      <path class="cls-7" d="M610.62,288.48l-8.5,2.13c-.15,16.07-5.17,19.18-16.62,19.71l-5.17,9.06C598.51,320.45,610.1,311.18,610.62,288.48Z" transform="translate(-16.33 -76.61)"/>
      <g>
        <path class="cls-8" d="M417.21,249.77a3.34,3.34,0,0,1,.86-2.59,3.63,3.63,0,0,1,2.5-.77H434a3.84,3.84,0,0,1,2.15.51,2.51,2.51,0,0,1,0,3.59A3.74,3.74,0,0,1,434,251H423v5.46h9.73a3.57,3.57,0,0,1,2,.47,2.43,2.43,0,0,1,0,3.45,3.46,3.46,0,0,1-2,.49H423V267h11.38a3.84,3.84,0,0,1,2.15.51,2.51,2.51,0,0,1,0,3.59,3.74,3.74,0,0,1-2.15.52H420.57a3.63,3.63,0,0,1-2.5-.77,3.34,3.34,0,0,1-.86-2.59Z" transform="translate(-16.33 -76.61)"/>
        <path class="cls-8" d="M438.95,256.8a7.23,7.23,0,0,1-.23-.73,2.42,2.42,0,0,1-.09-.56,2.57,2.57,0,0,1,.73-2,2.48,2.48,0,0,1,1.75-.68,2.56,2.56,0,0,1,1.15.24,2.39,2.39,0,0,1,.77.58,2.54,2.54,0,0,1,.42.68,5.18,5.18,0,0,1,.21.63l3.43,11.55h.07L450.6,255a4.29,4.29,0,0,1,.21-.61,2.68,2.68,0,0,1,.44-.68,2.52,2.52,0,0,1,.77-.6,2.45,2.45,0,0,1,1.14-.24,2.48,2.48,0,0,1,1.75.68,2.57,2.57,0,0,1,.73,2,2.45,2.45,0,0,1-.09.56,7.49,7.49,0,0,1-.23.73l-4.83,13.44a2.66,2.66,0,0,1-1,1.47,8.38,8.38,0,0,1-4.79,0,2.66,2.66,0,0,1-1-1.47Z" transform="translate(-16.33 -76.61)"/>
        <path class="cls-8" d="M462.26,263.42a4.4,4.4,0,0,0,4.73,4.65,5.31,5.31,0,0,0,2.29-.4,7.67,7.67,0,0,0,1.66-1.14,5.55,5.55,0,0,1,.95-.73,2.13,2.13,0,0,1,2.5.39,1.93,1.93,0,0,1,.61,1.36,2.83,2.83,0,0,1-.77,1.94,6.12,6.12,0,0,1-2,1.44,11.72,11.72,0,0,1-2.62.86,13.18,13.18,0,0,1-2.61.28,11.51,11.51,0,0,1-4.45-.79,8.37,8.37,0,0,1-3.08-2.12,8.55,8.55,0,0,1-1.75-3,10.46,10.46,0,0,1-.56-3.4,10,10,0,0,1,2.59-7.23,9.31,9.31,0,0,1,7.07-2.71,10.47,10.47,0,0,1,3.87.68,8.51,8.51,0,0,1,2.94,1.89,8.22,8.22,0,0,1,1.82,2.69,8.07,8.07,0,0,1,.61,3.1,2.43,2.43,0,0,1-.47,1.75,2.57,2.57,0,0,1-1.77.46Zm9-2.94a4.62,4.62,0,0,0-1.42-2.92,4.07,4.07,0,0,0-2.89-1.14,4.39,4.39,0,0,0-3,1.07,5.44,5.44,0,0,0-1.61,3Z" transform="translate(-16.33 -76.61)"/>
        <path class="cls-8" d="M479.62,255.23a2.33,2.33,0,0,1,.65-1.75,2.51,2.51,0,0,1,3.33,0,2.33,2.33,0,0,1,.65,1.75v2h.07a8.46,8.46,0,0,1,1.52-3.12,3.31,3.31,0,0,1,2.71-1.22,2.92,2.92,0,0,1,2,.7,2.28,2.28,0,0,1,.79,1.79,2.42,2.42,0,0,1-.72,1.94,2.68,2.68,0,0,1-1.8.61h-.91a2.62,2.62,0,0,0-2.4,1.3,8.9,8.9,0,0,0-.79,4.38v5.95a2.82,2.82,0,0,1-.58,1.85,3.14,3.14,0,0,1-4,0,2.82,2.82,0,0,1-.58-1.85Z" transform="translate(-16.33 -76.61)"/>
        <path class="cls-8" d="M500.37,266.71h.07l3.11-11.58a3.7,3.7,0,0,1,.88-1.66,2.1,2.1,0,0,1,1.58-.61,2.71,2.71,0,0,1,1.23.26,2.45,2.45,0,0,1,.82.63,2.63,2.63,0,0,1,.44.75,2,2,0,0,1,.14.67,5.14,5.14,0,0,1-.39,1.61l-5.92,16.76a10.65,10.65,0,0,1-2.26,4.06,4.89,4.89,0,0,1-3.59,1.26,3.73,3.73,0,0,1-2.42-.67,2.09,2.09,0,0,1-.81-1.68,1.88,1.88,0,0,1,.65-1.52,2.55,2.55,0,0,1,1.7-.54h.52a2,2,0,0,0,1.1-.28,2.13,2.13,0,0,0,.68-1.33l-5.32-15.16-.1-.28q-.28-.87-.4-1.29a2.86,2.86,0,0,1-.12-.81,2.32,2.32,0,0,1,.73-1.75,2.45,2.45,0,0,1,1.75-.7,2.77,2.77,0,0,1,1.7.51,2.52,2.52,0,0,1,.93,1.42Z" transform="translate(-16.33 -76.61)"/>
        <path class="cls-8" d="M521.79,255.4a2.81,2.81,0,0,1,.58-1.87,2.54,2.54,0,0,1,3.46,0,2.81,2.81,0,0,1,.58,1.87v.67h.07a9,9,0,0,1,2.68-2.38,7,7,0,0,1,3.52-.84,8.39,8.39,0,0,1,2.36.33,5.59,5.59,0,0,1,2.06,1.12,5.4,5.4,0,0,1,1.47,2.1,8.29,8.29,0,0,1,.54,3.17v9.94a2.82,2.82,0,0,1-.58,1.85,3.14,3.14,0,0,1-4,0,2.82,2.82,0,0,1-.58-1.85v-8.92a3.88,3.88,0,0,0-.81-2.57,3,3,0,0,0-2.42-1,3.88,3.88,0,0,0-2.68,1.1,3.77,3.77,0,0,0-1.21,2.92v8.44a2.82,2.82,0,0,1-.58,1.85,3.14,3.14,0,0,1-4,0,2.82,2.82,0,0,1-.58-1.85Z" transform="translate(-16.33 -76.61)"/>
        <path class="cls-8" d="M543,258.64a8.7,8.7,0,0,1,1.8-3,10.33,10.33,0,0,1,14.07,0,8.72,8.72,0,0,1,1.8,3,11.32,11.32,0,0,1,.61,3.8,12.79,12.79,0,0,1-.53,3.73,8.5,8.5,0,0,1-1.63,3,7.57,7.57,0,0,1-2.94,2.08,12.8,12.8,0,0,1-8.7,0,7.5,7.5,0,0,1-2.94-2.08,8.53,8.53,0,0,1-1.65-3.06,12.79,12.79,0,0,1-.53-3.73A11.31,11.31,0,0,1,543,258.64Zm5.58,8a4,4,0,0,0,6.51,0,7.51,7.51,0,0,0,1.08-4.18,7.27,7.27,0,0,0-1.1-4.22,4.09,4.09,0,0,0-6.47,0,7.27,7.27,0,0,0-1.1,4.22A7.5,7.5,0,0,0,548.6,266.62Z" transform="translate(-16.33 -76.61)"/>
        <path class="cls-8" d="M563.16,257.11a6.53,6.53,0,0,1-.35-1.89,2.21,2.21,0,0,1,.75-1.68,2.47,2.47,0,0,1,1.73-.7,2.14,2.14,0,0,1,1.75.58,5.07,5.07,0,0,1,.77,1.91l2.69,11.2h.07l2.17-10.18a7.15,7.15,0,0,1,1-2.66,2.58,2.58,0,0,1,2.22-.84,2.79,2.79,0,0,1,2.31.84,6.55,6.55,0,0,1,1.05,2.66l2.21,10.18h.07l2.52-11.2a4.57,4.57,0,0,1,.75-1.91,2.2,2.2,0,0,1,1.77-.58,2.47,2.47,0,0,1,1.73.7,2.22,2.22,0,0,1,.75,1.68,6.54,6.54,0,0,1-.35,1.89L585,269.29a4.65,4.65,0,0,1-1.16,2.27,3.63,3.63,0,0,1-2.17.49,3.27,3.27,0,0,1-2.17-.54,4.49,4.49,0,0,1-1-2.12l-2.52-10h-.07l-2.52,10a4.5,4.5,0,0,1-1,2.12,3.27,3.27,0,0,1-2.17.54,3.54,3.54,0,0,1-2.15-.49,5,5,0,0,1-1.17-2.27Z" transform="translate(-16.33 -76.61)"/>
        <path class="cls-8" d="M434.12,302.67a8,8,0,0,0,.1,1.44q.11.56.25,1.12a3.16,3.16,0,0,1,.17.88,1.74,1.74,0,0,1-.68,1.4,2.49,2.49,0,0,1-1.63.56,2.79,2.79,0,0,1-2.24-.82,3.5,3.5,0,0,1-.77-2.15,8.75,8.75,0,0,1-3.15,2.27,10.11,10.11,0,0,1-3.85.7,6.1,6.1,0,0,1-4-1.45,4.68,4.68,0,0,1-1.73-3.76,5.7,5.7,0,0,1,.54-2.61,4.46,4.46,0,0,1,1.5-1.71,7.89,7.89,0,0,1,2.24-1,17.31,17.31,0,0,1,2.85-.54l3.11-.35a4,4,0,0,0,1.65-.51,1.53,1.53,0,0,0,.56-1.38,1.71,1.71,0,0,0-.91-1.58,4.57,4.57,0,0,0-2.31-.52,4.8,4.8,0,0,0-2.27.46,7.89,7.89,0,0,0-1.68,1.26,5.9,5.9,0,0,1-1,.82,1.81,1.81,0,0,1-1,.26,2.18,2.18,0,0,1-1.56-.58,1.83,1.83,0,0,1-.61-1.38,2.9,2.9,0,0,1,.54-1.59,5.37,5.37,0,0,1,1.59-1.5,9.18,9.18,0,0,1,2.57-1.1,12.82,12.82,0,0,1,3.41-.42,12.08,12.08,0,0,1,6.07,1.29,4.27,4.27,0,0,1,2.22,4ZM429,299a2.43,2.43,0,0,1-.89.49,10.58,10.58,0,0,1-1.28.31h0l-1.85.28a5.77,5.77,0,0,0-2.48.82,2,2,0,0,0-.81,1.7,1.84,1.84,0,0,0,.77,1.49,3.22,3.22,0,0,0,2.06.61,4.75,4.75,0,0,0,3.27-1.1A3.38,3.38,0,0,0,429,301Z" transform="translate(-16.33 -76.61)"/>
        <path class="cls-8" d="M438.53,291.4a2.81,2.81,0,0,1,.58-1.87,2.54,2.54,0,0,1,3.46,0,2.81,2.81,0,0,1,.58,1.87v.67h.07a9,9,0,0,1,2.68-2.38,7,7,0,0,1,3.52-.84,8.39,8.39,0,0,1,2.36.33,5.59,5.59,0,0,1,2.06,1.12,5.4,5.4,0,0,1,1.47,2.1,8.29,8.29,0,0,1,.54,3.17v9.94a2.82,2.82,0,0,1-.58,1.85,3.14,3.14,0,0,1-4,0,2.82,2.82,0,0,1-.58-1.85v-8.92a3.88,3.88,0,0,0-.81-2.57,3,3,0,0,0-2.42-1,3.88,3.88,0,0,0-2.68,1.1,3.77,3.77,0,0,0-1.21,2.92v8.44a2.82,2.82,0,0,1-.58,1.85,3.14,3.14,0,0,1-4,0,2.82,2.82,0,0,1-.58-1.85Z" transform="translate(-16.33 -76.61)"/>
        <path class="cls-8" d="M477.24,305.65q0,2.41-2.31,2.42t-2.31-2.42v-.81h-.07a4.52,4.52,0,0,1-2,2.4,6.64,6.64,0,0,1-3.36.82,8,8,0,0,1-3.08-.6,7.14,7.14,0,0,1-2.55-1.82,8.6,8.6,0,0,1-1.75-3.06,13.11,13.11,0,0,1-.63-4.25,12.86,12.86,0,0,1,.49-3.59,9.49,9.49,0,0,1,1.47-3,7,7,0,0,1,2.47-2.1,7.4,7.4,0,0,1,3.45-.77,6.43,6.43,0,0,1,3,.66,5.13,5.13,0,0,1,2.06,1.93h.07V284.5a2.52,2.52,0,0,1,.68-1.89,3,3,0,0,1,3.74,0,2.52,2.52,0,0,1,.68,1.89Zm-11.94-3.19a3.48,3.48,0,0,0,3,1.61,3.41,3.41,0,0,0,3.1-1.57,7.33,7.33,0,0,0,1-4,9.9,9.9,0,0,0-.21-2,6.19,6.19,0,0,0-.68-1.82,3.52,3.52,0,0,0-3.2-1.8,3.51,3.51,0,0,0-2,.52,3.72,3.72,0,0,0-1.26,1.37,6.36,6.36,0,0,0-.65,1.82,10.15,10.15,0,0,0-.19,2A7,7,0,0,0,465.3,302.46Z" transform="translate(-16.33 -76.61)"/>
        <path class="cls-8" d="M493.34,292.66h-.87q-2,0-2-1.68t2-1.68h.88v-3.11a2.52,2.52,0,0,1,.68-1.89,3,3,0,0,1,3.75,0,2.52,2.52,0,0,1,.68,1.89v3.11H500q2.31,0,2.31,1.68T500,292.66h-1.54v10.22q0,1.19,1.33,1.19h.74q1.78,0,1.78,1.72,0,2.28-3.71,2.27a5.84,5.84,0,0,1-4-1.14,4.36,4.36,0,0,1-1.26-3.41Z" transform="translate(-16.33 -76.61)"/>
        <path class="cls-8" d="M505,284.5a2.52,2.52,0,0,1,.68-1.89,3,3,0,0,1,3.75,0,2.52,2.52,0,0,1,.68,1.89v7h.07a6.82,6.82,0,0,1,5.71-2.69,8.39,8.39,0,0,1,2.36.33,5.59,5.59,0,0,1,2.06,1.12,5.4,5.4,0,0,1,1.47,2.1,8.29,8.29,0,0,1,.54,3.17v9.94a2.82,2.82,0,0,1-.58,1.85,3.14,3.14,0,0,1-4,0,2.82,2.82,0,0,1-.58-1.85v-8.92a3.88,3.88,0,0,0-.81-2.57,3,3,0,0,0-2.42-1,3.88,3.88,0,0,0-2.68,1.1,3.77,3.77,0,0,0-1.21,2.92v8.44a2.82,2.82,0,0,1-.58,1.85,3.14,3.14,0,0,1-4,0,2.82,2.82,0,0,1-.58-1.85Z" transform="translate(-16.33 -76.61)"/>
        <path class="cls-8" d="M530.68,299.42a4.4,4.4,0,0,0,4.73,4.65,5.31,5.31,0,0,0,2.29-.4,7.67,7.67,0,0,0,1.66-1.14,5.55,5.55,0,0,1,.95-.73,2.13,2.13,0,0,1,2.5.39,1.93,1.93,0,0,1,.61,1.36,2.83,2.83,0,0,1-.77,1.94,6.12,6.12,0,0,1-2,1.44,11.72,11.72,0,0,1-2.62.86,13.18,13.18,0,0,1-2.61.28,11.51,11.51,0,0,1-4.45-.79,8.37,8.37,0,0,1-3.08-2.12,8.55,8.55,0,0,1-1.75-3,10.46,10.46,0,0,1-.56-3.4,10,10,0,0,1,2.59-7.23,9.31,9.31,0,0,1,7.07-2.71,10.47,10.47,0,0,1,3.87.68,8.51,8.51,0,0,1,2.94,1.89,8.22,8.22,0,0,1,1.82,2.69,8.07,8.07,0,0,1,.61,3.1A2.43,2.43,0,0,1,544,299a2.57,2.57,0,0,1-1.77.46Zm9-2.94a4.62,4.62,0,0,0-1.42-2.92,4.07,4.07,0,0,0-2.89-1.14,4.39,4.39,0,0,0-3,1.07,5.44,5.44,0,0,0-1.61,3Z" transform="translate(-16.33 -76.61)"/>
        <path class="cls-8" d="M547.76,291.4a2.81,2.81,0,0,1,.58-1.87,2.54,2.54,0,0,1,3.46,0,2.81,2.81,0,0,1,.58,1.87v.67h.07a9,9,0,0,1,2.68-2.38,7,7,0,0,1,3.52-.84,8.39,8.39,0,0,1,2.36.33,5.59,5.59,0,0,1,2.06,1.12,5.4,5.4,0,0,1,1.47,2.1,8.29,8.29,0,0,1,.54,3.17v9.94a2.82,2.82,0,0,1-.58,1.85,3.14,3.14,0,0,1-4,0,2.82,2.82,0,0,1-.58-1.85v-8.92a3.88,3.88,0,0,0-.81-2.57,3,3,0,0,0-2.42-1,3.88,3.88,0,0,0-2.68,1.1,3.77,3.77,0,0,0-1.21,2.92v8.44a2.82,2.82,0,0,1-.58,1.85,3.14,3.14,0,0,1-4,0,2.82,2.82,0,0,1-.58-1.85Z" transform="translate(-16.33 -76.61)"/>
        <path class="cls-8" d="M580.49,284.82a3,3,0,0,1,5-2.08,2.85,2.85,0,0,1,.77,2.08v20.37a2.85,2.85,0,0,1-.77,2.08,2.88,2.88,0,0,1-5-2.08Z" transform="translate(-16.33 -76.61)"/>
      </g>
    </g>
    <g id="turnaround">
      <rect class="cls-5" x="62.91" y="55.48" width="265.17" height="191.01" rx="20" ry="20"/>
      <path class="cls-6" d="M122.05,140.5c-22.87-1-37,11-37,38.5l12.5,3s-2-28.5,19.5-29C118.55,153.5,122.05,140.5,122.05,140.5Z" transform="translate(-16.33 -76.61)"/>
      <path class="cls-7" d="M340.05,290l-11.5,2c-.21,15.08-7,18-22.5,18.5l-7,8.5C323.66,320,339.35,311.31,340.05,290Z" transform="translate(-16.33 -76.61)"/>
      <g>
        <path class="cls-8" d="M158.9,174.7h-9.3a5.32,5.32,0,0,1-3.12-.84,2.75,2.75,0,0,1-1.2-2.4,7.19,7.19,0,0,1,.06-.9,4.64,4.64,0,0,1,2.1-3.06,7.05,7.05,0,0,1,3.9-1.08h28.44a5.33,5.33,0,0,1,3.12.84,2.75,2.75,0,0,1,1.2,2.4,3.74,3.74,0,0,1-.12.9,4.67,4.67,0,0,1-2.07,3.06A6.91,6.91,0,0,1,178,174.7h-9.3l-6.54,30.78a6.2,6.2,0,0,1-2.1,3.57,5.89,5.89,0,0,1-3.9,1.35,4.18,4.18,0,0,1-2.94-1,3.45,3.45,0,0,1-1.08-2.67,4.8,4.8,0,0,1,.18-1.26Z" transform="translate(-16.33 -76.61)"/>
        <path class="cls-8" d="M202.16,206a6,6,0,0,1-1.65,3.21,4.55,4.55,0,0,1-3.27,1.17q-3.18,0-3.18-2.94a6.44,6.44,0,0,1,.18-1.44l.24-1.14h-.12a20.68,20.68,0,0,1-5.43,4.08,14,14,0,0,1-6.39,1.44,13.25,13.25,0,0,1-3.39-.42,8.31,8.31,0,0,1-2.85-1.35,6.5,6.5,0,0,1-2-2.52,8.86,8.86,0,0,1-.75-3.81,15.61,15.61,0,0,1,.42-3.42l3.6-17a6.44,6.44,0,0,1,1.71-3.18,5,5,0,0,1,3.63-1.2,3.89,3.89,0,0,1,2.76.81,2.9,2.9,0,0,1,.84,2.19,6.21,6.21,0,0,1-.18,1.38l-3.24,15.3a10.77,10.77,0,0,0-.18,1.86,4.17,4.17,0,0,0,1.11,3.09,4.52,4.52,0,0,0,3.33,1.11,8.13,8.13,0,0,0,5-1.89,8.27,8.27,0,0,0,3.12-5l3.06-14.46a6.44,6.44,0,0,1,1.71-3.18,5,5,0,0,1,3.63-1.2,3.89,3.89,0,0,1,2.76.81,2.9,2.9,0,0,1,.84,2.19,6.22,6.22,0,0,1-.18,1.38Z" transform="translate(-16.33 -76.61)"/>
        <path class="cls-8" d="M214.82,181.54a4.8,4.8,0,0,1,4.8-4.08,3.45,3.45,0,0,1,2.34.78,2.78,2.78,0,0,1,.9,2.22,5,5,0,0,1-.12,1.08L222,184.9h.12a18,18,0,0,1,3.72-5.37,7.12,7.12,0,0,1,5.1-2.07,4.26,4.26,0,0,1,2.88.93,3.05,3.05,0,0,1,1.08,2.43,6.43,6.43,0,0,1-.06.9,5.21,5.21,0,0,1-2,3.33,5.59,5.59,0,0,1-3.33,1H228a5.63,5.63,0,0,0-4.56,2.22q-1.8,2.22-2.94,7.5L218.36,206a6,6,0,0,1-1.68,3.18,5.11,5.11,0,0,1-3.66,1.2,3.89,3.89,0,0,1-2.76-.81,2.9,2.9,0,0,1-.84-2.19,6.23,6.23,0,0,1,.18-1.38Z" transform="translate(-16.33 -76.61)"/>
        <path class="cls-8" d="M238.64,181.84a6.41,6.41,0,0,1,1.68-3.21,4.44,4.44,0,0,1,3.24-1.17q3.18,0,3.18,2.94a6.42,6.42,0,0,1-.18,1.44l-.24,1.14h.12a20.48,20.48,0,0,1,5.46-4.08,14,14,0,0,1,6.36-1.44,13.26,13.26,0,0,1,3.39.42,8.07,8.07,0,0,1,2.85,1.38,6.82,6.82,0,0,1,2,2.52,8.67,8.67,0,0,1,.75,3.78,15.65,15.65,0,0,1-.42,3.42l-3.6,17a6,6,0,0,1-1.68,3.18,5.11,5.11,0,0,1-3.66,1.2,3.89,3.89,0,0,1-2.76-.81,2.9,2.9,0,0,1-.84-2.19,6.23,6.23,0,0,1,.18-1.38l3.24-15.3a8.19,8.19,0,0,0,.24-1.86,4.18,4.18,0,0,0-1.11-3.09,4.61,4.61,0,0,0-3.39-1.11,8.11,8.11,0,0,0-5,1.92,8.32,8.32,0,0,0-3.15,5L242.3,206a6,6,0,0,1-1.68,3.18,5.11,5.11,0,0,1-3.66,1.2,3.89,3.89,0,0,1-2.76-.81,2.9,2.9,0,0,1-.84-2.19,6.26,6.26,0,0,1,.18-1.38Z" transform="translate(-16.33 -76.61)"/>
        <path class="cls-8" d="M141.17,273.16a15,15,0,0,0-.36,3.12q0,.54.06,1.2v1.14a2.49,2.49,0,0,0-.06.42,3.84,3.84,0,0,1-1.68,2.4,5.15,5.15,0,0,1-3,1,4.32,4.32,0,0,1-3.21-1,3.79,3.79,0,0,1-1-2.76,7.32,7.32,0,0,1,.12-1.32A18.56,18.56,0,0,1,119,282.4a8.82,8.82,0,0,1-5.79-1.95,6.38,6.38,0,0,1-2.37-5.19,9.79,9.79,0,0,1,.18-1.8,11.47,11.47,0,0,1,1.86-4.47,10.45,10.45,0,0,1,3.21-2.94,17.17,17.17,0,0,1,4.2-1.74,32.74,32.74,0,0,1,5.13-.93l5.46-.6a7.59,7.59,0,0,0,3-.9,3.41,3.41,0,0,0,1.44-2.34,2.94,2.94,0,0,1,.06-.36,1.66,1.66,0,0,0,.06-.36,2.32,2.32,0,0,0-1.35-2.16,7.44,7.44,0,0,0-3.51-.72,9.19,9.19,0,0,0-4,.78,18.69,18.69,0,0,0-3.33,2.16,15.3,15.3,0,0,1-2,1.41,3.58,3.58,0,0,1-1.77.45,3.11,3.11,0,0,1-2.25-.78,2.56,2.56,0,0,1-.81-1.92v-.3a1.66,1.66,0,0,0,.06-.36,6.56,6.56,0,0,1,1.5-2.73,12,12,0,0,1,3.27-2.58,20.08,20.08,0,0,1,4.83-1.89,23.72,23.72,0,0,1,6-.72q5.88,0,9.21,1.77a5.74,5.74,0,0,1,3.33,5.37,8.22,8.22,0,0,1-.24,1.86Zm-7.44-6.3a4.46,4.46,0,0,1-1.71.87q-1,.27-2.25.51h-.12l-3.24.48a12.16,12.16,0,0,0-4.56,1.41,4.35,4.35,0,0,0-2,2.91v.3a1.61,1.61,0,0,0-.06.36,2.54,2.54,0,0,0,1.11,2.1,5,5,0,0,0,3.09.84,9.64,9.64,0,0,0,6-1.92,7.57,7.57,0,0,0,3.09-4.44Z" transform="translate(-16.33 -76.61)"/>
        <path class="cls-8" d="M153.41,253.54a4.8,4.8,0,0,1,4.8-4.08,3.45,3.45,0,0,1,2.34.78,2.78,2.78,0,0,1,.9,2.22,5,5,0,0,1-.12,1.08l-.72,3.36h.12a18,18,0,0,1,3.72-5.37,7.12,7.12,0,0,1,5.1-2.07,4.26,4.26,0,0,1,2.88.93,3.05,3.05,0,0,1,1.08,2.43,6.43,6.43,0,0,1-.06.9,5.21,5.21,0,0,1-2,3.33,5.59,5.59,0,0,1-3.33,1h-1.56a5.63,5.63,0,0,0-4.56,2.22q-1.8,2.22-2.94,7.5L156.95,278a6,6,0,0,1-1.68,3.18,5.11,5.11,0,0,1-3.66,1.2,3.89,3.89,0,0,1-2.76-.81,2.9,2.9,0,0,1-.84-2.19,6.23,6.23,0,0,1,.18-1.38Z" transform="translate(-16.33 -76.61)"/>
        <path class="cls-8" d="M175.1,259.39a21,21,0,0,1,4.23-5.22,18.11,18.11,0,0,1,5.85-3.48,20.55,20.55,0,0,1,7.17-1.23q6.42,0,9.81,3.33a11.85,11.85,0,0,1,3.39,8.85,20.16,20.16,0,0,1-.48,4.26,27.89,27.89,0,0,1-2.28,6.39,19,19,0,0,1-3.9,5.25,17.08,17.08,0,0,1-5.82,3.57,21.82,21.82,0,0,1-7.74,1.29,19,19,0,0,1-6.09-.87,10.29,10.29,0,0,1-4.11-2.46,9.68,9.68,0,0,1-2.28-3.69,14.36,14.36,0,0,1-.72-4.68,23.54,23.54,0,0,1,.54-4.8A21.56,21.56,0,0,1,175.1,259.39Zm5.91,9.93a7.57,7.57,0,0,0,1.41,4.8,5.11,5.11,0,0,0,4.29,1.8,7.91,7.91,0,0,0,6.21-2.85,15.46,15.46,0,0,0,3.39-7.17,19.32,19.32,0,0,0,.36-3.54,7.2,7.2,0,0,0-1.41-4.71,5.24,5.24,0,0,0-4.29-1.71,7.9,7.9,0,0,0-6.12,2.73,15.34,15.34,0,0,0-3.42,7.23A15.61,15.61,0,0,0,181,269.32Z" transform="translate(-16.33 -76.61)"/>
        <path class="cls-8" d="M237.83,278a6,6,0,0,1-1.65,3.21,4.55,4.55,0,0,1-3.27,1.17q-3.18,0-3.18-2.94a6.44,6.44,0,0,1,.18-1.44l.24-1.14H230A20.68,20.68,0,0,1,224.6,281a14,14,0,0,1-6.39,1.44,13.25,13.25,0,0,1-3.39-.42,8.31,8.31,0,0,1-2.85-1.35,6.5,6.5,0,0,1-2-2.52,8.86,8.86,0,0,1-.75-3.81,15.61,15.61,0,0,1,.42-3.42l3.6-17a6.44,6.44,0,0,1,1.71-3.18,5,5,0,0,1,3.63-1.2,3.89,3.89,0,0,1,2.76.81,2.9,2.9,0,0,1,.84,2.19,6.21,6.21,0,0,1-.18,1.38l-3.24,15.3a10.77,10.77,0,0,0-.18,1.86,4.17,4.17,0,0,0,1.11,3.09A4.52,4.52,0,0,0,223,275.2a8.13,8.13,0,0,0,5-1.89,8.27,8.27,0,0,0,3.12-5l3.06-14.46a6.44,6.44,0,0,1,1.71-3.18,5,5,0,0,1,3.63-1.2,3.89,3.89,0,0,1,2.76.81,2.9,2.9,0,0,1,.84,2.19,6.22,6.22,0,0,1-.18,1.38Z" transform="translate(-16.33 -76.61)"/>
        <path class="cls-8" d="M249.89,253.84a6.41,6.41,0,0,1,1.68-3.21,4.44,4.44,0,0,1,3.24-1.17q3.18,0,3.18,2.94a6.42,6.42,0,0,1-.18,1.44l-.24,1.14h.12a20.48,20.48,0,0,1,5.46-4.08,14,14,0,0,1,6.36-1.44,13.26,13.26,0,0,1,3.39.42,8.07,8.07,0,0,1,2.85,1.38,6.82,6.82,0,0,1,2,2.52,8.67,8.67,0,0,1,.75,3.78,15.65,15.65,0,0,1-.42,3.42l-3.6,17a6,6,0,0,1-1.68,3.18,5.11,5.11,0,0,1-3.66,1.2,3.89,3.89,0,0,1-2.76-.81,2.9,2.9,0,0,1-.84-2.19,6.23,6.23,0,0,1,.18-1.38l3.24-15.3a8.19,8.19,0,0,0,.24-1.86,4.18,4.18,0,0,0-1.11-3.09,4.61,4.61,0,0,0-3.39-1.11,8.11,8.11,0,0,0-5,1.92,8.32,8.32,0,0,0-3.15,5L253.55,278a6,6,0,0,1-1.68,3.18,5.11,5.11,0,0,1-3.66,1.2,3.89,3.89,0,0,1-2.76-.81,2.9,2.9,0,0,1-.84-2.19,6.26,6.26,0,0,1,.18-1.38Z" transform="translate(-16.33 -76.61)"/>
        <path class="cls-8" d="M311.09,278.26q-.9,4.14-4.86,4.14-3.24,0-3.24-2.82a5.48,5.48,0,0,1,.18-1.32l.3-1.38h-.12A10.7,10.7,0,0,1,299,281a13.13,13.13,0,0,1-6.06,1.41,10.56,10.56,0,0,1-7.77-2.94q-3-2.94-3-8.58a25.13,25.13,0,0,1,2.7-11.31,21.12,21.12,0,0,1,3.6-5.19,16.26,16.26,0,0,1,5-3.6,14.6,14.6,0,0,1,6.21-1.32q5.88,0,7.68,4.44h.12L310,242a5.61,5.61,0,0,1,1.89-3.24,5.31,5.31,0,0,1,3.45-1.14q3.6,0,3.6,3.12a4.78,4.78,0,0,1-.18,1.26Zm-20-9.06a7.34,7.34,0,0,0,1.32,4.56,4.87,4.87,0,0,0,4,1.8,7.33,7.33,0,0,0,5.85-2.73,15,15,0,0,0,3.15-6.81,14.58,14.58,0,0,0,.42-3.42,7.6,7.6,0,0,0-1.26-4.56,4.7,4.7,0,0,0-4.08-1.74,7.12,7.12,0,0,0-3.57.9,8.58,8.58,0,0,0-2.67,2.34,14.09,14.09,0,0,0-1.77,3.12,19.67,19.67,0,0,0-1,3.36A15.19,15.19,0,0,0,291,269.2Z" transform="translate(-16.33 -76.61)"/>
      </g>
    </g>
    <g id="andineedyou">
      <rect class="cls-5" x="379.11" y="621.95" width="236.29" height="188.1" rx="20" ry="20"/>
      <path class="cls-6" d="M438.71,705c-22.87-1-37,11-37,38.5l12.5,3s-2-28.5,19.5-29C435.21,718,438.71,705,438.71,705Z" transform="translate(-16.33 -76.61)"/>
      <path class="cls-7" d="M626.57,852.2l-11.5,2c-.21,15.08-7,18-22.5,18.5l-7,8.5C610.18,882.2,625.87,873.5,626.57,852.2Z" transform="translate(-16.33 -76.61)"/>
      <g>
        <path class="cls-8" d="M451.75,756.33l-.86,2.86a3.59,3.59,0,0,1-1.89,2.32,6.71,6.71,0,0,1-3.13.76,6,6,0,0,1-3.94-1.46,4.5,4.5,0,0,1-1.73-3.56,10.25,10.25,0,0,1,.46-2.78q.46-1.59,1.43-4.29l.05-.16,8.26-23a9.23,9.23,0,0,1,2.29-3.78,5.24,5.24,0,0,1,3.65-1.24h3.89a5.24,5.24,0,0,1,3.65,1.24,9.24,9.24,0,0,1,2.29,3.78l8.26,23,.05.16q.92,2.59,1.4,4.24a10.27,10.27,0,0,1,.49,2.83,4.5,4.5,0,0,1-1.73,3.56,6,6,0,0,1-3.94,1.46,6.71,6.71,0,0,1-3.13-.76,3.59,3.59,0,0,1-1.89-2.32l-.86-2.86Zm6.59-22h-.11L454,748.56h8.53Z" transform="translate(-16.33 -76.61)"/>
        <path class="cls-8" d="M498.83,746.13q0-4.75-4.1-4.75a3.53,3.53,0,0,0-3.05,1.46,6.81,6.81,0,0,0-1.05,4v9.88a5.33,5.33,0,0,1-1.51,4.1,6.54,6.54,0,0,1-8.1,0,5.32,5.32,0,0,1-1.51-4.1V737.92q0-5.29,5.35-5.29a4.51,4.51,0,0,1,3.54,1.3,6.86,6.86,0,0,1,1.43,3.94h.11q2.86-5.24,9.18-5.24,5.51,0,8.18,3a11.44,11.44,0,0,1,2.67,7.91v13.23a5.33,5.33,0,0,1-1.51,4.1,6.54,6.54,0,0,1-8.1,0,5.32,5.32,0,0,1-1.51-4.1Z" transform="translate(-16.33 -76.61)"/>
        <path class="cls-8" d="M535.12,727.55a5.69,5.69,0,0,1,1.38-4.18,6.57,6.57,0,0,1,8,0,5.69,5.69,0,0,1,1.38,4.18v29.32q0,5.4-5,5.4a4.55,4.55,0,0,1-3.59-1.43,5.29,5.29,0,0,1-1.27-3.65H536A5.8,5.8,0,0,1,532.8,761a12.19,12.19,0,0,1-14.53-2.73q-3.4-4-3.4-10.88a19.12,19.12,0,0,1,.65-4.78,16.3,16.3,0,0,1,2.13-4.81,11.76,11.76,0,0,1,3.86-3.73,10.79,10.79,0,0,1,5.67-1.43,9,9,0,0,1,4.59,1.13,9.45,9.45,0,0,1,3.24,3.19h.11Zm-1,15.44a3.65,3.65,0,0,0-3.08-1.62,4.25,4.25,0,0,0-3.83,1.81,8.15,8.15,0,0,0-1.19,4.56,11,11,0,0,0,.24,2.35,7.21,7.21,0,0,0,.78,2.05,3.91,3.91,0,0,0,1.48,1.49,4.55,4.55,0,0,0,2.29.54,3.69,3.69,0,0,0,3.4-1.78,9.48,9.48,0,0,0,1.08-4.91A7.45,7.45,0,0,0,534.09,743Z" transform="translate(-16.33 -76.61)"/>
        <path class="cls-8" d="M571,728.68a6.89,6.89,0,0,1,1.67-4.91,6.67,6.67,0,0,1,9.07,0,6.9,6.9,0,0,1,1.67,4.91v26.89a6.9,6.9,0,0,1-1.67,4.91,6.67,6.67,0,0,1-9.07,0,6.89,6.89,0,0,1-1.67-4.91Z" transform="translate(-16.33 -76.61)"/>
        <path class="cls-8" d="M463.9,796.13q0-4.75-4.1-4.75a3.53,3.53,0,0,0-3.05,1.46,6.81,6.81,0,0,0-1.05,4v9.88a5.33,5.33,0,0,1-1.51,4.1,6.54,6.54,0,0,1-8.1,0,5.32,5.32,0,0,1-1.51-4.1V787.92q0-5.29,5.35-5.29a4.51,4.51,0,0,1,3.54,1.3,6.86,6.86,0,0,1,1.43,3.94H455q2.86-5.24,9.18-5.24,5.51,0,8.18,3a11.44,11.44,0,0,1,2.67,7.91v13.23a5.33,5.33,0,0,1-1.51,4.1,6.54,6.54,0,0,1-8.1,0,5.32,5.32,0,0,1-1.51-4.1Z" transform="translate(-16.33 -76.61)"/>
        <path class="cls-8" d="M509.5,808.36a6.84,6.84,0,0,1-2.51,2,16.51,16.51,0,0,1-4.54,1.4,37.84,37.84,0,0,1-6.7.51,21,21,0,0,1-6.26-.89,14.15,14.15,0,0,1-5-2.73,12.24,12.24,0,0,1-3.35-4.64,18.71,18.71,0,0,1,0-13.12,12.25,12.25,0,0,1,3.35-4.64,14.16,14.16,0,0,1,5-2.73,21,21,0,0,1,6.26-.89,19.8,19.8,0,0,1,7.53,1.3,14.1,14.1,0,0,1,5,3.32,13.59,13.59,0,0,1,2.75,4.19,10.73,10.73,0,0,1,.86,3.94,4.38,4.38,0,0,1-1.22,3.51,6,6,0,0,1-3.92,1H491.06a6.72,6.72,0,0,0,1.75,4.29,5.55,5.55,0,0,0,4.19,1.59,6.93,6.93,0,0,0,2.56-.46,22.9,22.9,0,0,0,2.78-1.38,20.16,20.16,0,0,1,2.4-1.22,5.49,5.49,0,0,1,2.08-.4,3.18,3.18,0,0,1,2.43,1.13,3.69,3.69,0,0,1,1,2.54A4,4,0,0,1,509.5,808.36Zm-8-14a5.06,5.06,0,0,0-1.46-4,5.94,5.94,0,0,0-7.34,0,5.25,5.25,0,0,0-1.62,4Z" transform="translate(-16.33 -76.61)"/>
        <path class="cls-8" d="M545.46,808.36a6.84,6.84,0,0,1-2.51,2,16.51,16.51,0,0,1-4.54,1.4,37.84,37.84,0,0,1-6.7.51,21,21,0,0,1-6.26-.89,14.15,14.15,0,0,1-5-2.73,12.24,12.24,0,0,1-3.35-4.64,18.71,18.71,0,0,1,0-13.12,12.25,12.25,0,0,1,3.35-4.64,14.16,14.16,0,0,1,5-2.73,21,21,0,0,1,6.26-.89,19.8,19.8,0,0,1,7.53,1.3,14.1,14.1,0,0,1,5,3.32,13.59,13.59,0,0,1,2.75,4.19,10.73,10.73,0,0,1,.86,3.94,4.38,4.38,0,0,1-1.22,3.51,6,6,0,0,1-3.92,1H527a6.72,6.72,0,0,0,1.75,4.29,5.55,5.55,0,0,0,4.19,1.59,6.93,6.93,0,0,0,2.56-.46,22.9,22.9,0,0,0,2.78-1.38,20.16,20.16,0,0,1,2.4-1.22,5.49,5.49,0,0,1,2.08-.4,3.18,3.18,0,0,1,2.43,1.13,3.69,3.69,0,0,1,1,2.54A4,4,0,0,1,545.46,808.36Zm-8-14a5.06,5.06,0,0,0-1.46-4,5.94,5.94,0,0,0-7.34,0,5.25,5.25,0,0,0-1.62,4Z" transform="translate(-16.33 -76.61)"/>
        <path class="cls-8" d="M572.11,777.55a5.69,5.69,0,0,1,1.38-4.18,6.57,6.57,0,0,1,8,0,5.69,5.69,0,0,1,1.38,4.18v29.32q0,5.4-5,5.4a4.55,4.55,0,0,1-3.59-1.43,5.29,5.29,0,0,1-1.27-3.65H573a5.8,5.8,0,0,1-3.19,3.78,12.19,12.19,0,0,1-14.53-2.73q-3.4-4-3.4-10.88a19.12,19.12,0,0,1,.65-4.78,16.3,16.3,0,0,1,2.13-4.81,11.76,11.76,0,0,1,3.86-3.73,10.79,10.79,0,0,1,5.67-1.43,9,9,0,0,1,4.59,1.13,9.45,9.45,0,0,1,3.24,3.19h.11Zm-1,15.44a3.65,3.65,0,0,0-3.08-1.62,4.25,4.25,0,0,0-3.83,1.81,8.15,8.15,0,0,0-1.19,4.56,11,11,0,0,0,.24,2.35,7.21,7.21,0,0,0,.78,2.05,3.91,3.91,0,0,0,1.48,1.49,4.55,4.55,0,0,0,2.29.54,3.69,3.69,0,0,0,3.4-1.78,9.48,9.48,0,0,0,1.08-4.91A7.45,7.45,0,0,0,571.08,793Z" transform="translate(-16.33 -76.61)"/>
        <path class="cls-8" d="M481.28,838.94a12.31,12.31,0,0,1,2-4.89,4.11,4.11,0,0,1,3.35-1.43,5.71,5.71,0,0,1,3.7,1.24,4.26,4.26,0,0,1,1.54,3.51,9.91,9.91,0,0,1-.51,2.35q-.51,1.7-1.59,4.83l-6.48,19a15.27,15.27,0,0,1-2.16,4.27,10.23,10.23,0,0,1-2.86,2.67A11.43,11.43,0,0,1,475,871.8a15.73,15.73,0,0,1-3.65.41,8.31,8.31,0,0,1-4.91-1.22,4,4,0,0,1-1.67-3.43,3,3,0,0,1,1.11-2.67,5.42,5.42,0,0,1,3.16-.78,5,5,0,0,0,2.24-.35,1.1,1.1,0,0,0,.62-1,7.07,7.07,0,0,0-.54-2.16l-5.94-16.9q-.92-2.64-1.32-4.13a9.36,9.36,0,0,1-.41-2.19,4.3,4.3,0,0,1,1.57-3.4,5.75,5.75,0,0,1,3.89-1.35q3.73,0,4.75,4.16l4,15.66H478Z" transform="translate(-16.33 -76.61)"/>
        <path class="cls-8" d="M496.13,840.89a12.25,12.25,0,0,1,3.35-4.64,14.16,14.16,0,0,1,5-2.73,22.47,22.47,0,0,1,12.53,0,14.18,14.18,0,0,1,5,2.73,12.26,12.26,0,0,1,3.35,4.64,18.71,18.71,0,0,1,0,13.12,12.25,12.25,0,0,1-3.35,4.64,14.16,14.16,0,0,1-5,2.73,22.47,22.47,0,0,1-12.53,0,14.15,14.15,0,0,1-5-2.73,12.24,12.24,0,0,1-3.35-4.64,18.71,18.71,0,0,1,0-13.12ZM514.25,842a4.15,4.15,0,0,0-7,0,10.88,10.88,0,0,0-1.21,5.78q0,7.08,4.7,7.07t4.7-7.07A10.88,10.88,0,0,0,514.25,842Z" transform="translate(-16.33 -76.61)"/>
        <path class="cls-8" d="M550.83,838.13a5.33,5.33,0,0,1,1.51-4.1,6.55,6.55,0,0,1,8.1,0,5.33,5.33,0,0,1,1.51,4.1V857q0,5.29-5.35,5.29a4.42,4.42,0,0,1-3.51-1.3,7.25,7.25,0,0,1-1.46-3.94h-.11q-2.86,5.24-9.18,5.24-5.51,0-8.18-3a11.44,11.44,0,0,1-2.67-7.91V838.13A5.33,5.33,0,0,1,533,834a6.55,6.55,0,0,1,8.1,0,5.33,5.33,0,0,1,1.51,4.1v10.64q0,4.75,4.1,4.75a3.51,3.51,0,0,0,3.05-1.48,6.84,6.84,0,0,0,1.05-4Z" transform="translate(-16.33 -76.61)"/>
      </g>
    </g>
    <g id="nowtonight">
      <rect class="cls-5" x="686.32" y="621.95" width="224.03" height="111.51" rx="20" ry="20"/>
      <path class="cls-6" d="M725.34,707c-10.48-.44-16.94,5-17,17.64l5.73,1.37s-.92-13.06,8.93-13.29C723.74,712.91,725.34,707,725.34,707Z" transform="translate(-16.33 -76.61)"/>
      <path class="cls-7" d="M921.56,778.33l-6.88,1.73c-.12,13-4.19,15.54-13.46,16L897,803.36C911.75,804.23,921.14,796.72,921.56,778.33Z" transform="translate(-16.33 -76.61)"/>
      <g>
        <path class="cls-8" d="M742,730.29q0-4.22-3.65-4.22a3.14,3.14,0,0,0-2.71,1.3,6.06,6.06,0,0,0-.94,3.6v8.78a4.74,4.74,0,0,1-1.34,3.65,5.82,5.82,0,0,1-7.2,0,4.73,4.73,0,0,1-1.34-3.65V723q0-4.7,4.75-4.7a4,4,0,0,1,3.14,1.15,6.1,6.1,0,0,1,1.27,3.5h.1a8.62,8.62,0,0,1,8.16-4.66q4.9,0,7.27,2.66a10.17,10.17,0,0,1,2.38,7v11.76a4.74,4.74,0,0,1-1.34,3.65,5.82,5.82,0,0,1-7.2,0,4.73,4.73,0,0,1-1.34-3.65Z" transform="translate(-16.33 -76.61)"/>
        <path class="cls-8" d="M757.29,725.64a10.89,10.89,0,0,1,3-4.13,12.59,12.59,0,0,1,4.46-2.42,20,20,0,0,1,11.14,0,12.61,12.61,0,0,1,4.46,2.42,10.91,10.91,0,0,1,3,4.13,16.63,16.63,0,0,1,0,11.66,10.89,10.89,0,0,1-3,4.13,12.59,12.59,0,0,1-4.46,2.42,20,20,0,0,1-11.14,0,12.58,12.58,0,0,1-4.46-2.42,10.87,10.87,0,0,1-3-4.13,16.63,16.63,0,0,1,0-11.66Zm16.1,1a3.69,3.69,0,0,0-6.19,0,9.66,9.66,0,0,0-1.08,5.14q0,6.29,4.18,6.29t4.18-6.29A9.67,9.67,0,0,0,773.39,726.6Z" transform="translate(-16.33 -76.61)"/>
        <path class="cls-8" d="M802.26,723.09a13.16,13.16,0,0,1,.65-2.42,4,4,0,0,1,.91-1.42,3.1,3.1,0,0,1,1.44-.74,12.67,12.67,0,0,1,4.66,0,3.1,3.1,0,0,1,1.44.74,3.81,3.81,0,0,1,.89,1.39,16.73,16.73,0,0,1,.67,2.45l2.88,12.48h.1L819,721.46a4.06,4.06,0,0,1,1.32-2.35,4.54,4.54,0,0,1,3-.82,4.7,4.7,0,0,1,3.36,1.18,3.83,3.83,0,0,1,1.25,2.9,8.64,8.64,0,0,1-.22,1.85,26.49,26.49,0,0,1-.74,2.57L822.57,740a12.74,12.74,0,0,1-1,2.42,4.68,4.68,0,0,1-1.1,1.37,3.34,3.34,0,0,1-1.46.65,12,12,0,0,1-2.21.17,9.71,9.71,0,0,1-4.63-.84q-1.46-.84-2.18-3.91l-2.35-10.56h-.1l-2.35,10.56q-.72,3.07-2.18,3.91a9.71,9.71,0,0,1-4.63.84,12,12,0,0,1-2.21-.17,3.34,3.34,0,0,1-1.46-.65,4.66,4.66,0,0,1-1.1-1.37,12.68,12.68,0,0,1-1-2.42l-4.32-13.25a26.35,26.35,0,0,1-.74-2.57,8.64,8.64,0,0,1-.22-1.85,3.83,3.83,0,0,1,1.25-2.9,4.7,4.7,0,0,1,3.36-1.18,4.55,4.55,0,0,1,3,.82,4.07,4.07,0,0,1,1.32,2.35l3.36,14.11h.1Z" transform="translate(-16.33 -76.61)"/>
        <path class="cls-8" d="M727.24,760.75a5.06,5.06,0,0,1,1.22-3.72,5.84,5.84,0,0,1,7.15,0,5.06,5.06,0,0,1,1.22,3.72v3.17h2.88q3.07,0,3.07,2.88t-3.07,2.88h-2.88v11.62q0,1.15,1.1,1.15a6.45,6.45,0,0,1,3.79.82,3.5,3.5,0,0,1-.43,5.38q-1.49,1-5.42,1-4.22,0-6.43-2.11t-2.21-6.29V769.68h-1.82q-3.07,0-3.07-2.88t3.07-2.88h1.82Z" transform="translate(-16.33 -76.61)"/>
        <path class="cls-8" d="M745.77,770.64a10.89,10.89,0,0,1,3-4.13,12.59,12.59,0,0,1,4.46-2.42,20,20,0,0,1,11.14,0,12.61,12.61,0,0,1,4.46,2.42,10.91,10.91,0,0,1,3,4.13,16.63,16.63,0,0,1,0,11.66,10.89,10.89,0,0,1-3,4.13,12.59,12.59,0,0,1-4.46,2.42,20,20,0,0,1-11.14,0,12.58,12.58,0,0,1-4.46-2.42,10.87,10.87,0,0,1-3-4.13,16.63,16.63,0,0,1,0-11.66Zm16.1,1a3.69,3.69,0,0,0-6.19,0,9.66,9.66,0,0,0-1.08,5.14q0,6.29,4.18,6.29t4.18-6.29A9.67,9.67,0,0,0,761.87,771.6Z" transform="translate(-16.33 -76.61)"/>
        <path class="cls-8" d="M794.39,775.29q0-4.22-3.65-4.22a3.14,3.14,0,0,0-2.71,1.3,6.06,6.06,0,0,0-.94,3.6v8.78a4.74,4.74,0,0,1-1.34,3.65,5.82,5.82,0,0,1-7.2,0,4.73,4.73,0,0,1-1.34-3.65V768q0-4.7,4.75-4.7a4,4,0,0,1,3.14,1.15,6.1,6.1,0,0,1,1.27,3.5h.1a8.62,8.62,0,0,1,8.16-4.66q4.9,0,7.27,2.66a10.17,10.17,0,0,1,2.38,7v11.76a4.74,4.74,0,0,1-1.34,3.65,5.82,5.82,0,0,1-7.2,0,4.73,4.73,0,0,1-1.34-3.65Z" transform="translate(-16.33 -76.61)"/>
        <path class="cls-8" d="M809.32,768.19a4.74,4.74,0,0,1,1.34-3.65,5.82,5.82,0,0,1,7.2,0,4.74,4.74,0,0,1,1.34,3.65v16.56a4.74,4.74,0,0,1-1.34,3.65,5.82,5.82,0,0,1-7.2,0,4.73,4.73,0,0,1-1.34-3.65Zm1.63-14.69a4.75,4.75,0,1,1-1.34,3.31A4.5,4.5,0,0,1,810.95,753.5Z" transform="translate(-16.33 -76.61)"/>
        <path class="cls-8" d="M841.72,783.93h-.1a4.89,4.89,0,0,1-2.59,2.59,10.2,10.2,0,0,1-4.32.86,11.26,11.26,0,0,1-3.7-.65,10.19,10.19,0,0,1-3.48-2.09,10.37,10.37,0,0,1-2.59-3.77,14,14,0,0,1-1-5.5,14.42,14.42,0,0,1,.74-4.68,11.87,11.87,0,0,1,2.16-3.86,9.8,9.8,0,0,1,3.46-2.62,10.87,10.87,0,0,1,4.58-.94,10.36,10.36,0,0,1,4.73,1.15,5.15,5.15,0,0,1,2.86,3.36h.1a4.7,4.7,0,0,1,1.13-3.24,4,4,0,0,1,3.19-1.27q4.42,0,4.42,4.8V788.3a11,11,0,0,1-1,4.92,8.56,8.56,0,0,1-2.86,3.31,12.55,12.55,0,0,1-4.42,1.85,26.48,26.48,0,0,1-5.78.58,24.07,24.07,0,0,1-5.66-.58,11.5,11.5,0,0,1-3.7-1.49A6.32,6.32,0,0,1,826,795a3.57,3.57,0,0,1-.58-1.82,3.66,3.66,0,0,1,1-2.59,3.4,3.4,0,0,1,2.62-1.06,3,3,0,0,1,1.32.31,14.36,14.36,0,0,1,1.66,1,15.54,15.54,0,0,0,2.23,1.32,5.25,5.25,0,0,0,2.23.46q2.93,0,4.1-1.3a6,6,0,0,0,1.18-4.08Zm-.6-12.24a3.5,3.5,0,0,0-3.14-1.49,3.61,3.61,0,0,0-3.14,1.37,8.27,8.27,0,0,0,0,7.82,3.61,3.61,0,0,0,3.14,1.37,3.49,3.49,0,0,0,3.14-1.49,7.8,7.8,0,0,0,0-7.58Z" transform="translate(-16.33 -76.61)"/>
        <path class="cls-8" d="M873.4,775.29q0-4.22-3.65-4.22a3.14,3.14,0,0,0-2.71,1.3,6.06,6.06,0,0,0-.94,3.6v8.78a4.74,4.74,0,0,1-1.34,3.65,5.82,5.82,0,0,1-7.2,0,4.73,4.73,0,0,1-1.34-3.65v-26a4.74,4.74,0,0,1,1.34-3.65,5.82,5.82,0,0,1,7.2,0,4.74,4.74,0,0,1,1.34,3.65v8.45h.1a8.55,8.55,0,0,1,7.44-3.89q4.9,0,7.27,2.66a10.17,10.17,0,0,1,2.38,7v11.76a4.74,4.74,0,0,1-1.34,3.65,5.82,5.82,0,0,1-7.2,0,4.73,4.73,0,0,1-1.34-3.65Z" transform="translate(-16.33 -76.61)"/>
        <path class="cls-8" d="M890.63,760.75a5.06,5.06,0,0,1,1.22-3.72,5.84,5.84,0,0,1,7.15,0,5.06,5.06,0,0,1,1.22,3.72v3.17h2.88q3.07,0,3.07,2.88t-3.07,2.88h-2.88v11.62q0,1.15,1.1,1.15a6.45,6.45,0,0,1,3.79.82,3.5,3.5,0,0,1-.43,5.38q-1.49,1-5.42,1-4.22,0-6.43-2.11t-2.21-6.29V769.68H888.8q-3.07,0-3.07-2.88t3.07-2.88h1.82Z" transform="translate(-16.33 -76.61)"/>
      </g>
    </g>
    <g id="morethanever">
      <rect class="cls-5" x="698.68" y="810.72" width="204.39" height="165.05" rx="20" ry="20"/>
      <path class="cls-6" d="M747.24,892.39c-16.5-.69-26.68,7.95-26.7,27.78l9,2.16s-1.44-20.56,14.07-20.92C744.71,901.77,747.24,892.39,747.24,892.39Z" transform="translate(-16.33 -76.61)"/>
      <path class="cls-7" d="M914.67,1018.29l-8,2c-.14,15.09-4.86,18-15.61,18.51l-4.86,8.5C903.3,1048.31,914.19,1039.61,914.67,1018.29Z" transform="translate(-16.33 -76.61)"/>
      <g>
        <path class="cls-8" d="M786.41,923.13a5.19,5.19,0,0,0-.79-3.26,3,3,0,0,0-2.47-1,2.93,2.93,0,0,0-2.3,1.25,5,5,0,0,0-1,3.26v9.17a4.73,4.73,0,0,1-1.34,3.65,5.82,5.82,0,0,1-7.2,0,4.73,4.73,0,0,1-1.34-3.65v-9.46a5.19,5.19,0,0,0-.79-3.26,3,3,0,0,0-2.47-1,2.93,2.93,0,0,0-2.3,1.25,5,5,0,0,0-1,3.26v9.17a4.73,4.73,0,0,1-1.34,3.65,5.82,5.82,0,0,1-7.2,0,4.73,4.73,0,0,1-1.34-3.65V915.84q0-4.7,4.75-4.7a4,4,0,0,1,3.14,1.15,6.09,6.09,0,0,1,1.27,3.5h.1a8.62,8.62,0,0,1,8.16-4.66,9.18,9.18,0,0,1,4.73,1.22,5.7,5.7,0,0,1,2.71,3.62,9,9,0,0,1,8.35-4.85q4.85,0,7.22,2.66a10.17,10.17,0,0,1,2.38,7v11.76a4.73,4.73,0,0,1-1.34,3.65,5.82,5.82,0,0,1-7.2,0,4.73,4.73,0,0,1-1.34-3.65Z" transform="translate(-16.33 -76.61)"/>
        <path class="cls-8" d="M801.87,918.48a10.88,10.88,0,0,1,3-4.13,12.56,12.56,0,0,1,4.46-2.42,20,20,0,0,1,11.14,0,12.58,12.58,0,0,1,4.46,2.42,10.9,10.9,0,0,1,3,4.13,16.64,16.64,0,0,1,0,11.66,10.89,10.89,0,0,1-3,4.13,12.58,12.58,0,0,1-4.46,2.42,20,20,0,0,1-11.14,0,12.56,12.56,0,0,1-4.46-2.42,10.87,10.87,0,0,1-3-4.13,16.63,16.63,0,0,1,0-11.66Zm16.1,1a3.69,3.69,0,0,0-6.19,0,9.66,9.66,0,0,0-1.08,5.14q0,6.29,4.18,6.29t4.18-6.29A9.67,9.67,0,0,0,818,919.44Z" transform="translate(-16.33 -76.61)"/>
        <path class="cls-8" d="M833.31,916a4.88,4.88,0,0,1,1.27-3.65,4.37,4.37,0,0,1,3.19-1.25,4.3,4.3,0,0,1,3.22,1.22,5.35,5.35,0,0,1,1.2,3.86v1.92h.1a16.6,16.6,0,0,1,2.83-5.28,4.68,4.68,0,0,1,3.6-1.73,3.52,3.52,0,0,1,3.07,1.34,5.39,5.39,0,0,1,1,3.22q0,3.74-2.69,4.42l-2.69.67a6.41,6.41,0,0,0-3.17,1.58,4.74,4.74,0,0,0-1,3.36v6.86a4.73,4.73,0,0,1-1.34,3.65,5.82,5.82,0,0,1-7.2,0,4.73,4.73,0,0,1-1.34-3.65Z" transform="translate(-16.33 -76.61)"/>
        <path class="cls-8" d="M880.95,934a6.07,6.07,0,0,1-2.23,1.78,14.65,14.65,0,0,1-4,1.25,33.64,33.64,0,0,1-6,.46,18.64,18.64,0,0,1-5.57-.79,12.56,12.56,0,0,1-4.46-2.42,10.87,10.87,0,0,1-3-4.13,16.63,16.63,0,0,1,0-11.66,10.88,10.88,0,0,1,3-4.13,12.56,12.56,0,0,1,4.46-2.42,18.64,18.64,0,0,1,5.57-.79,17.61,17.61,0,0,1,6.7,1.15,12.55,12.55,0,0,1,4.49,3,12.08,12.08,0,0,1,2.45,3.72,9.54,9.54,0,0,1,.77,3.5,3.9,3.9,0,0,1-1.08,3.12,5.37,5.37,0,0,1-3.48.91h-14a6,6,0,0,0,1.56,3.82,4.93,4.93,0,0,0,3.72,1.42,6.14,6.14,0,0,0,2.28-.41,20.39,20.39,0,0,0,2.47-1.22,17.78,17.78,0,0,1,2.14-1.08,4.87,4.87,0,0,1,1.85-.36,2.82,2.82,0,0,1,2.16,1,3.29,3.29,0,0,1,.91,2.26A3.56,3.56,0,0,1,880.95,934Zm-7.13-12.41a4.5,4.5,0,0,0-1.3-3.58,5.29,5.29,0,0,0-6.53,0,4.67,4.67,0,0,0-1.44,3.58Z" transform="translate(-16.33 -76.61)"/>
        <path class="cls-8" d="M764.52,956.59a5.06,5.06,0,0,1,1.22-3.72,5.84,5.84,0,0,1,7.15,0,5.06,5.06,0,0,1,1.22,3.72v3.17H777q3.07,0,3.07,2.88T777,965.52h-2.88v11.62q0,1.15,1.1,1.15a6.45,6.45,0,0,1,3.79.82,3.5,3.5,0,0,1-.43,5.38q-1.49,1-5.42,1-4.22,0-6.43-2.11t-2.21-6.29V965.52H762.7q-3.07,0-3.07-2.88t3.07-2.88h1.82Z" transform="translate(-16.33 -76.61)"/>
        <path class="cls-8" d="M799.71,971.13q0-4.22-3.65-4.22a3.14,3.14,0,0,0-2.71,1.3,6.05,6.05,0,0,0-.94,3.6v8.78a4.73,4.73,0,0,1-1.34,3.65,5.82,5.82,0,0,1-7.2,0,4.73,4.73,0,0,1-1.34-3.65v-26a4.73,4.73,0,0,1,1.34-3.65,5.82,5.82,0,0,1,7.2,0,4.74,4.74,0,0,1,1.34,3.65V963h.1a8.55,8.55,0,0,1,7.44-3.89q4.9,0,7.27,2.66a10.17,10.17,0,0,1,2.38,7v11.76a4.73,4.73,0,0,1-1.34,3.65,5.82,5.82,0,0,1-7.2,0,4.73,4.73,0,0,1-1.34-3.65Z" transform="translate(-16.33 -76.61)"/>
        <path class="cls-8" d="M841.56,977.52q0,.91.14,2.64a18,18,0,0,1,.14,1.82,2.94,2.94,0,0,1-1.34,2.62,5.79,5.79,0,0,1-3.26.89,5.13,5.13,0,0,1-3.55-1.06,4.82,4.82,0,0,1-1.44-2.93,7.81,7.81,0,0,1-3.72,3,13.52,13.52,0,0,1-5.11,1,11.12,11.12,0,0,1-6.84-1.9q-2.52-1.9-2.52-5.88a6.82,6.82,0,0,1,.62-3,6.29,6.29,0,0,1,2.09-2.38,11.86,11.86,0,0,1,3.94-1.7,33,33,0,0,1,6.07-.89,12.75,12.75,0,0,0,4-.72,1.78,1.78,0,0,0,1.15-1.73q0-2.45-4-2.45a6.23,6.23,0,0,0-2.52.46,13.94,13.94,0,0,0-2.38,1.42,14.73,14.73,0,0,1-1.9,1.15,4.19,4.19,0,0,1-1.85.38q-3.12,0-3.12-3.07,0-2.74,3.41-4.42a19.51,19.51,0,0,1,8.64-1.68,33.06,33.06,0,0,1,4.51.31,18,18,0,0,1,4.27,1.13,8.29,8.29,0,0,1,3.26,2.28,5.47,5.47,0,0,1,1.25,3.67Zm-9.6-3.94a3.17,3.17,0,0,1-1.51.89,22.43,22.43,0,0,1-2.42.5,14.39,14.39,0,0,0-2.45.53,2,2,0,0,0-1.34,2.06,2.14,2.14,0,0,0,.89,1.75,3.35,3.35,0,0,0,2.14.7,5.17,5.17,0,0,0,3.38-1.08,3.19,3.19,0,0,0,1.32-2.52Z" transform="translate(-16.33 -76.61)"/>
        <path class="cls-8" d="M863.64,971.13q0-4.22-3.65-4.22a3.14,3.14,0,0,0-2.71,1.3,6.05,6.05,0,0,0-.94,3.6v8.78a4.73,4.73,0,0,1-1.34,3.65,5.82,5.82,0,0,1-7.2,0,4.73,4.73,0,0,1-1.34-3.65V963.84q0-4.7,4.75-4.7a4,4,0,0,1,3.14,1.15,6.1,6.1,0,0,1,1.27,3.5h.1a8.62,8.62,0,0,1,8.16-4.66q4.9,0,7.27,2.66a10.17,10.17,0,0,1,2.38,7v11.76a4.73,4.73,0,0,1-1.34,3.65,5.82,5.82,0,0,1-7.2,0,4.73,4.73,0,0,1-1.34-3.65Z" transform="translate(-16.33 -76.61)"/>
        <path class="cls-8" d="M780.27,1030a6.07,6.07,0,0,1-2.23,1.78,14.65,14.65,0,0,1-4,1.25,33.64,33.64,0,0,1-6,.46,18.64,18.64,0,0,1-5.57-.79,12.56,12.56,0,0,1-4.46-2.42,10.87,10.87,0,0,1-3-4.13,16.63,16.63,0,0,1,0-11.66,10.88,10.88,0,0,1,3-4.13,12.56,12.56,0,0,1,4.46-2.42,18.64,18.64,0,0,1,5.57-.79,17.61,17.61,0,0,1,6.7,1.15,12.55,12.55,0,0,1,4.49,3,12.08,12.08,0,0,1,2.45,3.72,9.54,9.54,0,0,1,.77,3.5,3.9,3.9,0,0,1-1.08,3.12,5.37,5.37,0,0,1-3.48.91h-14a6,6,0,0,0,1.56,3.82,4.93,4.93,0,0,0,3.72,1.42,6.14,6.14,0,0,0,2.28-.41,20.39,20.39,0,0,0,2.47-1.22A17.78,17.78,0,0,1,776,1025a4.87,4.87,0,0,1,1.85-.36,2.82,2.82,0,0,1,2.16,1,3.29,3.29,0,0,1,.91,2.26A3.56,3.56,0,0,1,780.27,1030Zm-7.13-12.41a4.5,4.5,0,0,0-1.3-3.58,5.29,5.29,0,0,0-6.53,0,4.67,4.67,0,0,0-1.44,3.58Z" transform="translate(-16.33 -76.61)"/>
        <path class="cls-8" d="M800.74,1011.6a7.88,7.88,0,0,1,1.54-3.41,4.11,4.11,0,0,1,3.17-1.06,4.73,4.73,0,0,1,3.26,1.15,3.85,3.85,0,0,1,1.3,3,9.71,9.71,0,0,1-.22,2,18.23,18.23,0,0,1-.74,2.47l-5.14,14.3a4.51,4.51,0,0,1-2.16,2.83,12,12,0,0,1-4.37.58,11.42,11.42,0,0,1-4.22-.58,4.5,4.5,0,0,1-2.16-2.83l-5.14-14.3,0-.14q-.58-1.68-.82-2.57a6.66,6.66,0,0,1-.24-1.75,3.85,3.85,0,0,1,1.3-3,4.73,4.73,0,0,1,3.26-1.15,4.59,4.59,0,0,1,3.24.91,7.83,7.83,0,0,1,1.61,3.55l3.31,12.77h.1Z" transform="translate(-16.33 -76.61)"/>
        <path class="cls-8" d="M838.92,1030a6.07,6.07,0,0,1-2.23,1.78,14.65,14.65,0,0,1-4,1.25,33.64,33.64,0,0,1-6,.46,18.64,18.64,0,0,1-5.57-.79,12.56,12.56,0,0,1-4.46-2.42,10.87,10.87,0,0,1-3-4.13,16.63,16.63,0,0,1,0-11.66,10.88,10.88,0,0,1,3-4.13,12.56,12.56,0,0,1,4.46-2.42,18.64,18.64,0,0,1,5.57-.79,17.61,17.61,0,0,1,6.7,1.15,12.55,12.55,0,0,1,4.49,3,12.08,12.08,0,0,1,2.45,3.72,9.54,9.54,0,0,1,.77,3.5,3.9,3.9,0,0,1-1.08,3.12,5.37,5.37,0,0,1-3.48.91h-14a6,6,0,0,0,1.56,3.82,4.93,4.93,0,0,0,3.72,1.42,6.14,6.14,0,0,0,2.28-.41,20.39,20.39,0,0,0,2.47-1.22,17.78,17.78,0,0,1,2.14-1.08,4.87,4.87,0,0,1,1.85-.36,2.82,2.82,0,0,1,2.16,1,3.29,3.29,0,0,1,.91,2.26A3.56,3.56,0,0,1,838.92,1030Zm-7.13-12.41a4.5,4.5,0,0,0-1.3-3.58,5.29,5.29,0,0,0-6.53,0,4.67,4.67,0,0,0-1.44,3.58Z" transform="translate(-16.33 -76.61)"/>
        <path class="cls-8" d="M845.14,1012a4.88,4.88,0,0,1,1.27-3.65,4.37,4.37,0,0,1,3.19-1.25,4.3,4.3,0,0,1,3.22,1.22,5.35,5.35,0,0,1,1.2,3.86v1.92h.1a16.6,16.6,0,0,1,2.83-5.28,4.68,4.68,0,0,1,3.6-1.73,3.52,3.52,0,0,1,3.07,1.34,5.39,5.39,0,0,1,1,3.22q0,3.74-2.69,4.42l-2.69.67a6.41,6.41,0,0,0-3.17,1.58,4.74,4.74,0,0,0-1,3.36v6.86a4.73,4.73,0,0,1-1.34,3.65,5.82,5.82,0,0,1-7.2,0,4.73,4.73,0,0,1-1.34-3.65Z" transform="translate(-16.33 -76.61)"/>
        <path class="cls-8" d="M870.86,1024a5.33,5.33,0,1,1-1.58,3.79A5.17,5.17,0,0,1,870.86,1024Zm-.19-24.84a6.15,6.15,0,0,1,8,0,6.22,6.22,0,0,1,1.25,4.15,45.42,45.42,0,0,1-.55,6.34q-.55,3.79-1.61,8.5a3.4,3.4,0,0,1-1,1.92,4.17,4.17,0,0,1-4.22,0,3.39,3.39,0,0,1-1-1.92q-1-4.7-1.58-8.5a43.49,43.49,0,0,1-.58-6.34A6.22,6.22,0,0,1,870.67,999.14Z" transform="translate(-16.33 -76.61)"/>
      </g>
    </g>
    <g id="ireallyneedyou">
      <rect class="cls-5" x="1595.08" y="838.25" width="287.63" height="65.88" rx="20" ry="20"/>
      <path class="cls-6" d="M1634.1,923.25c-10.48-.44-16.94,5-17,17.64l5.73,1.37S1622,929.2,1631.8,929C1632.49,929.2,1634.1,923.25,1634.1,923.25Z" transform="translate(-16.33 -76.61)"/>
      <path class="cls-7" d="M1892.22,948.32l-6.88,1.73c-.12,13-4.19,15.54-13.46,16l-4.19,7.34C1882.41,974.21,1891.8,966.71,1892.22,948.32Z" transform="translate(-16.33 -76.61)"/>
      <g>
        <path class="cls-9" d="M1636.53,938.58a2.54,2.54,0,0,1,4.26-1.79,2.44,2.44,0,0,1,.66,1.79V956a2.44,2.44,0,0,1-.66,1.78,2.47,2.47,0,0,1-4.26-1.78Z" transform="translate(-16.33 -76.61)"/>
        <path class="cls-9" d="M1654.89,944.07a2,2,0,0,1,.55-1.5,2.15,2.15,0,0,1,2.85,0,2,2,0,0,1,.56,1.5v1.68h.06a7.25,7.25,0,0,1,1.31-2.67,2.84,2.84,0,0,1,2.33-1.05,2.5,2.5,0,0,1,1.72.6,2,2,0,0,1,.67,1.53,2.07,2.07,0,0,1-.61,1.67,2.3,2.3,0,0,1-1.54.53H1662a2.24,2.24,0,0,0-2.05,1.11,7.64,7.64,0,0,0-.67,3.75v5.1a2.42,2.42,0,0,1-.5,1.59,2.69,2.69,0,0,1-3.39,0,2.42,2.42,0,0,1-.5-1.59Z" transform="translate(-16.33 -76.61)"/>
        <path class="cls-9" d="M1670.22,951.09a3.77,3.77,0,0,0,4,4,4.55,4.55,0,0,0,2-.35,6.58,6.58,0,0,0,1.42-1,4.72,4.72,0,0,1,.81-.63,1.82,1.82,0,0,1,2.14.33,1.66,1.66,0,0,1,.53,1.17,2.43,2.43,0,0,1-.66,1.67,5.26,5.26,0,0,1-1.72,1.23,10.09,10.09,0,0,1-2.25.74,11.28,11.28,0,0,1-2.24.24,9.86,9.86,0,0,1-3.81-.68,7.17,7.17,0,0,1-2.64-1.81,7.34,7.34,0,0,1-1.5-2.55,9,9,0,0,1-.48-2.91,8.6,8.6,0,0,1,2.22-6.2,8,8,0,0,1,6.06-2.33,9,9,0,0,1,3.31.58,7.3,7.3,0,0,1,2.52,1.62,7,7,0,0,1,1.56,2.31,6.91,6.91,0,0,1,.53,2.65,2.08,2.08,0,0,1-.41,1.5,2.2,2.2,0,0,1-1.51.39Zm7.68-2.52a4,4,0,0,0-1.21-2.5,3.48,3.48,0,0,0-2.47-1,3.76,3.76,0,0,0-2.61.92,4.66,4.66,0,0,0-1.38,2.56Z" transform="translate(-16.33 -76.61)"/>
        <path class="cls-9" d="M1699.41,953.88a6.91,6.91,0,0,0,.09,1.23q.09.48.21,1a2.73,2.73,0,0,1,.15.75,1.49,1.49,0,0,1-.59,1.2,2.13,2.13,0,0,1-1.39.48,2.39,2.39,0,0,1-1.92-.71,3,3,0,0,1-.66-1.85,7.5,7.5,0,0,1-2.7,2,8.66,8.66,0,0,1-3.3.6,5.23,5.23,0,0,1-3.46-1.25,4,4,0,0,1-1.48-3.23,4.88,4.88,0,0,1,.46-2.23,3.83,3.83,0,0,1,1.29-1.47,6.8,6.8,0,0,1,1.92-.87,14.75,14.75,0,0,1,2.45-.47l2.67-.3a3.39,3.39,0,0,0,1.41-.43,1.31,1.31,0,0,0,.48-1.19,1.46,1.46,0,0,0-.78-1.35,3.92,3.92,0,0,0-2-.45,4.13,4.13,0,0,0-2,.39,6.82,6.82,0,0,0-1.44,1.08,5,5,0,0,1-.84.71,1.55,1.55,0,0,1-.84.23,1.87,1.87,0,0,1-1.33-.5,1.57,1.57,0,0,1-.52-1.19,2.48,2.48,0,0,1,.46-1.36,4.58,4.58,0,0,1,1.36-1.29,7.87,7.87,0,0,1,2.21-.95,11,11,0,0,1,2.92-.36,10.35,10.35,0,0,1,5.21,1.11,3.66,3.66,0,0,1,1.91,3.39Zm-4.38-3.15a2.08,2.08,0,0,1-.77.42,9.11,9.11,0,0,1-1.09.27h0l-1.59.24a5,5,0,0,0-2.13.71,1.68,1.68,0,0,0-.69,1.46,1.58,1.58,0,0,0,.66,1.28,2.77,2.77,0,0,0,1.77.52,4.07,4.07,0,0,0,2.81-.94,2.9,2.9,0,0,0,1.06-2.24Z" transform="translate(-16.33 -76.61)"/>
        <path class="cls-9" d="M1703.43,938.31a2.16,2.16,0,0,1,.58-1.62,2.54,2.54,0,0,1,3.21,0,2.16,2.16,0,0,1,.58,1.62v18a2.16,2.16,0,0,1-.58,1.62,2.54,2.54,0,0,1-3.21,0,2.16,2.16,0,0,1-.58-1.62Z" transform="translate(-16.33 -76.61)"/>
        <path class="cls-9" d="M1711.77,938.31a2.16,2.16,0,0,1,.58-1.62,2.54,2.54,0,0,1,3.21,0,2.16,2.16,0,0,1,.58,1.62v18a2.16,2.16,0,0,1-.58,1.62,2.54,2.54,0,0,1-3.21,0,2.16,2.16,0,0,1-.58-1.62Z" transform="translate(-16.33 -76.61)"/>
        <path class="cls-9" d="M1725.69,953.91h.06l2.67-9.93a3.16,3.16,0,0,1,.75-1.42,1.8,1.8,0,0,1,1.35-.53,2.31,2.31,0,0,1,1,.23,2.08,2.08,0,0,1,.71.54,2.26,2.26,0,0,1,.38.64,1.72,1.72,0,0,1,.12.57,4.44,4.44,0,0,1-.33,1.38l-5.07,14.37a9.13,9.13,0,0,1-1.94,3.48,4.19,4.19,0,0,1-3.07,1.08,3.2,3.2,0,0,1-2.07-.57,1.79,1.79,0,0,1-.69-1.44,1.6,1.6,0,0,1,.55-1.3,2.18,2.18,0,0,1,1.46-.46h.45a1.73,1.73,0,0,0,.95-.24,1.82,1.82,0,0,0,.58-1.14l-4.56-13-.09-.24q-.24-.75-.35-1.11a2.45,2.45,0,0,1-.11-.69,2,2,0,0,1,.63-1.5,2.1,2.1,0,0,1,1.5-.6,2.37,2.37,0,0,1,1.46.44,2.16,2.16,0,0,1,.79,1.21Z" transform="translate(-16.33 -76.61)"/>
        <path class="cls-9" d="M1744.05,944.22a2.41,2.41,0,0,1,.49-1.61,2.18,2.18,0,0,1,3,0,2.41,2.41,0,0,1,.5,1.61v.57h.06a7.69,7.69,0,0,1,2.29-2,6,6,0,0,1,3-.72,7.21,7.21,0,0,1,2,.29,4.8,4.8,0,0,1,1.77,1,4.64,4.64,0,0,1,1.26,1.8,7.09,7.09,0,0,1,.46,2.72v8.52a2.42,2.42,0,0,1-.49,1.59,2.69,2.69,0,0,1-3.39,0,2.42,2.42,0,0,1-.5-1.59v-7.65a3.32,3.32,0,0,0-.69-2.2,2.54,2.54,0,0,0-2.07-.83,3.33,3.33,0,0,0-2.3.94,3.23,3.23,0,0,0-1,2.51v7.23a2.42,2.42,0,0,1-.5,1.59,2.69,2.69,0,0,1-3.39,0,2.42,2.42,0,0,1-.49-1.59Z" transform="translate(-16.33 -76.61)"/>
        <path class="cls-9" d="M1766.1,951.09a3.77,3.77,0,0,0,4,4,4.55,4.55,0,0,0,2-.35,6.57,6.57,0,0,0,1.43-1,4.72,4.72,0,0,1,.81-.63,1.82,1.82,0,0,1,2.15.33,1.65,1.65,0,0,1,.52,1.17,2.43,2.43,0,0,1-.66,1.67,5.27,5.27,0,0,1-1.73,1.23,10.05,10.05,0,0,1-2.25.74,11.27,11.27,0,0,1-2.24.24,9.85,9.85,0,0,1-3.81-.68,7.17,7.17,0,0,1-2.64-1.81,7.31,7.31,0,0,1-1.5-2.55,9,9,0,0,1-.48-2.91,8.6,8.6,0,0,1,2.22-6.2A8,8,0,0,1,1770,942a9,9,0,0,1,3.32.58,7.31,7.31,0,0,1,2.52,1.62,7.06,7.06,0,0,1,1.56,2.31,6.91,6.91,0,0,1,.52,2.65,2.09,2.09,0,0,1-.4,1.5,2.2,2.2,0,0,1-1.52.39Zm7.68-2.52a4,4,0,0,0-1.22-2.5,3.49,3.49,0,0,0-2.47-1,3.76,3.76,0,0,0-2.61.92,4.67,4.67,0,0,0-1.38,2.56Z" transform="translate(-16.33 -76.61)"/>
        <path class="cls-9" d="M1784.46,951.09a3.77,3.77,0,0,0,4,4,4.55,4.55,0,0,0,2-.35,6.59,6.59,0,0,0,1.42-1,4.72,4.72,0,0,1,.81-.63,1.82,1.82,0,0,1,2.14.33,1.66,1.66,0,0,1,.53,1.17,2.43,2.43,0,0,1-.66,1.67,5.27,5.27,0,0,1-1.72,1.23,10.09,10.09,0,0,1-2.25.74,11.28,11.28,0,0,1-2.24.24,9.85,9.85,0,0,1-3.81-.68,7.17,7.17,0,0,1-2.64-1.81,7.34,7.34,0,0,1-1.5-2.55,9,9,0,0,1-.48-2.91,8.6,8.6,0,0,1,2.22-6.2,8,8,0,0,1,6.06-2.33,9,9,0,0,1,3.32.58,7.3,7.3,0,0,1,2.52,1.62,7.06,7.06,0,0,1,1.56,2.31,6.91,6.91,0,0,1,.52,2.65,2.08,2.08,0,0,1-.41,1.5,2.2,2.2,0,0,1-1.51.39Zm7.68-2.52a4,4,0,0,0-1.21-2.5,3.49,3.49,0,0,0-2.47-1,3.76,3.76,0,0,0-2.61.92,4.67,4.67,0,0,0-1.38,2.56Z" transform="translate(-16.33 -76.61)"/>
        <path class="cls-9" d="M1814,956.43q0,2.07-2,2.07t-2-2.07v-.69h-.06a3.87,3.87,0,0,1-1.74,2.06,5.7,5.7,0,0,1-2.88.71,6.83,6.83,0,0,1-2.64-.51,6.12,6.12,0,0,1-2.19-1.56,7.36,7.36,0,0,1-1.5-2.62,11.22,11.22,0,0,1-.54-3.65,11,11,0,0,1,.42-3.07,8.16,8.16,0,0,1,1.26-2.6,6,6,0,0,1,2.12-1.8,6.35,6.35,0,0,1,3-.66,5.51,5.51,0,0,1,2.55.57,4.38,4.38,0,0,1,1.77,1.65h.06v-5.94a2.16,2.16,0,0,1,.58-1.62,2.54,2.54,0,0,1,3.21,0,2.16,2.16,0,0,1,.58,1.62Zm-10.23-2.73a3,3,0,0,0,2.58,1.38,2.92,2.92,0,0,0,2.65-1.35,6.28,6.28,0,0,0,.86-3.42,8.56,8.56,0,0,0-.18-1.75A5.33,5.33,0,0,0,1809,947a3,3,0,0,0-2.74-1.54,3,3,0,0,0-1.68.45,3.18,3.18,0,0,0-1.08,1.17,5.47,5.47,0,0,0-.56,1.56,8.67,8.67,0,0,0-.17,1.68A6,6,0,0,0,1803.72,953.7Z" transform="translate(-16.33 -76.61)"/>
        <path class="cls-9" d="M1832.43,953.91h.06l2.67-9.93a3.18,3.18,0,0,1,.75-1.42,1.8,1.8,0,0,1,1.35-.53,2.32,2.32,0,0,1,1.05.23,2.1,2.1,0,0,1,.71.54,2.28,2.28,0,0,1,.38.64,1.74,1.74,0,0,1,.12.57,4.38,4.38,0,0,1-.33,1.38l-5.07,14.37a9.16,9.16,0,0,1-1.93,3.48,4.19,4.19,0,0,1-3.08,1.08,3.2,3.2,0,0,1-2.07-.57,1.79,1.79,0,0,1-.69-1.44,1.61,1.61,0,0,1,.55-1.3,2.19,2.19,0,0,1,1.46-.46h.45a1.73,1.73,0,0,0,.94-.24,1.82,1.82,0,0,0,.58-1.14l-4.56-13-.09-.24q-.24-.75-.34-1.11a2.44,2.44,0,0,1-.1-.69,2,2,0,0,1,.63-1.5,2.1,2.1,0,0,1,1.5-.6,2.37,2.37,0,0,1,1.45.44,2.16,2.16,0,0,1,.8,1.21Z" transform="translate(-16.33 -76.61)"/>
        <path class="cls-9" d="M1841.12,947a7.47,7.47,0,0,1,1.54-2.59,8.86,8.86,0,0,1,12.06,0,7.49,7.49,0,0,1,1.54,2.59,9.72,9.72,0,0,1,.52,3.26,10.93,10.93,0,0,1-.45,3.19,7.29,7.29,0,0,1-1.39,2.61,6.5,6.5,0,0,1-2.52,1.79,11,11,0,0,1-7.46,0,6.42,6.42,0,0,1-2.52-1.79,7.32,7.32,0,0,1-1.41-2.62,11,11,0,0,1-.45-3.19A9.72,9.72,0,0,1,1841.12,947Zm4.79,6.84a3.44,3.44,0,0,0,5.58,0,6.44,6.44,0,0,0,.93-3.58,6.23,6.23,0,0,0-.95-3.62,3.5,3.5,0,0,0-5.55,0,6.24,6.24,0,0,0-.94,3.62A6.43,6.43,0,0,0,1845.9,953.83Z" transform="translate(-16.33 -76.61)"/>
        <path class="cls-9" d="M1874.46,956.31a2.41,2.41,0,0,1-.5,1.61,2.18,2.18,0,0,1-3,0,2.41,2.41,0,0,1-.5-1.61v-.57h-.06a7.28,7.28,0,0,1-2.28,2,6.11,6.11,0,0,1-3,.72,7.2,7.2,0,0,1-2-.29,4.78,4.78,0,0,1-1.77-1,4.61,4.61,0,0,1-1.26-1.8,7.09,7.09,0,0,1-.46-2.72v-8.52a2.42,2.42,0,0,1,.49-1.59,2.69,2.69,0,0,1,3.39,0,2.42,2.42,0,0,1,.49,1.59v7.65a3.32,3.32,0,0,0,.69,2.21,2.54,2.54,0,0,0,2.07.83A3.32,3.32,0,0,0,1869,954a3.23,3.23,0,0,0,1-2.51v-7.23a2.42,2.42,0,0,1,.5-1.59,2.69,2.69,0,0,1,3.39,0,2.42,2.42,0,0,1,.5,1.59Z" transform="translate(-16.33 -76.61)"/>
      </g>
    </g>
    <g id="tonight">
      <rect class="cls-5" x="1595.08" y="698.03" width="287.63" height="92.09" rx="20" ry="20"/>
      <path class="cls-6" d="M1635.46,781.55c-10.48-.44-16.94,5-17,17.64l5.73,1.37s-.92-13.06,8.93-13.29C1633.86,787.5,1635.46,781.55,1635.46,781.55Z" transform="translate(-16.33 -76.61)"/>
      <path class="cls-7" d="M1894.22,836.28l-6.88,1.73c-.12,13-4.19,15.54-13.46,16l-4.19,7.34C1884.41,862.17,1893.8,854.67,1894.22,836.28Z" transform="translate(-16.33 -76.61)"/>
      <g>
        <path class="cls-8" d="M1642.62,804.27a6.54,6.54,0,0,1,1.58-4.8,7.54,7.54,0,0,1,9.24,0,6.54,6.54,0,0,1,1.58,4.8v4.09h3.72q4,0,4,3.72t-4,3.72H1655v15q0,1.49,1.43,1.49,3.53,0,4.9,1.05a4.52,4.52,0,0,1-.56,6.94q-1.92,1.3-7,1.3-5.46,0-8.31-2.73t-2.85-8.12V815.8h-2.36q-4,0-4-3.72t4-3.72h2.36Z" transform="translate(-16.33 -76.61)"/>
        <path class="cls-8" d="M1666.55,817a14.06,14.06,0,0,1,3.84-5.33,16.24,16.24,0,0,1,5.77-3.13,25.78,25.78,0,0,1,14.38,0,16.25,16.25,0,0,1,5.77,3.13,14.07,14.07,0,0,1,3.84,5.33,21.49,21.49,0,0,1,0,15.07,14.05,14.05,0,0,1-3.84,5.33,16.25,16.25,0,0,1-5.77,3.13,25.8,25.8,0,0,1-14.38,0,16.24,16.24,0,0,1-5.77-3.13,14,14,0,0,1-3.84-5.33,21.48,21.48,0,0,1,0-15.07Zm20.8,1.24a4.77,4.77,0,0,0-8,0q-1.39,2.17-1.39,6.63,0,8.12,5.39,8.12t5.39-8.12Q1688.75,820.45,1687.35,818.28Z" transform="translate(-16.33 -76.61)"/>
        <path class="cls-8" d="M1729.36,823.06q0-5.46-4.71-5.46a4.06,4.06,0,0,0-3.5,1.67,7.82,7.82,0,0,0-1.21,4.65v11.35a6.12,6.12,0,0,1-1.74,4.71,7.51,7.51,0,0,1-9.3,0,6.11,6.11,0,0,1-1.74-4.71V813.63q0-6.08,6.14-6.08a5.18,5.18,0,0,1,4.06,1.49,7.87,7.87,0,0,1,1.64,4.53h.12q3.29-6,10.54-6,6.32,0,9.39,3.44a13.14,13.14,0,0,1,3.07,9.08v15.19a6.12,6.12,0,0,1-1.74,4.71,7.51,7.51,0,0,1-9.3,0,6.12,6.12,0,0,1-1.74-4.71Z" transform="translate(-16.33 -76.61)"/>
        <path class="cls-8" d="M1748.64,813.88a6.11,6.11,0,0,1,1.74-4.71,7.51,7.51,0,0,1,9.3,0,6.12,6.12,0,0,1,1.74,4.71v21.39a6.12,6.12,0,0,1-1.74,4.71,7.51,7.51,0,0,1-9.3,0,6.11,6.11,0,0,1-1.74-4.71Zm2.11-19a6.14,6.14,0,1,1-1.74,4.28A5.81,5.81,0,0,1,1750.75,794.91Z" transform="translate(-16.33 -76.61)"/>
        <path class="cls-8" d="M1790.49,834.22h-.12a6.31,6.31,0,0,1-3.35,3.35,13.18,13.18,0,0,1-5.58,1.12,14.54,14.54,0,0,1-4.77-.84,13.16,13.16,0,0,1-4.49-2.7,13.39,13.39,0,0,1-3.35-4.87,18.15,18.15,0,0,1-1.27-7.1,18.61,18.61,0,0,1,1-6,15.32,15.32,0,0,1,2.79-5,12.66,12.66,0,0,1,4.46-3.38,14,14,0,0,1,5.92-1.21,13.38,13.38,0,0,1,6.11,1.49,6.65,6.65,0,0,1,3.69,4.34h.12a6.07,6.07,0,0,1,1.46-4.18,5.22,5.22,0,0,1,4.12-1.64q5.7,0,5.7,6.2v26.1a14.24,14.24,0,0,1-1.3,6.36,11.06,11.06,0,0,1-3.69,4.28,16.23,16.23,0,0,1-5.7,2.39,34.25,34.25,0,0,1-7.47.74,31.15,31.15,0,0,1-7.32-.74,14.87,14.87,0,0,1-4.77-1.92,8.17,8.17,0,0,1-2.48-2.42,4.61,4.61,0,0,1-.74-2.36,4.72,4.72,0,0,1,1.27-3.35,4.4,4.4,0,0,1,3.38-1.36,3.88,3.88,0,0,1,1.71.4,18.74,18.74,0,0,1,2.14,1.27,20,20,0,0,0,2.88,1.71,6.78,6.78,0,0,0,2.88.59q3.78,0,5.3-1.67t1.52-5.27Zm-.77-15.81a4.51,4.51,0,0,0-4.06-1.92,4.66,4.66,0,0,0-4.06,1.77,10.68,10.68,0,0,0,0,10.11,4.66,4.66,0,0,0,4.06,1.77,4.51,4.51,0,0,0,4.06-1.92,10.08,10.08,0,0,0,0-9.8Z" transform="translate(-16.33 -76.61)"/>
        <path class="cls-8" d="M1831.41,823.06q0-5.46-4.71-5.46a4.06,4.06,0,0,0-3.5,1.67,7.82,7.82,0,0,0-1.21,4.65v11.35a6.12,6.12,0,0,1-1.74,4.71,7.51,7.51,0,0,1-9.3,0,6.11,6.11,0,0,1-1.74-4.71v-33.6a6.12,6.12,0,0,1,1.74-4.71,7.51,7.51,0,0,1,9.3,0,6.12,6.12,0,0,1,1.74,4.71v10.91h.12a11,11,0,0,1,9.61-5q6.32,0,9.39,3.44a13.14,13.14,0,0,1,3.07,9.08v15.19a6.12,6.12,0,0,1-1.74,4.71,7.51,7.51,0,0,1-9.3,0,6.12,6.12,0,0,1-1.74-4.71Z" transform="translate(-16.33 -76.61)"/>
        <path class="cls-8" d="M1853.66,804.27a6.54,6.54,0,0,1,1.58-4.8,7.54,7.54,0,0,1,9.24,0,6.54,6.54,0,0,1,1.58,4.8v4.09h3.72q4,0,4,3.72t-4,3.72h-3.72v15q0,1.49,1.43,1.49,3.53,0,4.9,1.05a4.52,4.52,0,0,1-.56,6.94q-1.92,1.3-7,1.3-5.46,0-8.31-2.73t-2.85-8.12V815.8h-2.36q-4,0-4-3.72t4-3.72h2.36Z" transform="translate(-16.33 -76.61)"/>
      </g>
    </g>
    <g id="foreversgonnastart">
      <rect class="cls-5" x="1595.08" y="497.44" width="256.34" height="98.72" rx="20" ry="20"/>
      <path class="cls-6" d="M1634.1,579.17c-10.48-.44-16.94,5-17,17.64l5.73,1.37s-.92-13.06,8.93-13.29C1632.49,585.13,1634.1,579.17,1634.1,579.17Z" transform="translate(-16.33 -76.61)"/>
      <path class="cls-7" d="M1863.56,641l-6.88,1.73c-.12,13-4.19,15.54-13.46,16l-4.19,7.34C1853.75,666.93,1863.14,659.43,1863.56,641Z" transform="translate(-16.33 -76.61)"/>
      <g>
        <path class="cls-8" d="M1632.77,596.79a6.23,6.23,0,0,1,1.66-4.72,6.72,6.72,0,0,1,4.82-1.58,7.77,7.77,0,0,1,4.07.76,2.63,2.63,0,0,1,.32,4,4.84,4.84,0,0,1-2.84.61q-.83,0-.83.86v1.44h1.87q2.3,0,2.3,2.16t-2.3,2.16H1640v11.27a3.79,3.79,0,0,1-.92,2.79,4.38,4.38,0,0,1-5.36,0,3.8,3.8,0,0,1-.92-2.79V602.52h-1.37q-2.31,0-2.3-2.16t2.3-2.16h1.37Z" transform="translate(-16.33 -76.61)"/>
        <path class="cls-8" d="M1646.66,603.24a8.15,8.15,0,0,1,2.23-3.1,9.42,9.42,0,0,1,3.35-1.82,15,15,0,0,1,8.35,0,9.43,9.43,0,0,1,3.35,1.82,8.17,8.17,0,0,1,2.23,3.1,12.47,12.47,0,0,1,0,8.75,8.17,8.17,0,0,1-2.23,3.1,9.44,9.44,0,0,1-3.35,1.82,15,15,0,0,1-8.35,0,9.44,9.44,0,0,1-3.35-1.82,8.15,8.15,0,0,1-2.23-3.1,12.47,12.47,0,0,1,0-8.75Zm12.08.72a2.77,2.77,0,0,0-4.64,0,7.25,7.25,0,0,0-.81,3.85q0,4.72,3.13,4.72t3.13-4.72A7.25,7.25,0,0,0,1658.74,604Z" transform="translate(-16.33 -76.61)"/>
        <path class="cls-8" d="M1670.24,601.4a3.66,3.66,0,0,1,1-2.74,3.28,3.28,0,0,1,2.39-.94,3.22,3.22,0,0,1,2.41.92,4,4,0,0,1,.9,2.9V603h.07a12.45,12.45,0,0,1,2.12-4,3.51,3.51,0,0,1,2.7-1.3,2.64,2.64,0,0,1,2.3,1,4,4,0,0,1,.72,2.41q0,2.81-2,3.31l-2,.5a4.81,4.81,0,0,0-2.38,1.19,3.56,3.56,0,0,0-.76,2.52v5.15a3.56,3.56,0,0,1-1,2.74,4.36,4.36,0,0,1-5.4,0,3.55,3.55,0,0,1-1-2.74Z" transform="translate(-16.33 -76.61)"/>
        <path class="cls-8" d="M1706,614.88a4.55,4.55,0,0,1-1.67,1.33,11,11,0,0,1-3,.94,25.27,25.27,0,0,1-4.46.34,14,14,0,0,1-4.18-.59,9.43,9.43,0,0,1-3.35-1.82,8.16,8.16,0,0,1-2.23-3.1,12.47,12.47,0,0,1,0-8.75,8.16,8.16,0,0,1,2.23-3.1,9.42,9.42,0,0,1,3.35-1.82,14,14,0,0,1,4.18-.59,13.22,13.22,0,0,1,5,.86,9.4,9.4,0,0,1,3.37,2.21,9.06,9.06,0,0,1,1.84,2.79,7.16,7.16,0,0,1,.58,2.63,2.92,2.92,0,0,1-.81,2.34,4,4,0,0,1-2.61.68h-10.51a4.49,4.49,0,0,0,1.17,2.86,3.7,3.7,0,0,0,2.79,1.06,4.61,4.61,0,0,0,1.71-.31,15.25,15.25,0,0,0,1.85-.92,13.44,13.44,0,0,1,1.6-.81,3.66,3.66,0,0,1,1.39-.27,2.12,2.12,0,0,1,1.62.76,2.46,2.46,0,0,1,.68,1.69A2.67,2.67,0,0,1,1706,614.88Zm-5.35-9.31a3.38,3.38,0,0,0-1-2.68,4,4,0,0,0-4.9,0,3.5,3.5,0,0,0-1.08,2.68Z" transform="translate(-16.33 -76.61)"/>
        <path class="cls-8" d="M1721.33,601.08a5.91,5.91,0,0,1,1.15-2.56,3.08,3.08,0,0,1,2.38-.79,3.55,3.55,0,0,1,2.45.86,2.89,2.89,0,0,1,1,2.27,7.26,7.26,0,0,1-.16,1.49,13.65,13.65,0,0,1-.56,1.85l-3.85,10.73a3.38,3.38,0,0,1-1.62,2.12,9,9,0,0,1-3.28.43,8.58,8.58,0,0,1-3.17-.43,3.38,3.38,0,0,1-1.62-2.12l-3.85-10.73,0-.11q-.43-1.26-.61-1.93a5,5,0,0,1-.18-1.31,2.89,2.89,0,0,1,1-2.27,3.55,3.55,0,0,1,2.45-.86,3.44,3.44,0,0,1,2.43.68,5.87,5.87,0,0,1,1.21,2.66l2.48,9.58h.07Z" transform="translate(-16.33 -76.61)"/>
        <path class="cls-8" d="M1750,614.88a4.55,4.55,0,0,1-1.67,1.33,11,11,0,0,1-3,.94,25.27,25.27,0,0,1-4.46.34,14,14,0,0,1-4.18-.59,9.43,9.43,0,0,1-3.35-1.82A8.16,8.16,0,0,1,1731,612a12.47,12.47,0,0,1,0-8.75,8.16,8.16,0,0,1,2.23-3.1,9.42,9.42,0,0,1,3.35-1.82,14,14,0,0,1,4.18-.59,13.22,13.22,0,0,1,5,.86,9.4,9.4,0,0,1,3.37,2.21,9.06,9.06,0,0,1,1.84,2.79,7.16,7.16,0,0,1,.58,2.63,2.92,2.92,0,0,1-.81,2.34,4,4,0,0,1-2.61.68h-10.51a4.49,4.49,0,0,0,1.17,2.86,3.7,3.7,0,0,0,2.79,1.06,4.61,4.61,0,0,0,1.71-.31,15.25,15.25,0,0,0,1.85-.92,13.44,13.44,0,0,1,1.6-.81,3.66,3.66,0,0,1,1.39-.27,2.12,2.12,0,0,1,1.62.76,2.46,2.46,0,0,1,.68,1.69A2.67,2.67,0,0,1,1750,614.88Zm-5.35-9.31a3.38,3.38,0,0,0-1-2.68,4,4,0,0,0-4.9,0,3.5,3.5,0,0,0-1.08,2.68Z" transform="translate(-16.33 -76.61)"/>
        <path class="cls-8" d="M1754.63,601.4a3.66,3.66,0,0,1,1-2.74,3.28,3.28,0,0,1,2.39-.94,3.22,3.22,0,0,1,2.41.92,4,4,0,0,1,.9,2.9V603h.07a12.45,12.45,0,0,1,2.12-4,3.51,3.51,0,0,1,2.7-1.3,2.64,2.64,0,0,1,2.3,1,4,4,0,0,1,.72,2.41q0,2.81-2,3.31l-2,.5a4.81,4.81,0,0,0-2.38,1.19,3.56,3.56,0,0,0-.76,2.52v5.15a3.56,3.56,0,0,1-1,2.74,4.36,4.36,0,0,1-5.4,0,3.55,3.55,0,0,1-1-2.74Z" transform="translate(-16.33 -76.61)"/>
        <path class="cls-8" d="M1773.09,591.77a3.78,3.78,0,0,1,2.81-1.13,4.27,4.27,0,0,1,1.62.31,3.88,3.88,0,0,1,1.37,1,6.46,6.46,0,0,1,1.37,4.46,8.39,8.39,0,0,1-.61,3.33,6.49,6.49,0,0,1-3.64,3.6,5.72,5.72,0,0,1-2.05.41,1.75,1.75,0,0,1-1.35-.49,1.57,1.57,0,0,1-.45-1.1,1.6,1.6,0,0,1,.47-1.21,3.46,3.46,0,0,1,1.66-.7,2.88,2.88,0,0,0,1.55-.79,2.28,2.28,0,0,0,.54-1.62,3.18,3.18,0,0,1-3.58-.77,3.91,3.91,0,0,1-.81-2.5A3.78,3.78,0,0,1,1773.09,591.77Z" transform="translate(-16.33 -76.61)"/>
        <path class="cls-8" d="M1793,610.91a4.49,4.49,0,0,0-1.91-.72l-2.2-.47a11.94,11.94,0,0,1-5.42-2.25,4.67,4.67,0,0,1-1.57-3.62,5.57,5.57,0,0,1,.47-2.23,5.18,5.18,0,0,1,1.57-2,8.26,8.26,0,0,1,3-1.4,16.88,16.88,0,0,1,4.52-.52,22.87,22.87,0,0,1,3.29.23,12.33,12.33,0,0,1,2.88.76,5.93,5.93,0,0,1,2,1.3,2.52,2.52,0,0,1,.76,1.82,2.19,2.19,0,0,1-.68,1.64,2.42,2.42,0,0,1-1.76.67,3.28,3.28,0,0,1-1.33-.25,10.12,10.12,0,0,1-1.37-.76,12.27,12.27,0,0,0-1.89-1,6,6,0,0,0-2.14-.34q-2.09,0-2.09,1.33a1,1,0,0,0,.45.88,6.29,6.29,0,0,0,1.85.63l3.13.68a12.11,12.11,0,0,1,4.9,2.07,4.32,4.32,0,0,1,1.69,3.55,5.83,5.83,0,0,1-.54,2.47,5.56,5.56,0,0,1-1.71,2.07,9.06,9.06,0,0,1-3.17,1.44,18.61,18.61,0,0,1-4.81.54,21.07,21.07,0,0,1-3.46-.27,11.42,11.42,0,0,1-2.88-.85,5.38,5.38,0,0,1-2-1.46,3.07,3.07,0,0,1-.72-2,2,2,0,0,1,.77-1.6,2.74,2.74,0,0,1,1.85-.67,2.44,2.44,0,0,1,1.13.27,11.09,11.09,0,0,1,1.28.81,10.45,10.45,0,0,0,2,1.24,5.47,5.47,0,0,0,2.25.41,2.88,2.88,0,0,0,1.73-.45,1.28,1.28,0,0,0,.61-1A1.3,1.3,0,0,0,1793,610.91Z" transform="translate(-16.33 -76.61)"/>
        <path class="cls-8" d="M1644,647.21H1644a3.67,3.67,0,0,1-1.94,1.94,7.66,7.66,0,0,1-3.24.65,8.46,8.46,0,0,1-2.77-.49,7.67,7.67,0,0,1-2.61-1.57,7.77,7.77,0,0,1-1.94-2.83,10.53,10.53,0,0,1-.74-4.12,10.79,10.79,0,0,1,.56-3.51,8.88,8.88,0,0,1,1.62-2.9,7.37,7.37,0,0,1,2.59-2,8.15,8.15,0,0,1,3.44-.7,7.78,7.78,0,0,1,3.55.86,3.87,3.87,0,0,1,2.14,2.52h.07a3.52,3.52,0,0,1,.85-2.43,3,3,0,0,1,2.39-1q3.31,0,3.31,3.6v15.16a8.25,8.25,0,0,1-.76,3.69,6.41,6.41,0,0,1-2.14,2.48A9.42,9.42,0,0,1,1645,658a19.89,19.89,0,0,1-4.34.43,18.07,18.07,0,0,1-4.25-.43,8.62,8.62,0,0,1-2.77-1.12,4.75,4.75,0,0,1-1.44-1.4,2.68,2.68,0,0,1-.43-1.37,2.75,2.75,0,0,1,.74-1.94,2.55,2.55,0,0,1,2-.79,2.26,2.26,0,0,1,1,.23,10.74,10.74,0,0,1,1.24.74,11.63,11.63,0,0,0,1.67,1,3.92,3.92,0,0,0,1.67.34,4,4,0,0,0,3.08-1,4.46,4.46,0,0,0,.88-3.06Zm-.45-9.18a2.62,2.62,0,0,0-2.36-1.12,2.7,2.7,0,0,0-2.36,1,6.2,6.2,0,0,0,0,5.87,2.7,2.7,0,0,0,2.36,1,2.62,2.62,0,0,0,2.36-1.12,5.85,5.85,0,0,0,0-5.69Z" transform="translate(-16.33 -76.61)"/>
        <path class="cls-8" d="M1655.3,637.24a8.15,8.15,0,0,1,2.23-3.1,9.42,9.42,0,0,1,3.35-1.82,15,15,0,0,1,8.35,0,9.43,9.43,0,0,1,3.35,1.82,8.17,8.17,0,0,1,2.23,3.1,12.47,12.47,0,0,1,0,8.75,8.17,8.17,0,0,1-2.23,3.1,9.44,9.44,0,0,1-3.35,1.82,15,15,0,0,1-8.35,0,9.44,9.44,0,0,1-3.35-1.82,8.15,8.15,0,0,1-2.23-3.1,12.47,12.47,0,0,1,0-8.75Zm12.08.72a2.77,2.77,0,0,0-4.64,0,7.25,7.25,0,0,0-.81,3.85q0,4.72,3.13,4.72t3.13-4.72A7.25,7.25,0,0,0,1667.38,638Z" transform="translate(-16.33 -76.61)"/>
        <path class="cls-8" d="M1691.77,640.73q0-3.17-2.74-3.17a2.35,2.35,0,0,0-2,1,4.53,4.53,0,0,0-.7,2.7v6.59a3.56,3.56,0,0,1-1,2.74,4.36,4.36,0,0,1-5.4,0,3.55,3.55,0,0,1-1-2.74V635.26q0-3.53,3.56-3.53a3,3,0,0,1,2.36.86,4.57,4.57,0,0,1,1,2.63h.07a6.47,6.47,0,0,1,6.12-3.49q3.67,0,5.45,2a7.62,7.62,0,0,1,1.78,5.27v8.82a3.55,3.55,0,0,1-1,2.74,4.36,4.36,0,0,1-5.4,0,3.55,3.55,0,0,1-1-2.74Z" transform="translate(-16.33 -76.61)"/>
        <path class="cls-8" d="M1715.75,640.73q0-3.17-2.74-3.17a2.35,2.35,0,0,0-2,1,4.53,4.53,0,0,0-.7,2.7v6.59a3.56,3.56,0,0,1-1,2.74,4.36,4.36,0,0,1-5.4,0,3.55,3.55,0,0,1-1-2.74V635.26q0-3.53,3.56-3.53a3,3,0,0,1,2.36.86,4.57,4.57,0,0,1,1,2.63h.07a6.47,6.47,0,0,1,6.12-3.49q3.67,0,5.45,2a7.62,7.62,0,0,1,1.78,5.27v8.82a3.55,3.55,0,0,1-1,2.74,4.36,4.36,0,0,1-5.4,0,3.55,3.55,0,0,1-1-2.74Z" transform="translate(-16.33 -76.61)"/>
        <path class="cls-8" d="M1747.14,645.52q0,.68.11,2a13.54,13.54,0,0,1,.11,1.37,2.2,2.2,0,0,1-1,2,4.35,4.35,0,0,1-2.45.67,3.84,3.84,0,0,1-2.66-.79,3.62,3.62,0,0,1-1.08-2.2,5.86,5.86,0,0,1-2.79,2.27,10.15,10.15,0,0,1-3.83.72,8.35,8.35,0,0,1-5.13-1.42,5.89,5.89,0,0,1-1.42-6.62,4.72,4.72,0,0,1,1.57-1.78,8.92,8.92,0,0,1,3-1.28,24.93,24.93,0,0,1,4.55-.67,9.53,9.53,0,0,0,3-.54,1.34,1.34,0,0,0,.86-1.3q0-1.84-3-1.84a4.66,4.66,0,0,0-1.89.34,10.4,10.4,0,0,0-1.78,1.06,11,11,0,0,1-1.42.86,3.14,3.14,0,0,1-1.39.29,2.05,2.05,0,0,1-2.34-2.3q0-2.05,2.56-3.31a14.64,14.64,0,0,1,6.48-1.26,24.78,24.78,0,0,1,3.38.23,13.4,13.4,0,0,1,3.2.85,6.21,6.21,0,0,1,2.45,1.71,4.1,4.1,0,0,1,.94,2.75Zm-7.2-3a2.39,2.39,0,0,1-1.13.67,16.79,16.79,0,0,1-1.82.38,10.86,10.86,0,0,0-1.84.4,1.51,1.51,0,0,0-1,1.55,1.6,1.6,0,0,0,.67,1.31,2.51,2.51,0,0,0,1.6.52,3.88,3.88,0,0,0,2.54-.81,2.39,2.39,0,0,0,1-1.89Z" transform="translate(-16.33 -76.61)"/>
        <path class="cls-8" d="M1773.16,644.91a4.49,4.49,0,0,0-1.91-.72l-2.2-.47a11.94,11.94,0,0,1-5.42-2.25,4.67,4.67,0,0,1-1.57-3.62,5.57,5.57,0,0,1,.47-2.23,5.18,5.18,0,0,1,1.57-2,8.26,8.26,0,0,1,3-1.4,16.88,16.88,0,0,1,4.52-.52,22.87,22.87,0,0,1,3.29.23,12.33,12.33,0,0,1,2.88.76,5.93,5.93,0,0,1,2,1.3,2.52,2.52,0,0,1,.76,1.82,2.19,2.19,0,0,1-.68,1.64,2.42,2.42,0,0,1-1.76.67,3.28,3.28,0,0,1-1.33-.25,10.12,10.12,0,0,1-1.37-.76,12.27,12.27,0,0,0-1.89-1,6,6,0,0,0-2.14-.34q-2.09,0-2.09,1.33a1,1,0,0,0,.45.88,6.29,6.29,0,0,0,1.85.63l3.13.68a12.11,12.11,0,0,1,4.9,2.07,4.32,4.32,0,0,1,1.69,3.55,5.83,5.83,0,0,1-.54,2.47,5.56,5.56,0,0,1-1.71,2.07,9.06,9.06,0,0,1-3.17,1.44,18.61,18.61,0,0,1-4.81.54,21.07,21.07,0,0,1-3.46-.27,11.42,11.42,0,0,1-2.88-.85,5.38,5.38,0,0,1-2-1.46,3.07,3.07,0,0,1-.72-2,2,2,0,0,1,.77-1.6,2.74,2.74,0,0,1,1.85-.67,2.44,2.44,0,0,1,1.13.27,11.09,11.09,0,0,1,1.28.81,10.45,10.45,0,0,0,2,1.24,5.47,5.47,0,0,0,2.25.41,2.88,2.88,0,0,0,1.73-.45,1.28,1.28,0,0,0,.61-1A1.3,1.3,0,0,0,1773.16,644.91Z" transform="translate(-16.33 -76.61)"/>
        <path class="cls-8" d="M1786,629.82a3.8,3.8,0,0,1,.92-2.79,4.38,4.38,0,0,1,5.36,0,3.79,3.79,0,0,1,.92,2.79v2.38h2.16q2.3,0,2.3,2.16t-2.3,2.16h-2.16v8.71q0,.86.83.86a4.84,4.84,0,0,1,2.84.61,2.63,2.63,0,0,1-.32,4,7.77,7.77,0,0,1-4.07.76,6.71,6.71,0,0,1-4.82-1.58,6.23,6.23,0,0,1-1.66-4.72v-8.68h-1.37q-2.31,0-2.3-2.16t2.3-2.16H1786Z" transform="translate(-16.33 -76.61)"/>
        <path class="cls-8" d="M1819.82,645.52q0,.68.11,2a13.54,13.54,0,0,1,.11,1.37,2.2,2.2,0,0,1-1,2,4.35,4.35,0,0,1-2.45.67,3.84,3.84,0,0,1-2.66-.79,3.62,3.62,0,0,1-1.08-2.2,5.86,5.86,0,0,1-2.79,2.27,10.15,10.15,0,0,1-3.83.72,8.35,8.35,0,0,1-5.13-1.42,5.89,5.89,0,0,1-1.42-6.62,4.72,4.72,0,0,1,1.57-1.78,8.92,8.92,0,0,1,3-1.28,24.93,24.93,0,0,1,4.55-.67,9.53,9.53,0,0,0,3-.54,1.34,1.34,0,0,0,.86-1.3q0-1.84-3-1.84a4.66,4.66,0,0,0-1.89.34,10.4,10.4,0,0,0-1.78,1.06,11,11,0,0,1-1.42.86,3.14,3.14,0,0,1-1.39.29,2.05,2.05,0,0,1-2.34-2.3q0-2.05,2.56-3.31a14.64,14.64,0,0,1,6.48-1.26,24.78,24.78,0,0,1,3.38.23,13.4,13.4,0,0,1,3.2.85,6.21,6.21,0,0,1,2.45,1.71,4.1,4.1,0,0,1,.94,2.75Zm-7.2-3a2.39,2.39,0,0,1-1.13.67,16.79,16.79,0,0,1-1.82.38,10.86,10.86,0,0,0-1.84.4,1.51,1.51,0,0,0-1,1.55,1.6,1.6,0,0,0,.67,1.31,2.51,2.51,0,0,0,1.6.52,3.88,3.88,0,0,0,2.54-.81,2.39,2.39,0,0,0,1-1.89Z" transform="translate(-16.33 -76.61)"/>
        <path class="cls-8" d="M1823.49,635.4a3.66,3.66,0,0,1,1-2.74,3.28,3.28,0,0,1,2.39-.94,3.22,3.22,0,0,1,2.41.92,4,4,0,0,1,.9,2.9V637h.07a12.45,12.45,0,0,1,2.12-4,3.51,3.51,0,0,1,2.7-1.3,2.64,2.64,0,0,1,2.3,1,4,4,0,0,1,.72,2.41q0,2.81-2,3.31l-2,.5a4.81,4.81,0,0,0-2.38,1.19,3.56,3.56,0,0,0-.76,2.52v5.15a3.56,3.56,0,0,1-1,2.74,4.36,4.36,0,0,1-5.4,0,3.55,3.55,0,0,1-1-2.74Z" transform="translate(-16.33 -76.61)"/>
        <path class="cls-8" d="M1842.64,629.82a3.79,3.79,0,0,1,.92-2.79,4.38,4.38,0,0,1,5.36,0,3.8,3.8,0,0,1,.92,2.79v2.38H1852q2.3,0,2.3,2.16t-2.3,2.16h-2.16v8.71q0,.86.83.86a4.84,4.84,0,0,1,2.84.61,2.63,2.63,0,0,1-.32,4,7.76,7.76,0,0,1-4.07.76,6.71,6.71,0,0,1-4.82-1.58,6.23,6.23,0,0,1-1.66-4.72v-8.68h-1.37q-2.3,0-2.3-2.16t2.3-2.16h1.37Z" transform="translate(-16.33 -76.61)"/>
      </g>
    </g>
  </g>
  <g id="neontext1">
    <rect class="cls-10" x="1017.94" y="560.66" width="545.28" height="188.54" rx="12" ry="12"/>
  </g>
  <g id="neontext2">
    <rect class="cls-10" x="1017.94" y="787.22" width="545.28" height="188.54" rx="12" ry="12"/>
  </g>
  <g id="flipper">
    <rect class="cls-11" x="766.27" y="254.05" width="644.4" height="212.68" rx="12" ry="12"/>
  </g>
</svg>
