<svg xmlns="http://www.w3.org/2000/svg" width="539.58" height="340.99" viewBox="0 0 539.58 340.99">
  <defs>
    <style>
      .cls-1 {
        fill: none;
        stroke-width: 3px;
      }

      .cls-1, .cls-2 {
        stroke: #000;
        stroke-miterlimit: 10;
      }

      .cls-2 {
        fill: #4d4d4d;
        stroke-width: 4px;
      }

      .cls-3 {
        fill: #666;
      }

      .cls-4 {
        fill: #333;
      }

      .cls-5 {
        fill: gray;
      }
    </style>
  </defs>
  <title>flowchart3</title>
  <g id="arrowpaths">
    <g>
      <path class="cls-1" d="M456.85,465H599.33c9.44.88,15.14,5.52,15.11,15.91v17.18" transform="translate(-189.69 -422.09)"/>
      <polygon points="413.65 67.58 424.76 72.3 435.87 67.58 424.76 93.91 413.65 67.58"/>
    </g>
    <g>
      <path class="cls-1" d="M443.42,734H542c13,0,22-7.86,22-25.53V635.91" transform="translate(-189.69 -422.09)"/>
      <polygon points="385.42 222.25 374.31 217.53 363.2 222.25 374.31 195.91 385.42 222.25"/>
    </g>
    <g>
      <line class="cls-1" x1="122.81" y1="193.99" x2="122.81" y2="259.5"/>
      <polygon points="111.7 251.07 122.81 255.79 133.92 251.07 122.81 277.41 111.7 251.07"/>
    </g>
  </g>
  <g id="screens">
    <g id="brighteyes">
      <rect class="cls-2" x="12.42" y="279.36" width="241.31" height="59.63" rx="20" ry="20"/>
      <path class="cls-3" d="M228.89,705.48c-13-.54-21,6.24-21,21.82L215,729s-1.13-16.15,11.05-16.44C226.91,712.85,228.89,705.48,228.89,705.48Z" transform="translate(-189.69 -422.09)"/>
      <path class="cls-4" d="M438.92,734l-9.12,1.59c-.16,12-5.55,14.27-17.84,14.66L406.42,757C425.93,757.81,438.36,750.92,438.92,734Z" transform="translate(-189.69 -422.09)"/>
      <g>
        <path class="cls-5" d="M226.95,720.15a3.44,3.44,0,0,1,.88-2.66,3.73,3.73,0,0,1,2.57-.79h7.85a21.06,21.06,0,0,1,3.46.27,9.85,9.85,0,0,1,3,1,5.65,5.65,0,0,1,2.2,2.05,6.32,6.32,0,0,1,.83,3.38,5.53,5.53,0,0,1-.94,3.13,5.75,5.75,0,0,1-2.7,2.12v.07a6.07,6.07,0,0,1,3.35,2.11,6.55,6.55,0,0,1,1.19,4.12,7.52,7.52,0,0,1-.74,3.44,6.43,6.43,0,0,1-2.07,2.39,9.4,9.4,0,0,1-3,1.39,14.43,14.43,0,0,1-3.69.45h-8.68a3.73,3.73,0,0,1-2.57-.79,3.44,3.44,0,0,1-.88-2.66Zm5.9,7.2h4.86q4.1,0,4.1-3.17a2.63,2.63,0,0,0-1.19-2.45,5.91,5.91,0,0,0-3.1-.72h-4.68Zm0,10.73h5a10.77,10.77,0,0,0,1.82-.14,5.29,5.29,0,0,0,1.55-.5,2.74,2.74,0,0,0,1.12-1,3.37,3.37,0,0,0,.41-1.76,3.41,3.41,0,0,0-.45-1.84,2.82,2.82,0,0,0-1.22-1.08,6,6,0,0,0-1.75-.49,17.22,17.22,0,0,0-2.2-.13h-4.25Z" transform="translate(-189.69 -422.09)"/>
        <path class="cls-5" d="M252.58,725.77a2.4,2.4,0,0,1,.67-1.8,2.58,2.58,0,0,1,3.42,0,2.4,2.4,0,0,1,.67,1.8v2h.07a8.69,8.69,0,0,1,1.57-3.2,3.41,3.41,0,0,1,2.79-1.26,3,3,0,0,1,2.07.72,2.35,2.35,0,0,1,.81,1.84,2.49,2.49,0,0,1-.74,2,2.76,2.76,0,0,1-1.85.63h-.94a2.69,2.69,0,0,0-2.47,1.33,9.16,9.16,0,0,0-.81,4.5v6.12a2.9,2.9,0,0,1-.59,1.91,3.23,3.23,0,0,1-4.07,0,2.9,2.9,0,0,1-.59-1.91Z" transform="translate(-189.69 -422.09)"/>
        <path class="cls-5" d="M267.92,716.88a2.78,2.78,0,1,1-.79,1.94A2.64,2.64,0,0,1,267.92,716.88Zm-.68,9.07a2.9,2.9,0,0,1,.59-1.91,3.23,3.23,0,0,1,4.07,0,2.9,2.9,0,0,1,.59,1.91v14.51a2.9,2.9,0,0,1-.59,1.91,3.23,3.23,0,0,1-4.07,0,2.9,2.9,0,0,1-.59-1.91Z" transform="translate(-189.69 -422.09)"/>
        <path class="cls-5" d="M294.77,741.07q0,4.57-2.54,6.91a9.67,9.67,0,0,1-6.82,2.34,13.18,13.18,0,0,1-2.93-.32,10.69,10.69,0,0,1-2.54-.9,5.57,5.57,0,0,1-1.78-1.39,2.7,2.7,0,0,1-.67-1.75,2.16,2.16,0,0,1,.65-1.58,2.07,2.07,0,0,1,1.51-.65,2.25,2.25,0,0,1,1.17.29,7.92,7.92,0,0,1,1.17.9,8.2,8.2,0,0,0,1.51,1.13,3.54,3.54,0,0,0,1.73.38,4.13,4.13,0,0,0,3.46-1.33,7.28,7.28,0,0,0,1-4.43v-1.08h-.07a5.73,5.73,0,0,1-2.14,1.78,6.29,6.29,0,0,1-2.93.74,8,8,0,0,1-6.25-2.39,9.13,9.13,0,0,1-2.18-6.39q0-4.86,2.45-7.56a7.2,7.2,0,0,1,2.61-1.84,8.33,8.33,0,0,1,3.19-.61,6.69,6.69,0,0,1,3.37.83,5.24,5.24,0,0,1,2.18,2.3H290v-.65q0-2.48,2.38-2.48t2.38,2.48Zm-12.31-4.36a3.55,3.55,0,0,0,3.13,1.51,3.77,3.77,0,0,0,3-1.31,6,6,0,0,0,1.13-4,7,7,0,0,0-1-4.16,3.38,3.38,0,0,0-2.88-1.35,3.79,3.79,0,0,0-3.4,1.53,7.45,7.45,0,0,0-1,4.19A6.11,6.11,0,0,0,282.46,736.71Z" transform="translate(-189.69 -422.09)"/>
        <path class="cls-5" d="M298.95,718.86a2.59,2.59,0,0,1,.7-1.94,3.05,3.05,0,0,1,3.85,0,2.59,2.59,0,0,1,.7,1.94v7.24h.07a7,7,0,0,1,5.87-2.77,8.63,8.63,0,0,1,2.43.34,5.75,5.75,0,0,1,2.12,1.15,5.56,5.56,0,0,1,1.51,2.16,8.53,8.53,0,0,1,.56,3.26v10.22a2.9,2.9,0,0,1-.59,1.91,3.23,3.23,0,0,1-4.07,0,2.9,2.9,0,0,1-.59-1.91v-9.18a4,4,0,0,0-.83-2.65,3.06,3.06,0,0,0-2.48-1,4,4,0,0,0-2.75,1.13,3.87,3.87,0,0,0-1.24,3v8.68a2.9,2.9,0,0,1-.59,1.91,3.23,3.23,0,0,1-4.07,0,2.9,2.9,0,0,1-.59-1.91Z" transform="translate(-189.69 -422.09)"/>
        <path class="cls-5" d="M322.31,727.25h-.9q-2.09,0-2.09-1.73t2.09-1.73h.9v-3.2a2.59,2.59,0,0,1,.7-1.94,3.05,3.05,0,0,1,3.85,0,2.59,2.59,0,0,1,.7,1.94v3.2h1.58q2.38,0,2.38,1.73t-2.38,1.73h-1.58v10.51q0,1.22,1.37,1.22h.76q1.84,0,1.84,1.76,0,2.34-3.82,2.34a6,6,0,0,1-4.1-1.17,4.49,4.49,0,0,1-1.3-3.51Z" transform="translate(-189.69 -422.09)"/>
        <path class="cls-5" d="M349.74,734.19A4.52,4.52,0,0,0,354.6,739a5.48,5.48,0,0,0,2.36-.41,7.91,7.91,0,0,0,1.71-1.17,5.77,5.77,0,0,1,1-.76,2.19,2.19,0,0,1,2.57.4,2,2,0,0,1,.63,1.4,2.91,2.91,0,0,1-.79,2,6.31,6.31,0,0,1-2.07,1.48,12.06,12.06,0,0,1-2.7.88,13.59,13.59,0,0,1-2.68.29,11.83,11.83,0,0,1-4.57-.81,8.6,8.6,0,0,1-3.17-2.18,8.8,8.8,0,0,1-1.8-3.06,10.76,10.76,0,0,1-.58-3.49,10.31,10.31,0,0,1,2.66-7.43,9.58,9.58,0,0,1,7.27-2.79,10.78,10.78,0,0,1,4,.7,8.76,8.76,0,0,1,3,1.94,8.45,8.45,0,0,1,1.87,2.77,8.3,8.3,0,0,1,.63,3.19,2.5,2.5,0,0,1-.49,1.8,2.65,2.65,0,0,1-1.82.47Zm9.22-3a4.75,4.75,0,0,0-1.46-3,4.18,4.18,0,0,0-3-1.17,4.51,4.51,0,0,0-3.13,1.1,5.6,5.6,0,0,0-1.66,3.08Z" transform="translate(-189.69 -422.09)"/>
        <path class="cls-5" d="M374.3,737.58h.07l3.2-11.92a3.81,3.81,0,0,1,.9-1.71,2.16,2.16,0,0,1,1.62-.63,2.79,2.79,0,0,1,1.26.27,2.51,2.51,0,0,1,.85.65,2.72,2.72,0,0,1,.45.77,2.07,2.07,0,0,1,.14.68,5.28,5.28,0,0,1-.4,1.66l-6.08,17.24a11,11,0,0,1-2.32,4.18,5,5,0,0,1-3.69,1.3,3.83,3.83,0,0,1-2.48-.68,2.15,2.15,0,0,1-.83-1.73,1.93,1.93,0,0,1,.67-1.57,2.63,2.63,0,0,1,1.75-.56h.54a2.07,2.07,0,0,0,1.13-.29,2.19,2.19,0,0,0,.7-1.37l-5.47-15.59-.11-.29q-.29-.9-.41-1.33a2.94,2.94,0,0,1-.13-.83,2.38,2.38,0,0,1,.76-1.8,2.52,2.52,0,0,1,1.8-.72,2.85,2.85,0,0,1,1.75.52,2.59,2.59,0,0,1,1,1.46Z" transform="translate(-189.69 -422.09)"/>
        <path class="cls-5" d="M389.34,734.19A4.52,4.52,0,0,0,394.2,739a5.48,5.48,0,0,0,2.36-.41,7.91,7.91,0,0,0,1.71-1.17,5.77,5.77,0,0,1,1-.76,2.19,2.19,0,0,1,2.57.4,2,2,0,0,1,.63,1.4,2.91,2.91,0,0,1-.79,2,6.3,6.3,0,0,1-2.07,1.48,12.06,12.06,0,0,1-2.7.88,13.59,13.59,0,0,1-2.68.29,11.83,11.83,0,0,1-4.57-.81,8.6,8.6,0,0,1-3.17-2.18,8.8,8.8,0,0,1-1.8-3.06,10.76,10.76,0,0,1-.58-3.49,10.31,10.31,0,0,1,2.66-7.43,9.58,9.58,0,0,1,7.27-2.79,10.78,10.78,0,0,1,4,.7,8.76,8.76,0,0,1,3,1.94,8.45,8.45,0,0,1,1.87,2.77,8.3,8.3,0,0,1,.63,3.19,2.5,2.5,0,0,1-.49,1.8,2.65,2.65,0,0,1-1.82.47Zm9.22-3a4.75,4.75,0,0,0-1.46-3,4.18,4.18,0,0,0-3-1.17,4.51,4.51,0,0,0-3.13,1.1,5.6,5.6,0,0,0-1.66,3.08Z" transform="translate(-189.69 -422.09)"/>
        <path class="cls-5" d="M406.77,726.51a5.37,5.37,0,0,1,1.84-1.84,8.64,8.64,0,0,1,2.54-1,12.38,12.38,0,0,1,2.83-.32,15,15,0,0,1,3,.29,12,12,0,0,1,2.59.81,5.3,5.3,0,0,1,1.82,1.28,2.41,2.41,0,0,1,.67,1.62,2.37,2.37,0,0,1-.59,1.64,2,2,0,0,1-1.6.67,2,2,0,0,1-1-.23,7.09,7.09,0,0,1-1-.77,6.72,6.72,0,0,0-1.48-1,4.39,4.39,0,0,0-1.94-.36,5.09,5.09,0,0,0-2.23.4,1.29,1.29,0,0,0-.79,1.22A1.24,1.24,0,0,0,412,730a8.76,8.76,0,0,0,2.14.68l2.2.5a24.61,24.61,0,0,1,2.45.7,8.41,8.41,0,0,1,2,1,5.15,5.15,0,0,1,1.51,1.62,4.37,4.37,0,0,1,.58,2.27,5.39,5.39,0,0,1-.68,2.74,6,6,0,0,1-1.84,2,8.18,8.18,0,0,1-2.61,1.17,11.79,11.79,0,0,1-3,.38,15.05,15.05,0,0,1-3.35-.36,10.56,10.56,0,0,1-2.79-1,6.3,6.3,0,0,1-1.89-1.51,2.84,2.84,0,0,1-.68-1.82,2.32,2.32,0,0,1,.54-1.57,2,2,0,0,1,1.58-.63,2,2,0,0,1,1.12.31,7.94,7.94,0,0,1,1.15,1,8.27,8.27,0,0,0,1.76,1.44,4.64,4.64,0,0,0,2.34.5,4.06,4.06,0,0,0,2.21-.54,1.59,1.59,0,0,0,.85-1.37,1.3,1.3,0,0,0-.61-1.22,8.44,8.44,0,0,0-2.12-.72l-.29-.07-3.1-.76a9.58,9.58,0,0,1-4-1.87,4.61,4.61,0,0,1-1.4-3.67A5.09,5.09,0,0,1,406.77,726.51Z" transform="translate(-189.69 -422.09)"/>
      </g>
    </g>
    <g id="everynow">
      <rect class="cls-2" x="312.68" y="95.99" width="224.89" height="98" rx="20" ry="20"/>
      <path class="cls-3" d="M529.15,526.46c-13-.54-21,6.24-21,21.82l7.09,1.7s-1.13-16.15,11.05-16.44C527.17,533.83,529.15,526.46,529.15,526.46Z" transform="translate(-189.69 -422.09)"/>
      <path class="cls-4" d="M723.07,580.48l-8.5,2.13c-.15,16.07-5.17,19.18-16.62,19.71l-5.17,9.06C711,612.45,722.55,603.18,723.07,580.48Z" transform="translate(-189.69 -422.09)"/>
      <g>
        <path class="cls-5" d="M529.66,541.77a3.34,3.34,0,0,1,.86-2.59,3.63,3.63,0,0,1,2.5-.77h13.47a3.84,3.84,0,0,1,2.15.51,2.51,2.51,0,0,1,0,3.59,3.73,3.73,0,0,1-2.15.53H535.4v5.46h9.73a3.56,3.56,0,0,1,2,.47,2.43,2.43,0,0,1,0,3.45,3.46,3.46,0,0,1-2,.49H535.4V559h11.38a3.83,3.83,0,0,1,2.15.51,2.51,2.51,0,0,1,0,3.59,3.73,3.73,0,0,1-2.15.53H533a3.63,3.63,0,0,1-2.5-.77,3.34,3.34,0,0,1-.86-2.59Z" transform="translate(-189.69 -422.09)"/>
        <path class="cls-5" d="M551.39,548.8a7.19,7.19,0,0,1-.23-.73,2.43,2.43,0,0,1-.09-.56,2.57,2.57,0,0,1,.73-2,2.48,2.48,0,0,1,1.75-.68,2.57,2.57,0,0,1,1.15.24,2.39,2.39,0,0,1,.77.58,2.53,2.53,0,0,1,.42.68,5.18,5.18,0,0,1,.21.63l3.43,11.55h.07L563,547a4.29,4.29,0,0,1,.21-.61,2.68,2.68,0,0,1,.44-.68,2.52,2.52,0,0,1,.77-.6,2.65,2.65,0,0,1,2.89.44,2.57,2.57,0,0,1,.73,2,2.45,2.45,0,0,1-.09.56,7.44,7.44,0,0,1-.23.73l-4.83,13.44a2.66,2.66,0,0,1-1,1.47,8.37,8.37,0,0,1-4.79,0,2.65,2.65,0,0,1-1-1.47Z" transform="translate(-189.69 -422.09)"/>
        <path class="cls-5" d="M574.7,555.42a4.4,4.4,0,0,0,4.73,4.66,5.31,5.31,0,0,0,2.29-.4,7.68,7.68,0,0,0,1.66-1.14,5.58,5.58,0,0,1,.95-.74,2.13,2.13,0,0,1,2.5.39,1.93,1.93,0,0,1,.61,1.36,2.83,2.83,0,0,1-.77,1.94,6.13,6.13,0,0,1-2,1.44,11.74,11.74,0,0,1-2.62.86,13.18,13.18,0,0,1-2.61.28,11.5,11.5,0,0,1-4.45-.79,8.37,8.37,0,0,1-3.08-2.12,8.56,8.56,0,0,1-1.75-3,10.46,10.46,0,0,1-.56-3.4,10,10,0,0,1,2.59-7.23,9.31,9.31,0,0,1,7.07-2.71,10.47,10.47,0,0,1,3.87.68,8.5,8.5,0,0,1,2.94,1.89,8.21,8.21,0,0,1,1.82,2.69,8.07,8.07,0,0,1,.61,3.1A2.43,2.43,0,0,1,588,555a2.57,2.57,0,0,1-1.77.46Zm9-2.94a4.62,4.62,0,0,0-1.42-2.92,4.07,4.07,0,0,0-2.89-1.14,4.39,4.39,0,0,0-3,1.07,5.44,5.44,0,0,0-1.61,3Z" transform="translate(-189.69 -422.09)"/>
        <path class="cls-5" d="M592.06,547.23a2.33,2.33,0,0,1,.65-1.75,2.51,2.51,0,0,1,3.33,0,2.33,2.33,0,0,1,.65,1.75v2h.07a8.45,8.45,0,0,1,1.52-3.12,3.31,3.31,0,0,1,2.71-1.22,2.92,2.92,0,0,1,2,.7,2.29,2.29,0,0,1,.79,1.79,2.42,2.42,0,0,1-.72,1.94,2.68,2.68,0,0,1-1.8.61h-.91a2.62,2.62,0,0,0-2.4,1.3,8.9,8.9,0,0,0-.79,4.38v5.95a2.82,2.82,0,0,1-.58,1.86,3.14,3.14,0,0,1-4,0,2.82,2.82,0,0,1-.58-1.86Z" transform="translate(-189.69 -422.09)"/>
        <path class="cls-5" d="M612.82,558.71h.07L616,547.12a3.7,3.7,0,0,1,.88-1.66,2.1,2.1,0,0,1,1.58-.61,2.71,2.71,0,0,1,1.23.26,2.46,2.46,0,0,1,.82.63,2.63,2.63,0,0,1,.44.75,2,2,0,0,1,.14.67,5.14,5.14,0,0,1-.39,1.61l-5.92,16.76a10.65,10.65,0,0,1-2.26,4.06,4.89,4.89,0,0,1-3.59,1.26,3.73,3.73,0,0,1-2.42-.67,2.09,2.09,0,0,1-.81-1.68,1.88,1.88,0,0,1,.65-1.52,2.56,2.56,0,0,1,1.7-.54h.52a2,2,0,0,0,1.1-.28,2.12,2.12,0,0,0,.68-1.33L605,549.67l-.1-.28c-.19-.58-.32-1-.4-1.29a2.86,2.86,0,0,1-.12-.81,2.32,2.32,0,0,1,.73-1.75,2.45,2.45,0,0,1,1.75-.7,2.77,2.77,0,0,1,1.7.51,2.52,2.52,0,0,1,.93,1.42Z" transform="translate(-189.69 -422.09)"/>
        <path class="cls-5" d="M634.24,547.4a2.81,2.81,0,0,1,.58-1.87,2.54,2.54,0,0,1,3.46,0,2.81,2.81,0,0,1,.58,1.87v.67h.07a9,9,0,0,1,2.68-2.38,7,7,0,0,1,3.52-.84,8.38,8.38,0,0,1,2.36.33,5.57,5.57,0,0,1,2.06,1.12,5.4,5.4,0,0,1,1.47,2.1,8.29,8.29,0,0,1,.54,3.17v9.94a2.82,2.82,0,0,1-.58,1.86,3.14,3.14,0,0,1-4,0,2.82,2.82,0,0,1-.58-1.86v-8.92a3.88,3.88,0,0,0-.81-2.57,3,3,0,0,0-2.42-1,3.88,3.88,0,0,0-2.68,1.1,3.77,3.77,0,0,0-1.21,2.92v8.43a2.82,2.82,0,0,1-.58,1.86,3.14,3.14,0,0,1-4,0,2.82,2.82,0,0,1-.58-1.86Z" transform="translate(-189.69 -422.09)"/>
        <path class="cls-5" d="M655.46,550.64a8.69,8.69,0,0,1,1.8-3,10.33,10.33,0,0,1,14.07,0,8.71,8.71,0,0,1,1.8,3,11.33,11.33,0,0,1,.61,3.8,12.79,12.79,0,0,1-.53,3.73,8.51,8.51,0,0,1-1.63,3,7.57,7.57,0,0,1-2.94,2.08,12.79,12.79,0,0,1-8.7,0,7.5,7.5,0,0,1-2.94-2.08,8.54,8.54,0,0,1-1.65-3.06,12.79,12.79,0,0,1-.53-3.73A11.31,11.31,0,0,1,655.46,550.64Zm5.58,8a4,4,0,0,0,6.51,0,7.51,7.51,0,0,0,1.08-4.18,7.27,7.27,0,0,0-1.1-4.22,4.09,4.09,0,0,0-6.47,0,7.27,7.27,0,0,0-1.1,4.22A7.5,7.5,0,0,0,661,558.62Z" transform="translate(-189.69 -422.09)"/>
        <path class="cls-5" d="M675.61,549.12a6.53,6.53,0,0,1-.35-1.89,2.22,2.22,0,0,1,.75-1.68,2.47,2.47,0,0,1,1.73-.7,2.14,2.14,0,0,1,1.75.58,5.07,5.07,0,0,1,.77,1.91l2.69,11.2H683l2.17-10.18a7.14,7.14,0,0,1,1-2.66,2.58,2.58,0,0,1,2.22-.84,2.79,2.79,0,0,1,2.31.84,6.54,6.54,0,0,1,1.05,2.66L694,558.53h.07l2.52-11.2a4.57,4.57,0,0,1,.75-1.91,2.2,2.2,0,0,1,1.77-.58,2.47,2.47,0,0,1,1.73.7,2.22,2.22,0,0,1,.75,1.68,6.55,6.55,0,0,1-.35,1.89l-3.74,12.18a4.65,4.65,0,0,1-1.16,2.28,3.63,3.63,0,0,1-2.17.49,3.27,3.27,0,0,1-2.17-.54,4.49,4.49,0,0,1-1-2.12l-2.52-10h-.07l-2.52,10a4.5,4.5,0,0,1-1,2.12,3.27,3.27,0,0,1-2.17.54,3.54,3.54,0,0,1-2.15-.49,5,5,0,0,1-1.17-2.28Z" transform="translate(-189.69 -422.09)"/>
        <path class="cls-5" d="M546.56,594.67a8,8,0,0,0,.1,1.44q.11.56.25,1.12a3.16,3.16,0,0,1,.17.88,1.74,1.74,0,0,1-.68,1.4,2.49,2.49,0,0,1-1.63.56,2.79,2.79,0,0,1-2.24-.82,3.5,3.5,0,0,1-.77-2.15,8.75,8.75,0,0,1-3.15,2.28,10.11,10.11,0,0,1-3.85.7,6.1,6.1,0,0,1-4-1.45,4.68,4.68,0,0,1-1.73-3.76,5.7,5.7,0,0,1,.54-2.61,4.47,4.47,0,0,1,1.5-1.71,7.89,7.89,0,0,1,2.24-1,17.26,17.26,0,0,1,2.85-.54l3.11-.35a4,4,0,0,0,1.65-.51,1.53,1.53,0,0,0,.56-1.38,1.71,1.71,0,0,0-.91-1.58,4.57,4.57,0,0,0-2.31-.53,4.81,4.81,0,0,0-2.27.46,7.91,7.91,0,0,0-1.68,1.26,5.9,5.9,0,0,1-1,.82,1.81,1.81,0,0,1-1,.26,2.18,2.18,0,0,1-1.56-.58,1.83,1.83,0,0,1-.61-1.38,2.9,2.9,0,0,1,.54-1.59,5.36,5.36,0,0,1,1.59-1.5,9.16,9.16,0,0,1,2.57-1.1,12.82,12.82,0,0,1,3.41-.42,12.08,12.08,0,0,1,6.07,1.29,4.27,4.27,0,0,1,2.22,4ZM541.45,591a2.43,2.43,0,0,1-.89.49,10.59,10.59,0,0,1-1.28.31h0l-1.85.28a5.78,5.78,0,0,0-2.48.82,2,2,0,0,0-.81,1.7,1.84,1.84,0,0,0,.77,1.49,3.22,3.22,0,0,0,2.06.61,4.75,4.75,0,0,0,3.27-1.1,3.38,3.38,0,0,0,1.24-2.61Z" transform="translate(-189.69 -422.09)"/>
        <path class="cls-5" d="M551,583.4a2.81,2.81,0,0,1,.58-1.87,2.54,2.54,0,0,1,3.46,0,2.81,2.81,0,0,1,.58,1.87v.67h.07a9,9,0,0,1,2.68-2.38,7,7,0,0,1,3.52-.84,8.38,8.38,0,0,1,2.36.33,5.57,5.57,0,0,1,2.06,1.12,5.4,5.4,0,0,1,1.47,2.1,8.29,8.29,0,0,1,.54,3.17v9.94a2.82,2.82,0,0,1-.58,1.86,3.14,3.14,0,0,1-4,0,2.82,2.82,0,0,1-.58-1.86v-8.92a3.88,3.88,0,0,0-.81-2.57,3,3,0,0,0-2.42-1,3.88,3.88,0,0,0-2.68,1.1,3.77,3.77,0,0,0-1.21,2.92v8.43a2.82,2.82,0,0,1-.58,1.86,3.14,3.14,0,0,1-4,0,2.82,2.82,0,0,1-.58-1.86Z" transform="translate(-189.69 -422.09)"/>
        <path class="cls-5" d="M589.68,597.65q0,2.41-2.31,2.42t-2.31-2.42v-.81H585a4.52,4.52,0,0,1-2,2.4,6.64,6.64,0,0,1-3.36.82,8,8,0,0,1-3.08-.6,7.15,7.15,0,0,1-2.55-1.82,8.6,8.6,0,0,1-1.75-3.06,13.11,13.11,0,0,1-.63-4.25,12.85,12.85,0,0,1,.49-3.59,9.49,9.49,0,0,1,1.47-3,7,7,0,0,1,2.47-2.1,7.4,7.4,0,0,1,3.45-.77,6.43,6.43,0,0,1,3,.66,5.13,5.13,0,0,1,2.06,1.93h.07V576.5a2.52,2.52,0,0,1,.68-1.89,3,3,0,0,1,3.74,0,2.52,2.52,0,0,1,.68,1.89Zm-11.94-3.19a3.48,3.48,0,0,0,3,1.61,3.41,3.41,0,0,0,3.1-1.58,7.33,7.33,0,0,0,1-4,9.9,9.9,0,0,0-.21-2,6.2,6.2,0,0,0-.68-1.82,3.52,3.52,0,0,0-3.2-1.8,3.5,3.5,0,0,0-2,.53,3.71,3.71,0,0,0-1.26,1.37,6.36,6.36,0,0,0-.65,1.82,10.15,10.15,0,0,0-.19,2A7,7,0,0,0,577.75,594.46Z" transform="translate(-189.69 -422.09)"/>
        <path class="cls-5" d="M605.78,584.66h-.87q-2,0-2-1.68t2-1.68h.88v-3.11a2.52,2.52,0,0,1,.68-1.89,3,3,0,0,1,3.75,0,2.52,2.52,0,0,1,.68,1.89v3.11h1.54q2.31,0,2.31,1.68t-2.31,1.68h-1.54v10.22q0,1.19,1.33,1.19H613q1.78,0,1.78,1.71,0,2.28-3.71,2.28a5.84,5.84,0,0,1-4-1.14,4.36,4.36,0,0,1-1.26-3.41Z" transform="translate(-189.69 -422.09)"/>
        <path class="cls-5" d="M617.4,576.5a2.52,2.52,0,0,1,.68-1.89,3,3,0,0,1,3.75,0,2.52,2.52,0,0,1,.68,1.89v7h.07a6.82,6.82,0,0,1,5.71-2.69,8.38,8.38,0,0,1,2.36.33,5.57,5.57,0,0,1,2.06,1.12,5.4,5.4,0,0,1,1.47,2.1,8.29,8.29,0,0,1,.54,3.17v9.94a2.82,2.82,0,0,1-.58,1.86,3.14,3.14,0,0,1-4,0,2.82,2.82,0,0,1-.58-1.86v-8.92a3.88,3.88,0,0,0-.81-2.57,3,3,0,0,0-2.42-1,3.88,3.88,0,0,0-2.68,1.1,3.77,3.77,0,0,0-1.21,2.92v8.43a2.82,2.82,0,0,1-.58,1.86,3.14,3.14,0,0,1-4,0,2.82,2.82,0,0,1-.58-1.86Z" transform="translate(-189.69 -422.09)"/>
        <path class="cls-5" d="M643.13,591.42a4.4,4.4,0,0,0,4.73,4.66,5.31,5.31,0,0,0,2.29-.4,7.68,7.68,0,0,0,1.66-1.14,5.58,5.58,0,0,1,.95-.74,2.13,2.13,0,0,1,2.5.39,1.93,1.93,0,0,1,.61,1.36,2.83,2.83,0,0,1-.77,1.94,6.13,6.13,0,0,1-2,1.44,11.74,11.74,0,0,1-2.62.86,13.18,13.18,0,0,1-2.61.28,11.5,11.5,0,0,1-4.45-.79,8.37,8.37,0,0,1-3.08-2.12,8.56,8.56,0,0,1-1.75-3,10.46,10.46,0,0,1-.56-3.4,10,10,0,0,1,2.59-7.23,9.31,9.31,0,0,1,7.07-2.71,10.47,10.47,0,0,1,3.87.68,8.5,8.5,0,0,1,2.94,1.89,8.21,8.21,0,0,1,1.82,2.69,8.07,8.07,0,0,1,.61,3.1,2.43,2.43,0,0,1-.47,1.75,2.57,2.57,0,0,1-1.77.46Zm9-2.94a4.62,4.62,0,0,0-1.42-2.92,4.07,4.07,0,0,0-2.89-1.14,4.39,4.39,0,0,0-3,1.07,5.44,5.44,0,0,0-1.61,3Z" transform="translate(-189.69 -422.09)"/>
        <path class="cls-5" d="M660.21,583.4a2.81,2.81,0,0,1,.58-1.87,2.54,2.54,0,0,1,3.46,0,2.81,2.81,0,0,1,.58,1.87v.67h.07a9,9,0,0,1,2.68-2.38,7,7,0,0,1,3.52-.84,8.38,8.38,0,0,1,2.36.33,5.57,5.57,0,0,1,2.06,1.12,5.4,5.4,0,0,1,1.47,2.1,8.29,8.29,0,0,1,.54,3.17v9.94a2.82,2.82,0,0,1-.58,1.86,3.14,3.14,0,0,1-4,0,2.82,2.82,0,0,1-.58-1.86v-8.92a3.88,3.88,0,0,0-.81-2.57,3,3,0,0,0-2.42-1,3.88,3.88,0,0,0-2.68,1.1,3.77,3.77,0,0,0-1.21,2.92v8.43a2.82,2.82,0,0,1-.58,1.86,3.14,3.14,0,0,1-4,0,2.82,2.82,0,0,1-.58-1.86Z" transform="translate(-189.69 -422.09)"/>
        <path class="cls-5" d="M692.93,576.82a3,3,0,0,1,5-2.08,2.85,2.85,0,0,1,.77,2.08v20.37a2.85,2.85,0,0,1-.77,2.08,2.88,2.88,0,0,1-5-2.08Z" transform="translate(-189.69 -422.09)"/>
      </g>
    </g>
    <g id="turnaround">
      <rect class="cls-2" x="2" y="2" width="265.17" height="191.01" rx="20" ry="20"/>
      <path class="cls-3" d="M234.5,432.5c-22.87-1-37,11-37,38.5l12.5,3s-2-28.5,19.5-29C231,445.5,234.5,432.5,234.5,432.5Z" transform="translate(-189.69 -422.09)"/>
      <path class="cls-4" d="M452.5,582,441,584c-.21,15.08-7,18-22.5,18.5l-7,8.5C436.11,612,451.8,603.31,452.5,582Z" transform="translate(-189.69 -422.09)"/>
      <g>
        <path class="cls-5" d="M245.33,469.58a5.53,5.53,0,0,1-4.23-1.5,5.71,5.71,0,0,1-1.41-4.08,5.49,5.49,0,0,1,1.5-4.11,6.38,6.38,0,0,1,4.62-1.47h29.52a6.36,6.36,0,0,1,4.65,1.47,5.56,5.56,0,0,1,1.47,4.11,5.72,5.72,0,0,1-1.41,4.08,5.54,5.54,0,0,1-4.23,1.5h-8.34V495a7.66,7.66,0,0,1-1.86,5.46,7.4,7.4,0,0,1-10.08,0,7.66,7.66,0,0,1-1.86-5.46V469.58Z" transform="translate(-189.69 -422.09)"/>
        <path class="cls-5" d="M302.33,475.58A5.92,5.92,0,0,1,304,471a7.27,7.27,0,0,1,9,0,5.92,5.92,0,0,1,1.68,4.56v20.94q0,5.88-5.94,5.88a4.91,4.91,0,0,1-3.9-1.44,8.06,8.06,0,0,1-1.62-4.38h-.12q-3.18,5.82-10.2,5.82-6.12,0-9.09-3.33a12.71,12.71,0,0,1-3-8.79v-14.7a5.92,5.92,0,0,1,1.68-4.56,7.27,7.27,0,0,1,9,0,5.92,5.92,0,0,1,1.68,4.56V487.4q0,5.28,4.56,5.28a3.9,3.9,0,0,0,3.39-1.65,7.59,7.59,0,0,0,1.17-4.47Z" transform="translate(-189.69 -422.09)"/>
        <path class="cls-5" d="M320.81,475.58A6.11,6.11,0,0,1,322.4,471a5.47,5.47,0,0,1,4-1.56,5.37,5.37,0,0,1,4,1.53q1.5,1.53,1.5,4.83v2.4H332a20.74,20.74,0,0,1,3.54-6.6,5.85,5.85,0,0,1,4.5-2.16,4.4,4.4,0,0,1,3.84,1.68,6.74,6.74,0,0,1,1.2,4q0,4.68-3.36,5.52l-3.36.84a8,8,0,0,0-4,2,5.93,5.93,0,0,0-1.26,4.2v8.58a5.92,5.92,0,0,1-1.68,4.56,7.27,7.27,0,0,1-9,0,5.92,5.92,0,0,1-1.68-4.56Z" transform="translate(-189.69 -422.09)"/>
        <path class="cls-5" d="M371.15,484.46q0-5.28-4.56-5.28a3.92,3.92,0,0,0-3.39,1.62,7.57,7.57,0,0,0-1.17,4.5v11a5.92,5.92,0,0,1-1.68,4.56,7.27,7.27,0,0,1-9,0,5.92,5.92,0,0,1-1.68-4.56V475.34q0-5.88,5.94-5.88a5,5,0,0,1,3.93,1.44,7.62,7.62,0,0,1,1.59,4.38h.12q3.18-5.82,10.2-5.82,6.12,0,9.09,3.33a12.71,12.71,0,0,1,3,8.79v14.7a5.92,5.92,0,0,1-1.68,4.56,7.27,7.27,0,0,1-9,0,5.92,5.92,0,0,1-1.68-4.56Z" transform="translate(-189.69 -422.09)"/>
        <path class="cls-5" d="M245.88,564.44q0,1.14.18,3.3a22.24,22.24,0,0,1,.18,2.28,3.67,3.67,0,0,1-1.68,3.27,7.24,7.24,0,0,1-4.08,1.11,6.41,6.41,0,0,1-4.44-1.32,6,6,0,0,1-1.8-3.66,9.76,9.76,0,0,1-4.65,3.78,16.9,16.9,0,0,1-6.39,1.2q-5.4,0-8.55-2.37t-3.15-7.35a8.53,8.53,0,0,1,.78-3.69,7.87,7.87,0,0,1,2.61-3,14.86,14.86,0,0,1,4.92-2.13,41.31,41.31,0,0,1,7.59-1.11,16,16,0,0,0,5-.9,2.23,2.23,0,0,0,1.44-2.16q0-3.06-5-3.06a7.8,7.8,0,0,0-3.15.57,17.42,17.42,0,0,0-3,1.77,18.23,18.23,0,0,1-2.37,1.44,5.22,5.22,0,0,1-2.31.48q-3.9,0-3.9-3.84,0-3.42,4.26-5.52a24.4,24.4,0,0,1,10.8-2.1,41.17,41.17,0,0,1,5.64.39,22.37,22.37,0,0,1,5.34,1.41,10.36,10.36,0,0,1,4.08,2.85,6.83,6.83,0,0,1,1.56,4.59Zm-12-4.92a4,4,0,0,1-1.89,1.11,27.56,27.56,0,0,1-3,.63,18,18,0,0,0-3.06.66,2.52,2.52,0,0,0-1.68,2.58,2.67,2.67,0,0,0,1.11,2.19,4.19,4.19,0,0,0,2.67.87,6.46,6.46,0,0,0,4.23-1.35,4,4,0,0,0,1.65-3.15Z" transform="translate(-189.69 -422.09)"/>
        <path class="cls-5" d="M252,547.58a6.11,6.11,0,0,1,1.59-4.56,5.47,5.47,0,0,1,4-1.56,5.37,5.37,0,0,1,4,1.53q1.5,1.53,1.5,4.83v2.4h.12a20.73,20.73,0,0,1,3.54-6.6,5.85,5.85,0,0,1,4.5-2.16,4.4,4.4,0,0,1,3.84,1.68,6.74,6.74,0,0,1,1.2,4q0,4.68-3.36,5.52l-3.36.84a8,8,0,0,0-4,2,5.92,5.92,0,0,0-1.26,4.2v8.58a5.92,5.92,0,0,1-1.68,4.56,7.27,7.27,0,0,1-9,0,5.92,5.92,0,0,1-1.68-4.56Z" transform="translate(-189.69 -422.09)"/>
        <path class="cls-5" d="M280.44,550.64a13.61,13.61,0,0,1,3.72-5.16,15.73,15.73,0,0,1,5.58-3,25,25,0,0,1,13.92,0,15.74,15.74,0,0,1,5.58,3,13.63,13.63,0,0,1,3.72,5.16,20.79,20.79,0,0,1,0,14.58,13.61,13.61,0,0,1-3.72,5.16,15.73,15.73,0,0,1-5.58,3,25,25,0,0,1-13.92,0,15.72,15.72,0,0,1-5.58-3,13.59,13.59,0,0,1-3.72-5.16,20.79,20.79,0,0,1,0-14.58Zm20.13,1.2a4.62,4.62,0,0,0-7.74,0q-1.35,2.1-1.35,6.42,0,7.86,5.22,7.86t5.22-7.86Q301.92,553.94,300.56,551.84Z" transform="translate(-189.69 -422.09)"/>
        <path class="cls-5" d="M341.21,547.58a5.92,5.92,0,0,1,1.68-4.56,7.27,7.27,0,0,1,9,0,5.93,5.93,0,0,1,1.68,4.56v20.94q0,5.88-5.94,5.88a4.91,4.91,0,0,1-3.9-1.44,8.06,8.06,0,0,1-1.62-4.38H342q-3.18,5.82-10.2,5.82-6.12,0-9.09-3.33a12.71,12.71,0,0,1-3-8.79v-14.7a5.92,5.92,0,0,1,1.68-4.56,7.27,7.27,0,0,1,9,0,5.93,5.93,0,0,1,1.68,4.56V559.4q0,5.28,4.56,5.28A3.9,3.9,0,0,0,340,563a7.6,7.6,0,0,0,1.17-4.47Z" transform="translate(-189.69 -422.09)"/>
        <path class="cls-5" d="M381.17,556.46q0-5.28-4.56-5.28a3.92,3.92,0,0,0-3.39,1.62,7.57,7.57,0,0,0-1.17,4.5v11a5.92,5.92,0,0,1-1.68,4.56,7.27,7.27,0,0,1-9,0,5.92,5.92,0,0,1-1.68-4.56V547.34q0-5.88,5.94-5.88a5,5,0,0,1,3.93,1.44,7.63,7.63,0,0,1,1.59,4.38h.12q3.18-5.82,10.2-5.82,6.12,0,9.09,3.33a12.71,12.71,0,0,1,3,8.79v14.7a5.92,5.92,0,0,1-1.68,4.56,7.27,7.27,0,0,1-9,0,5.92,5.92,0,0,1-1.68-4.56Z" transform="translate(-189.69 -422.09)"/>
        <path class="cls-5" d="M421.49,535.82a6.33,6.33,0,0,1,1.53-4.65,7.3,7.3,0,0,1,8.94,0,6.33,6.33,0,0,1,1.53,4.65V568.4q0,6-5.52,6a5.05,5.05,0,0,1-4-1.59,5.87,5.87,0,0,1-1.41-4h-.12a6.44,6.44,0,0,1-3.54,4.2,13.55,13.55,0,0,1-16.14-3Q399,565.46,399,557.84a21.26,21.26,0,0,1,.72-5.31,18.11,18.11,0,0,1,2.37-5.34,13.07,13.07,0,0,1,4.29-4.14,12,12,0,0,1,6.3-1.59,10,10,0,0,1,5.1,1.26,10.5,10.5,0,0,1,3.6,3.54h.12ZM420.35,553a4.06,4.06,0,0,0-3.42-1.8,4.72,4.72,0,0,0-4.26,2,9.06,9.06,0,0,0-1.32,5.07,12.16,12.16,0,0,0,.27,2.61,8,8,0,0,0,.87,2.28,4.34,4.34,0,0,0,1.65,1.65,5.06,5.06,0,0,0,2.55.6,4.1,4.1,0,0,0,3.78-2,10.53,10.53,0,0,0,1.2-5.46A8.28,8.28,0,0,0,420.35,553Z" transform="translate(-189.69 -422.09)"/>
      </g>
    </g>
  </g>
</svg>
