<svg xmlns="http://www.w3.org/2000/svg" width="1346.33" height="551.93" viewBox="0 0 1346.33 551.93">
  <defs>
    <style>
      .cls-1 {
        fill: none;
      }

      .cls-1, .cls-2, .cls-7 {
        stroke: #000;
        stroke-miterlimit: 10;
      }

      .cls-1, .cls-7 {
        stroke-width: 3px;
      }

      .cls-2 {
        fill: #4d4d4d;
        stroke-width: 4px;
      }

      .cls-3 {
        fill: #666;
      }

      .cls-4 {
        fill: #333;
      }

      .cls-5 {
        fill: gray;
      }

      .cls-6 {
        fill: #b3b3b3;
      }

      .cls-7 {
        fill: #ccc;
      }
    </style>
  </defs>
  <title>flowchart4</title>
  <g id="arrowpaths">
    <g>
      <path class="cls-1" d="M344.41,173H486.89c9.44.88,15.14,5.52,15.11,15.91v17.18" transform="translate(-77.24 -76.61)"/>
      <polygon points="413.65 121.05 424.76 125.77 435.87 121.05 424.76 147.39 413.65 121.05"/>
    </g>
    <g>
      <path class="cls-1" d="M331,442h98.58c13,0,22-7.86,22-25.53V343.91" transform="translate(-77.24 -76.61)"/>
      <polygon points="385.42 275.72 374.31 271 363.2 275.72 374.31 249.39 385.42 275.72"/>
    </g>
    <g id="turnaround2brighteyes">
      <g>
        <line class="cls-1" x1="133.08" y1="247.46" x2="133.08" y2="312.98"/>
        <polygon points="121.97 304.55 133.08 309.27 144.19 304.55 133.08 330.89 121.97 304.55"/>
      </g>
    </g>
    <g>
      <line class="cls-1" x1="435.5" y1="249.39" x2="435.5" y2="466.14"/>
      <polygon points="424.39 457.72 435.5 462.44 446.61 457.72 435.5 484.05 424.39 457.72"/>
    </g>
    <g>
      <line class="cls-1" x1="537.58" y1="190.51" x2="595.54" y2="190.51"/>
      <polygon points="587.11 201.62 591.83 190.51 587.11 179.4 613.45 190.51 587.11 201.62"/>
    </g>
    <g>
      <path class="cls-1" d="M734.15,300.54v40.61c0,10.05,3,16.83,12.68,16.83h17.87" transform="translate(-77.24 -76.61)"/>
      <polygon points="679.03 292.48 683.75 281.37 679.03 270.26 705.36 281.37 679.03 292.48"/>
    </g>
    <g>
      <path class="cls-1" d="M1363.1,358h39a20.06,20.06,0,0,0,20-20V98.11a20.06,20.06,0,0,0-20-20H231.82a20.1,20.1,0,0,0-20,20l0,16.07" transform="translate(-77.24 -76.61)"/>
      <polygon points="123.43 29.12 134.53 33.86 145.65 29.16 134.5 55.48 123.43 29.12"/>
    </g>
  </g>
  <g id="screens">
    <g id="brighteyes">
      <rect class="cls-2" x="12.42" y="332.83" width="241.31" height="59.63" rx="20" ry="20"/>
      <path class="cls-3" d="M116.45,413.48c-13-.54-21,6.24-21,21.82l7.09,1.7s-1.13-16.15,11.05-16.44C114.46,420.85,116.45,413.48,116.45,413.48Z" transform="translate(-77.24 -76.61)"/>
      <path class="cls-4" d="M326.47,442l-9.12,1.59c-.16,12-5.55,14.27-17.84,14.66L294,465C313.48,465.81,325.92,458.92,326.47,442Z" transform="translate(-77.24 -76.61)"/>
      <g>
        <path class="cls-5" d="M114.5,428.15a3.44,3.44,0,0,1,.88-2.66,3.73,3.73,0,0,1,2.57-.79h7.85a21,21,0,0,1,3.46.27,9.85,9.85,0,0,1,3,1,5.65,5.65,0,0,1,2.2,2.05,6.32,6.32,0,0,1,.83,3.38,5.52,5.52,0,0,1-.94,3.13,5.75,5.75,0,0,1-2.7,2.12v.07a6.06,6.06,0,0,1,3.35,2.11,6.55,6.55,0,0,1,1.19,4.12,7.53,7.53,0,0,1-.74,3.44,6.44,6.44,0,0,1-2.07,2.39,9.39,9.39,0,0,1-3,1.39,14.43,14.43,0,0,1-3.69.45H118a3.73,3.73,0,0,1-2.57-.79,3.44,3.44,0,0,1-.88-2.66Zm5.9,7.2h4.86q4.1,0,4.1-3.17a2.63,2.63,0,0,0-1.19-2.45,5.91,5.91,0,0,0-3.1-.72h-4.68Zm0,10.73h5a10.82,10.82,0,0,0,1.82-.14,5.3,5.3,0,0,0,1.55-.5,2.75,2.75,0,0,0,1.12-1,3.37,3.37,0,0,0,.41-1.76,3.42,3.42,0,0,0-.45-1.84,2.82,2.82,0,0,0-1.22-1.08,6,6,0,0,0-1.75-.49,17.22,17.22,0,0,0-2.2-.13h-4.25Z" transform="translate(-77.24 -76.61)"/>
        <path class="cls-5" d="M140.13,433.77a2.39,2.39,0,0,1,.67-1.8,2.58,2.58,0,0,1,3.42,0,2.4,2.4,0,0,1,.67,1.8v2H145a8.69,8.69,0,0,1,1.57-3.2,3.41,3.41,0,0,1,2.79-1.26,3,3,0,0,1,2.07.72,2.35,2.35,0,0,1,.81,1.84,2.49,2.49,0,0,1-.74,2,2.76,2.76,0,0,1-1.85.63h-.94a2.69,2.69,0,0,0-2.47,1.33,9.15,9.15,0,0,0-.81,4.5v6.12a2.9,2.9,0,0,1-.59,1.91,3.23,3.23,0,0,1-4.07,0,2.9,2.9,0,0,1-.59-1.91Z" transform="translate(-77.24 -76.61)"/>
        <path class="cls-5" d="M155.47,424.88a2.78,2.78,0,1,1-.79,1.94A2.64,2.64,0,0,1,155.47,424.88Zm-.68,9.07a2.9,2.9,0,0,1,.59-1.91,3.23,3.23,0,0,1,4.07,0,2.9,2.9,0,0,1,.59,1.91v14.51a2.9,2.9,0,0,1-.59,1.91,3.23,3.23,0,0,1-4.07,0,2.9,2.9,0,0,1-.59-1.91Z" transform="translate(-77.24 -76.61)"/>
        <path class="cls-5" d="M182.33,449.07q0,4.57-2.54,6.91a9.67,9.67,0,0,1-6.82,2.34A13.15,13.15,0,0,1,170,458a10.69,10.69,0,0,1-2.54-.9,5.58,5.58,0,0,1-1.78-1.39A2.7,2.7,0,0,1,165,454a2.15,2.15,0,0,1,.65-1.58,2.07,2.07,0,0,1,1.51-.65,2.25,2.25,0,0,1,1.17.29,7.85,7.85,0,0,1,1.17.9,8.2,8.2,0,0,0,1.51,1.13,3.54,3.54,0,0,0,1.73.38,4.13,4.13,0,0,0,3.46-1.33,7.28,7.28,0,0,0,1-4.43v-1.08h-.07a5.73,5.73,0,0,1-2.14,1.78,6.29,6.29,0,0,1-2.93.74,8,8,0,0,1-6.25-2.39,9.13,9.13,0,0,1-2.18-6.39q0-4.86,2.45-7.56a7.19,7.19,0,0,1,2.61-1.84,8.32,8.32,0,0,1,3.19-.61,6.69,6.69,0,0,1,3.37.83,5.25,5.25,0,0,1,2.18,2.3h.07v-.65q0-2.48,2.38-2.48t2.38,2.48ZM170,444.71a3.55,3.55,0,0,0,3.13,1.51,3.77,3.77,0,0,0,3-1.31,6,6,0,0,0,1.13-4,7,7,0,0,0-1-4.16,3.38,3.38,0,0,0-2.88-1.35A3.79,3.79,0,0,0,170,437a7.45,7.45,0,0,0-1,4.19A6.11,6.11,0,0,0,170,444.71Z" transform="translate(-77.24 -76.61)"/>
        <path class="cls-5" d="M186.5,426.86a2.59,2.59,0,0,1,.7-1.94,3.05,3.05,0,0,1,3.85,0,2.59,2.59,0,0,1,.7,1.94v7.24h.07a7,7,0,0,1,5.87-2.77,8.63,8.63,0,0,1,2.43.34,5.75,5.75,0,0,1,2.12,1.15,5.56,5.56,0,0,1,1.51,2.16,8.53,8.53,0,0,1,.56,3.26v10.22a2.9,2.9,0,0,1-.59,1.91,3.23,3.23,0,0,1-4.07,0,2.9,2.9,0,0,1-.59-1.91v-9.18a4,4,0,0,0-.83-2.65,3.06,3.06,0,0,0-2.48-1,4,4,0,0,0-2.75,1.13,3.87,3.87,0,0,0-1.24,3v8.68a2.9,2.9,0,0,1-.59,1.91,3.23,3.23,0,0,1-4.07,0,2.9,2.9,0,0,1-.59-1.91Z" transform="translate(-77.24 -76.61)"/>
        <path class="cls-5" d="M209.87,435.25H209q-2.09,0-2.09-1.73t2.09-1.73h.9v-3.2a2.59,2.59,0,0,1,.7-1.94,3.05,3.05,0,0,1,3.85,0,2.59,2.59,0,0,1,.7,1.94v3.2h1.58q2.38,0,2.38,1.73t-2.38,1.73h-1.58v10.51q0,1.22,1.37,1.22h.76q1.84,0,1.84,1.76,0,2.34-3.82,2.34a6,6,0,0,1-4.1-1.17,4.49,4.49,0,0,1-1.3-3.51Z" transform="translate(-77.24 -76.61)"/>
        <path class="cls-5" d="M237.3,442.19a4.52,4.52,0,0,0,4.86,4.79,5.47,5.47,0,0,0,2.36-.41,7.9,7.9,0,0,0,1.71-1.17,5.72,5.72,0,0,1,1-.76,2.19,2.19,0,0,1,2.57.4,2,2,0,0,1,.63,1.4,2.91,2.91,0,0,1-.79,2,6.3,6.3,0,0,1-2.07,1.48,12.06,12.06,0,0,1-2.7.88,13.59,13.59,0,0,1-2.68.29,11.83,11.83,0,0,1-4.57-.81,8.61,8.61,0,0,1-3.17-2.18,8.8,8.8,0,0,1-1.8-3.06,10.75,10.75,0,0,1-.58-3.49,10.31,10.31,0,0,1,2.66-7.43,9.58,9.58,0,0,1,7.27-2.79,10.78,10.78,0,0,1,4,.7,8.75,8.75,0,0,1,3,1.94,8.45,8.45,0,0,1,1.87,2.77,8.3,8.3,0,0,1,.63,3.19,2.5,2.5,0,0,1-.49,1.8,2.65,2.65,0,0,1-1.82.47Zm9.22-3a4.75,4.75,0,0,0-1.46-3,4.18,4.18,0,0,0-3-1.17,4.51,4.51,0,0,0-3.13,1.1,5.6,5.6,0,0,0-1.66,3.08Z" transform="translate(-77.24 -76.61)"/>
        <path class="cls-5" d="M261.85,445.58h.07l3.2-11.92A3.81,3.81,0,0,1,266,432a2.16,2.16,0,0,1,1.62-.63,2.78,2.78,0,0,1,1.26.27,2.51,2.51,0,0,1,.85.65,2.72,2.72,0,0,1,.45.77,2.06,2.06,0,0,1,.14.68,5.28,5.28,0,0,1-.4,1.66l-6.08,17.24a11,11,0,0,1-2.32,4.18,5,5,0,0,1-3.69,1.3,3.84,3.84,0,0,1-2.48-.68,2.15,2.15,0,0,1-.83-1.73,1.93,1.93,0,0,1,.67-1.57,2.62,2.62,0,0,1,1.75-.56h.54a2.07,2.07,0,0,0,1.13-.29,2.18,2.18,0,0,0,.7-1.37l-5.47-15.59-.11-.29q-.29-.9-.41-1.33a2.93,2.93,0,0,1-.13-.83A2.38,2.38,0,0,1,254,432a2.52,2.52,0,0,1,1.8-.72,2.85,2.85,0,0,1,1.75.52,2.59,2.59,0,0,1,1,1.46Z" transform="translate(-77.24 -76.61)"/>
        <path class="cls-5" d="M276.9,442.19a4.52,4.52,0,0,0,4.86,4.79,5.47,5.47,0,0,0,2.36-.41,7.9,7.9,0,0,0,1.71-1.17,5.72,5.72,0,0,1,1-.76,2.19,2.19,0,0,1,2.57.4,2,2,0,0,1,.63,1.4,2.91,2.91,0,0,1-.79,2,6.3,6.3,0,0,1-2.07,1.48,12.06,12.06,0,0,1-2.7.88,13.59,13.59,0,0,1-2.68.29,11.83,11.83,0,0,1-4.57-.81A8.61,8.61,0,0,1,274,448.1a8.8,8.8,0,0,1-1.8-3.06,10.75,10.75,0,0,1-.58-3.49,10.31,10.31,0,0,1,2.66-7.43,9.58,9.58,0,0,1,7.27-2.79,10.78,10.78,0,0,1,4,.7,8.75,8.75,0,0,1,3,1.94,8.45,8.45,0,0,1,1.87,2.77,8.3,8.3,0,0,1,.63,3.19,2.5,2.5,0,0,1-.49,1.8,2.65,2.65,0,0,1-1.82.47Zm9.22-3a4.75,4.75,0,0,0-1.46-3,4.18,4.18,0,0,0-3-1.17,4.51,4.51,0,0,0-3.13,1.1,5.6,5.6,0,0,0-1.66,3.08Z" transform="translate(-77.24 -76.61)"/>
        <path class="cls-5" d="M294.32,434.51a5.37,5.37,0,0,1,1.84-1.84,8.61,8.61,0,0,1,2.54-1,12.38,12.38,0,0,1,2.83-.32,15,15,0,0,1,3,.29,12,12,0,0,1,2.59.81,5.3,5.3,0,0,1,1.82,1.28,2.41,2.41,0,0,1,.67,1.62A2.37,2.37,0,0,1,309,437a2,2,0,0,1-1.6.67,2,2,0,0,1-1-.23,7.1,7.1,0,0,1-1-.77,6.73,6.73,0,0,0-1.48-1,4.4,4.4,0,0,0-1.94-.36,5.09,5.09,0,0,0-2.23.4,1.29,1.29,0,0,0-.79,1.22,1.24,1.24,0,0,0,.67,1.19,8.76,8.76,0,0,0,2.14.68l2.2.5a24.75,24.75,0,0,1,2.45.7,8.39,8.39,0,0,1,2,1,5.14,5.14,0,0,1,1.51,1.62,4.37,4.37,0,0,1,.58,2.27,5.39,5.39,0,0,1-.68,2.74,6,6,0,0,1-1.84,2,8.18,8.18,0,0,1-2.61,1.17,11.79,11.79,0,0,1-3,.38,15.08,15.08,0,0,1-3.35-.36,10.58,10.58,0,0,1-2.79-1,6.3,6.3,0,0,1-1.89-1.51,2.84,2.84,0,0,1-.68-1.82,2.32,2.32,0,0,1,.54-1.57,2,2,0,0,1,1.58-.63,2,2,0,0,1,1.12.31,7.88,7.88,0,0,1,1.15,1,8.28,8.28,0,0,0,1.76,1.44,4.63,4.63,0,0,0,2.34.5,4.06,4.06,0,0,0,2.21-.54,1.59,1.59,0,0,0,.85-1.37,1.3,1.3,0,0,0-.61-1.22,8.46,8.46,0,0,0-2.12-.72l-.29-.07-3.1-.76a9.56,9.56,0,0,1-4-1.87,4.61,4.61,0,0,1-1.4-3.67A5.09,5.09,0,0,1,294.32,434.51Z" transform="translate(-77.24 -76.61)"/>
      </g>
    </g>
    <g id="getalittlebit">
      <rect class="cls-2" x="613.45" y="158.05" width="236" height="65.88" rx="20" ry="20"/>
      <path class="cls-3" d="M713.37,243c-10.48-.44-16.94,5-17,17.64l5.73,1.37s-.92-13.06,8.93-13.29C711.77,249,713.37,243,713.37,243Z" transform="translate(-77.24 -76.61)"/>
      <path class="cls-4" d="M921.56,267.12l-6.88,1.73c-.12,13-4.19,15.54-13.46,16L897,292.15C911.75,293,921.14,285.51,921.56,267.12Z" transform="translate(-77.24 -76.61)"/>
      <g>
        <path class="cls-6" d="M728.44,276.94a1.59,1.59,0,0,1-.48,1.17,1.63,1.63,0,0,1-1.2.48,1.6,1.6,0,0,1-1.44-.63,5.72,5.72,0,0,1-.66-2.16A7.5,7.5,0,0,1,722,278a8.59,8.59,0,0,1-3.75.75,11.88,11.88,0,0,1-4.79-.88,8.52,8.52,0,0,1-3.29-2.44,10.3,10.3,0,0,1-1.86-3.58,15.4,15.4,0,0,1-.6-4.4,13.39,13.39,0,0,1,.81-4.82,9.71,9.71,0,0,1,2.29-3.55,9.86,9.86,0,0,1,3.56-2.19,13.39,13.39,0,0,1,4.59-.75,11.42,11.42,0,0,1,3.53.51,9,9,0,0,1,2.65,1.32,6.36,6.36,0,0,1,1.63,1.71,3.2,3.2,0,0,1,.56,1.65,1.93,1.93,0,0,1-.67,1.67,2.69,2.69,0,0,1-1.64.5,1.67,1.67,0,0,1-1.08-.32,5.53,5.53,0,0,1-.87-.94,9,9,0,0,0-.66-.84,3.7,3.7,0,0,0-.78-.63,4.18,4.18,0,0,0-1.21-.48,7.33,7.33,0,0,0-1.73-.18,5.57,5.57,0,0,0-4.4,1.89q-1.66,1.89-1.67,5.79a8.07,8.07,0,0,0,1.59,5.24,5.49,5.49,0,0,0,4.53,2,5.27,5.27,0,0,0,3.47-1.23,4.51,4.51,0,0,0,1.66-3.18h-3.21a2.75,2.75,0,0,1-1.57-.44,1.62,1.62,0,0,1-.65-1.45,1.68,1.68,0,0,1,1.92-1.89h6.06a2,2,0,0,1,1.53.51,2.21,2.21,0,0,1,.48,1.56Z" transform="translate(-77.24 -76.61)"/>
        <path class="cls-6" d="M736,271.17a3.77,3.77,0,0,0,4,4,4.56,4.56,0,0,0,2-.35,6.58,6.58,0,0,0,1.42-1,4.77,4.77,0,0,1,.81-.63,1.82,1.82,0,0,1,2.15.33,1.66,1.66,0,0,1,.52,1.17,2.43,2.43,0,0,1-.66,1.67,5.26,5.26,0,0,1-1.73,1.23,10,10,0,0,1-2.25.73,11.28,11.28,0,0,1-2.24.24,9.85,9.85,0,0,1-3.81-.68,7.17,7.17,0,0,1-2.64-1.81,7.33,7.33,0,0,1-1.5-2.55,9,9,0,0,1-.48-2.91,8.6,8.6,0,0,1,2.22-6.19,8,8,0,0,1,6.06-2.33,9,9,0,0,1,3.31.58,7.29,7.29,0,0,1,2.52,1.62,7,7,0,0,1,1.56,2.31,6.92,6.92,0,0,1,.52,2.65,2.09,2.09,0,0,1-.4,1.5,2.21,2.21,0,0,1-1.52.39Zm7.68-2.52a4,4,0,0,0-1.22-2.5,3.48,3.48,0,0,0-2.47-1,3.76,3.76,0,0,0-2.61.92,4.67,4.67,0,0,0-1.38,2.56Z" transform="translate(-77.24 -76.61)"/>
        <path class="cls-6" d="M751.81,265.38h-.75q-1.74,0-1.74-1.44t1.74-1.44h.75v-2.67a2.16,2.16,0,0,1,.58-1.62,2.55,2.55,0,0,1,3.21,0,2.16,2.16,0,0,1,.58,1.62v2.67h1.32q2,0,2,1.44t-2,1.44h-1.32v8.76q0,1,1.14,1H758q1.53,0,1.53,1.47,0,2-3.18,2a5,5,0,0,1-3.42-1,3.74,3.74,0,0,1-1.08-2.92Z" transform="translate(-77.24 -76.61)"/>
        <path class="cls-6" d="M785.5,274a6.88,6.88,0,0,0,.09,1.23q.09.48.21,1a2.71,2.71,0,0,1,.15.75,1.49,1.49,0,0,1-.59,1.2,2.13,2.13,0,0,1-1.4.48,2.39,2.39,0,0,1-1.92-.71,3,3,0,0,1-.66-1.85,7.5,7.5,0,0,1-2.7,2,8.66,8.66,0,0,1-3.3.6,5.23,5.23,0,0,1-3.47-1.25,4,4,0,0,1-1.48-3.23,4.89,4.89,0,0,1,.46-2.23,3.83,3.83,0,0,1,1.29-1.47,6.77,6.77,0,0,1,1.92-.87,14.78,14.78,0,0,1,2.45-.47l2.67-.3a3.4,3.4,0,0,0,1.41-.44,1.32,1.32,0,0,0,.48-1.19,1.46,1.46,0,0,0-.78-1.35,3.92,3.92,0,0,0-2-.45,4.12,4.12,0,0,0-1.95.39,6.79,6.79,0,0,0-1.44,1.08,5,5,0,0,1-.84.71,1.55,1.55,0,0,1-.84.23,1.87,1.87,0,0,1-1.33-.5,1.57,1.57,0,0,1-.52-1.19,2.48,2.48,0,0,1,.46-1.36,4.6,4.6,0,0,1,1.36-1.29,7.88,7.88,0,0,1,2.21-.95,11,11,0,0,1,2.93-.36,10.35,10.35,0,0,1,5.2,1.11,3.66,3.66,0,0,1,1.91,3.39Zm-4.38-3.15a2.09,2.09,0,0,1-.77.42,9.15,9.15,0,0,1-1.1.27h0l-1.59.24a4.94,4.94,0,0,0-2.13.71,1.68,1.68,0,0,0-.69,1.46,1.58,1.58,0,0,0,.66,1.27,2.76,2.76,0,0,0,1.77.52,4.07,4.07,0,0,0,2.81-.94,2.9,2.9,0,0,0,1.06-2.23Z" transform="translate(-77.24 -76.61)"/>
        <path class="cls-6" d="M798.7,258.4a2.16,2.16,0,0,1,.58-1.62,2.54,2.54,0,0,1,3.21,0,2.16,2.16,0,0,1,.58,1.62v18a2.16,2.16,0,0,1-.58,1.62,2.54,2.54,0,0,1-3.21,0,2.16,2.16,0,0,1-.58-1.62Z" transform="translate(-77.24 -76.61)"/>
        <path class="cls-6" d="M807.61,256.74a2.32,2.32,0,1,1-.66,1.62A2.2,2.2,0,0,1,807.61,256.74ZM807,264.3a2.42,2.42,0,0,1,.5-1.59,2.69,2.69,0,0,1,3.39,0,2.42,2.42,0,0,1,.49,1.59V276.4a2.42,2.42,0,0,1-.49,1.59,2.69,2.69,0,0,1-3.39,0,2.42,2.42,0,0,1-.5-1.59Z" transform="translate(-77.24 -76.61)"/>
        <path class="cls-6" d="M816.28,265.38h-.75q-1.74,0-1.74-1.44t1.74-1.44h.75v-2.67a2.16,2.16,0,0,1,.58-1.62,2.55,2.55,0,0,1,3.21,0,2.16,2.16,0,0,1,.58,1.62v2.67H822q2,0,2,1.44t-2,1.44h-1.32v8.76q0,1,1.14,1h.63q1.53,0,1.53,1.47,0,2-3.18,2a5,5,0,0,1-3.42-1,3.74,3.74,0,0,1-1.08-2.92Z" transform="translate(-77.24 -76.61)"/>
        <path class="cls-6" d="M827.38,265.38h-.75q-1.74,0-1.74-1.44t1.74-1.44h.75v-2.67a2.16,2.16,0,0,1,.58-1.62,2.55,2.55,0,0,1,3.21,0,2.16,2.16,0,0,1,.58,1.62v2.67h1.32q2,0,2,1.44t-2,1.44h-1.32v8.76q0,1,1.14,1h.63q1.53,0,1.53,1.47,0,2-3.18,2a5,5,0,0,1-3.42-1,3.74,3.74,0,0,1-1.08-2.92Z" transform="translate(-77.24 -76.61)"/>
        <path class="cls-6" d="M837.58,258.4a2.16,2.16,0,0,1,.58-1.62,2.54,2.54,0,0,1,3.21,0,2.16,2.16,0,0,1,.58,1.62v18a2.16,2.16,0,0,1-.58,1.62,2.54,2.54,0,0,1-3.21,0,2.16,2.16,0,0,1-.58-1.62Z" transform="translate(-77.24 -76.61)"/>
        <path class="cls-6" d="M849.4,271.17a3.77,3.77,0,0,0,4,4,4.56,4.56,0,0,0,2-.35,6.58,6.58,0,0,0,1.42-1,4.77,4.77,0,0,1,.81-.63,1.82,1.82,0,0,1,2.15.33,1.66,1.66,0,0,1,.52,1.17,2.43,2.43,0,0,1-.66,1.67,5.26,5.26,0,0,1-1.73,1.23,10,10,0,0,1-2.25.73,11.28,11.28,0,0,1-2.24.24,9.85,9.85,0,0,1-3.81-.68,7.17,7.17,0,0,1-2.64-1.81,7.33,7.33,0,0,1-1.5-2.55,9,9,0,0,1-.48-2.91,8.6,8.6,0,0,1,2.22-6.19,8,8,0,0,1,6.06-2.33,9,9,0,0,1,3.31.58,7.29,7.29,0,0,1,2.52,1.62,7,7,0,0,1,1.56,2.31,6.92,6.92,0,0,1,.52,2.65,2.09,2.09,0,0,1-.4,1.5,2.21,2.21,0,0,1-1.52.39Zm7.68-2.52a4,4,0,0,0-1.22-2.5,3.48,3.48,0,0,0-2.47-1,3.76,3.76,0,0,0-2.61.92,4.67,4.67,0,0,0-1.38,2.56Z" transform="translate(-77.24 -76.61)"/>
        <path class="cls-6" d="M873.22,258.4a2.16,2.16,0,0,1,.58-1.62,2.54,2.54,0,0,1,3.21,0,2.16,2.16,0,0,1,.58,1.62v5.94h.06a4.38,4.38,0,0,1,1.77-1.65,5.5,5.5,0,0,1,2.55-.57,6.34,6.34,0,0,1,3,.66,6,6,0,0,1,2.11,1.8,8.15,8.15,0,0,1,1.26,2.6,11,11,0,0,1,.42,3.07,11.23,11.23,0,0,1-.54,3.65,7.38,7.38,0,0,1-1.5,2.63,6.13,6.13,0,0,1-2.19,1.56,6.83,6.83,0,0,1-2.64.51,5.61,5.61,0,0,1-2.86-.71,4,4,0,0,1-1.76-2.06h-.06v.69q0,2.07-2,2.07t-2-2.07Zm11,10.32a5.49,5.49,0,0,0-.56-1.56,3.19,3.19,0,0,0-1.08-1.17,3,3,0,0,0-1.68-.45,3,3,0,0,0-2.75,1.54,5.31,5.31,0,0,0-.58,1.56,8.49,8.49,0,0,0-.18,1.76,6.29,6.29,0,0,0,.85,3.42,2.92,2.92,0,0,0,2.66,1.35,3,3,0,0,0,2.58-1.38,6,6,0,0,0,.9-3.39A8.75,8.75,0,0,0,884.19,268.71Z" transform="translate(-77.24 -76.61)"/>
        <path class="cls-6" d="M892.36,256.74a2.32,2.32,0,1,1-.66,1.62A2.2,2.2,0,0,1,892.36,256.74Zm-.57,7.56a2.42,2.42,0,0,1,.5-1.59,2.69,2.69,0,0,1,3.39,0,2.42,2.42,0,0,1,.49,1.59V276.4a2.42,2.42,0,0,1-.49,1.59,2.69,2.69,0,0,1-3.39,0,2.42,2.42,0,0,1-.5-1.59Z" transform="translate(-77.24 -76.61)"/>
        <path class="cls-6" d="M901,265.38h-.75q-1.74,0-1.74-1.44t1.74-1.44H901v-2.67a2.16,2.16,0,0,1,.58-1.62,2.55,2.55,0,0,1,3.21,0,2.16,2.16,0,0,1,.58,1.62v2.67h1.32q2,0,2,1.44t-2,1.44h-1.32v8.76q0,1,1.14,1h.63q1.53,0,1.53,1.47,0,2-3.18,2a5,5,0,0,1-3.42-1,3.74,3.74,0,0,1-1.08-2.92Z" transform="translate(-77.24 -76.61)"/>
      </g>
    </g>
    <g id="fallapart">
      <rect class="cls-2" x="318.5" y="484.05" width="236" height="65.88" rx="20" ry="20"/>
      <path class="cls-3" d="M418.42,569c-10.48-.44-16.94,5-17,17.64l5.73,1.37s-.92-13.06,8.93-13.29C416.82,575,418.42,569,418.42,569Z" transform="translate(-77.24 -76.61)"/>
      <path class="cls-4" d="M626.61,593.12l-6.88,1.73c-.12,13-4.19,15.54-13.46,16l-4.19,7.34C616.8,619,626.19,611.51,626.61,593.12Z" transform="translate(-77.24 -76.61)"/>
      <g>
        <path class="cls-6" d="M445.26,585.47a2.86,2.86,0,0,1,.73-2.22,3.11,3.11,0,0,1,2.15-.66H459a3.3,3.3,0,0,1,1.85.43,2.16,2.16,0,0,1,0,3.08,3.21,3.21,0,0,1-1.85.45h-8.79v5h7.44a3.05,3.05,0,0,1,1.7.41,2.08,2.08,0,0,1,0,3,3,3,0,0,1-1.7.42h-7.44v6.75a2.44,2.44,0,0,1-.66,1.78,2.47,2.47,0,0,1-4.26-1.78Z" transform="translate(-77.24 -76.61)"/>
        <path class="cls-6" d="M476.4,600a6.87,6.87,0,0,0,.09,1.23q.09.48.21,1a2.71,2.71,0,0,1,.15.75,1.49,1.49,0,0,1-.59,1.2,2.13,2.13,0,0,1-1.4.48,2.39,2.39,0,0,1-1.92-.71,3,3,0,0,1-.66-1.85,7.49,7.49,0,0,1-2.7,2,8.65,8.65,0,0,1-3.3.6,5.23,5.23,0,0,1-3.47-1.25,4,4,0,0,1-1.48-3.23,4.89,4.89,0,0,1,.46-2.23,3.83,3.83,0,0,1,1.29-1.47,6.78,6.78,0,0,1,1.92-.87,14.73,14.73,0,0,1,2.45-.47l2.67-.3a3.39,3.39,0,0,0,1.41-.43,1.32,1.32,0,0,0,.48-1.19,1.46,1.46,0,0,0-.78-1.35,3.92,3.92,0,0,0-2-.45,4.13,4.13,0,0,0-1.95.39,6.8,6.8,0,0,0-1.44,1.08,5,5,0,0,1-.84.71,1.55,1.55,0,0,1-.84.23,1.87,1.87,0,0,1-1.33-.5,1.57,1.57,0,0,1-.52-1.19,2.48,2.48,0,0,1,.46-1.36,4.6,4.6,0,0,1,1.36-1.29,7.86,7.86,0,0,1,2.21-.95,11,11,0,0,1,2.93-.36,10.35,10.35,0,0,1,5.2,1.11,3.66,3.66,0,0,1,1.91,3.39ZM472,596.81a2.08,2.08,0,0,1-.77.42,9.14,9.14,0,0,1-1.1.27h0l-1.59.24a5,5,0,0,0-2.13.71,1.68,1.68,0,0,0-.69,1.46,1.58,1.58,0,0,0,.66,1.28,2.76,2.76,0,0,0,1.77.52,4.07,4.07,0,0,0,2.81-.94,2.9,2.9,0,0,0,1.06-2.24Z" transform="translate(-77.24 -76.61)"/>
        <path class="cls-6" d="M480.42,584.39a2.16,2.16,0,0,1,.58-1.62,2.54,2.54,0,0,1,3.21,0,2.16,2.16,0,0,1,.58,1.62v18a2.16,2.16,0,0,1-.58,1.62,2.54,2.54,0,0,1-3.21,0,2.16,2.16,0,0,1-.58-1.62Z" transform="translate(-77.24 -76.61)"/>
        <path class="cls-6" d="M488.76,584.39a2.16,2.16,0,0,1,.58-1.62,2.54,2.54,0,0,1,3.21,0,2.16,2.16,0,0,1,.58,1.62v18a2.16,2.16,0,0,1-.58,1.62,2.54,2.54,0,0,1-3.21,0,2.16,2.16,0,0,1-.58-1.62Z" transform="translate(-77.24 -76.61)"/>
        <path class="cls-6" d="M520.59,600a6.87,6.87,0,0,0,.09,1.23q.09.48.21,1a2.71,2.71,0,0,1,.15.75,1.49,1.49,0,0,1-.59,1.2,2.13,2.13,0,0,1-1.4.48,2.39,2.39,0,0,1-1.92-.71,3,3,0,0,1-.66-1.85,7.49,7.49,0,0,1-2.7,2,8.65,8.65,0,0,1-3.3.6,5.23,5.23,0,0,1-3.47-1.25,4,4,0,0,1-1.48-3.23,4.89,4.89,0,0,1,.46-2.23,3.83,3.83,0,0,1,1.29-1.47,6.78,6.78,0,0,1,1.92-.87,14.73,14.73,0,0,1,2.45-.47l2.67-.3a3.39,3.39,0,0,0,1.41-.43,1.32,1.32,0,0,0,.48-1.19,1.46,1.46,0,0,0-.78-1.35,3.92,3.92,0,0,0-2-.45,4.13,4.13,0,0,0-1.95.39,6.8,6.8,0,0,0-1.44,1.08,5,5,0,0,1-.84.71,1.55,1.55,0,0,1-.84.23,1.87,1.87,0,0,1-1.33-.5,1.57,1.57,0,0,1-.52-1.19,2.48,2.48,0,0,1,.46-1.36,4.6,4.6,0,0,1,1.36-1.29,7.86,7.86,0,0,1,2.21-.95,11,11,0,0,1,2.93-.36,10.35,10.35,0,0,1,5.2,1.11,3.66,3.66,0,0,1,1.91,3.39Zm-4.38-3.15a2.08,2.08,0,0,1-.77.42,9.14,9.14,0,0,1-1.1.27h0l-1.59.24a5,5,0,0,0-2.13.71,1.68,1.68,0,0,0-.69,1.46,1.58,1.58,0,0,0,.66,1.28,2.76,2.76,0,0,0,1.77.52,4.07,4.07,0,0,0,2.81-.94,2.9,2.9,0,0,0,1.06-2.24Z" transform="translate(-77.24 -76.61)"/>
        <path class="cls-6" d="M524.37,590.18q0-2.07,2-2.07t2,2.07v.69h.06a4,4,0,0,1,1.76-2.06,5.61,5.61,0,0,1,2.86-.71,6.83,6.83,0,0,1,2.64.51,6.13,6.13,0,0,1,2.19,1.56,7.38,7.38,0,0,1,1.5,2.63,11.23,11.23,0,0,1,.54,3.64,11,11,0,0,1-.42,3.08,8.14,8.14,0,0,1-1.26,2.6,6,6,0,0,1-2.11,1.8,6.35,6.35,0,0,1-3,.66,5.64,5.64,0,0,1-2.61-.57,4,4,0,0,1-1.71-1.65h-.06v5.85a2.16,2.16,0,0,1-.58,1.62,2.55,2.55,0,0,1-3.21,0,2.16,2.16,0,0,1-.58-1.62Zm10.23,2.73a3,3,0,0,0-2.58-1.38,2.92,2.92,0,0,0-2.66,1.35,6.29,6.29,0,0,0-.85,3.42,8.49,8.49,0,0,0,.18,1.75,5,5,0,0,0,.6,1.56,3.27,3.27,0,0,0,1.09,1.13,3.37,3.37,0,0,0,3.31,0,3.2,3.2,0,0,0,1.08-1.17,5.49,5.49,0,0,0,.56-1.56,8.74,8.74,0,0,0,.17-1.68A6,6,0,0,0,534.6,592.92Z" transform="translate(-77.24 -76.61)"/>
        <path class="cls-6" d="M557.25,600a6.87,6.87,0,0,0,.09,1.23q.09.48.21,1a2.71,2.71,0,0,1,.15.75,1.49,1.49,0,0,1-.59,1.2,2.13,2.13,0,0,1-1.4.48,2.39,2.39,0,0,1-1.92-.71,3,3,0,0,1-.66-1.85,7.49,7.49,0,0,1-2.7,2,8.65,8.65,0,0,1-3.3.6,5.23,5.23,0,0,1-3.47-1.25,4,4,0,0,1-1.48-3.23,4.89,4.89,0,0,1,.46-2.23,3.83,3.83,0,0,1,1.29-1.47,6.78,6.78,0,0,1,1.92-.87,14.73,14.73,0,0,1,2.45-.47l2.67-.3a3.39,3.39,0,0,0,1.41-.43,1.32,1.32,0,0,0,.48-1.19,1.46,1.46,0,0,0-.78-1.35,3.92,3.92,0,0,0-2-.45,4.13,4.13,0,0,0-1.95.39,6.8,6.8,0,0,0-1.44,1.08,5,5,0,0,1-.84.71,1.55,1.55,0,0,1-.84.23,1.87,1.87,0,0,1-1.33-.5,1.57,1.57,0,0,1-.52-1.19,2.48,2.48,0,0,1,.46-1.36,4.6,4.6,0,0,1,1.36-1.29,7.86,7.86,0,0,1,2.21-.95,11,11,0,0,1,2.93-.36,10.35,10.35,0,0,1,5.2,1.11,3.66,3.66,0,0,1,1.91,3.39Zm-4.38-3.15a2.08,2.08,0,0,1-.77.42,9.14,9.14,0,0,1-1.1.27h0l-1.59.24a5,5,0,0,0-2.13.71,1.68,1.68,0,0,0-.69,1.46,1.58,1.58,0,0,0,.66,1.28,2.76,2.76,0,0,0,1.77.52,4.07,4.07,0,0,0,2.81-.94,2.9,2.9,0,0,0,1.06-2.24Z" transform="translate(-77.24 -76.61)"/>
        <path class="cls-6" d="M561.27,590.15a2,2,0,0,1,.56-1.5,2.15,2.15,0,0,1,2.85,0,2,2,0,0,1,.56,1.5v1.68h.06a7.24,7.24,0,0,1,1.31-2.67,2.84,2.84,0,0,1,2.32-1.05,2.5,2.5,0,0,1,1.73.6,2,2,0,0,1,.67,1.53,2.07,2.07,0,0,1-.61,1.67,2.29,2.29,0,0,1-1.54.53h-.78a2.24,2.24,0,0,0-2.05,1.11,7.63,7.63,0,0,0-.68,3.75v5.1a2.42,2.42,0,0,1-.49,1.59,2.69,2.69,0,0,1-3.39,0,2.42,2.42,0,0,1-.5-1.59Z" transform="translate(-77.24 -76.61)"/>
        <path class="cls-6" d="M574.38,591.38h-.75q-1.74,0-1.74-1.44t1.74-1.44h.75v-2.67a2.16,2.16,0,0,1,.58-1.62,2.54,2.54,0,0,1,3.21,0,2.16,2.16,0,0,1,.58,1.62v2.67h1.32q2,0,2,1.44t-2,1.44h-1.32v8.76q0,1,1.14,1h.63q1.53,0,1.53,1.47,0,1.95-3.18,2a5,5,0,0,1-3.42-1,3.74,3.74,0,0,1-1.08-2.92Z" transform="translate(-77.24 -76.61)"/>
      </g>
    </g>
    <g id="everynow">
      <rect class="cls-2" x="312.68" y="149.46" width="224.89" height="98" rx="20" ry="20"/>
      <path class="cls-3" d="M416.71,234.46c-13-.54-21,6.24-21,21.82l7.09,1.7s-1.13-16.15,11.05-16.44C414.72,241.83,416.71,234.46,416.71,234.46Z" transform="translate(-77.24 -76.61)"/>
      <path class="cls-4" d="M610.62,288.48l-8.5,2.13c-.15,16.07-5.17,19.18-16.62,19.71l-5.17,9.06C598.51,320.45,610.1,311.18,610.62,288.48Z" transform="translate(-77.24 -76.61)"/>
      <g>
        <path class="cls-5" d="M417.21,249.77a3.34,3.34,0,0,1,.86-2.59,3.63,3.63,0,0,1,2.5-.77H434a3.84,3.84,0,0,1,2.15.51,2.51,2.51,0,0,1,0,3.59A3.74,3.74,0,0,1,434,251H423v5.46h9.73a3.57,3.57,0,0,1,2,.47,2.43,2.43,0,0,1,0,3.45,3.46,3.46,0,0,1-2,.49H423V267h11.38a3.84,3.84,0,0,1,2.15.51,2.51,2.51,0,0,1,0,3.59,3.74,3.74,0,0,1-2.15.52H420.57a3.63,3.63,0,0,1-2.5-.77,3.34,3.34,0,0,1-.86-2.59Z" transform="translate(-77.24 -76.61)"/>
        <path class="cls-5" d="M438.95,256.8a7.23,7.23,0,0,1-.23-.73,2.42,2.42,0,0,1-.09-.56,2.57,2.57,0,0,1,.73-2,2.48,2.48,0,0,1,1.75-.68,2.56,2.56,0,0,1,1.15.24,2.39,2.39,0,0,1,.77.58,2.54,2.54,0,0,1,.42.68,5.18,5.18,0,0,1,.21.63l3.43,11.55h.07L450.6,255a4.29,4.29,0,0,1,.21-.61,2.68,2.68,0,0,1,.44-.68,2.52,2.52,0,0,1,.77-.6,2.45,2.45,0,0,1,1.14-.24,2.48,2.48,0,0,1,1.75.68,2.57,2.57,0,0,1,.73,2,2.45,2.45,0,0,1-.09.56,7.49,7.49,0,0,1-.23.73l-4.83,13.44a2.66,2.66,0,0,1-1,1.47,8.38,8.38,0,0,1-4.79,0,2.66,2.66,0,0,1-1-1.47Z" transform="translate(-77.24 -76.61)"/>
        <path class="cls-5" d="M462.26,263.42a4.4,4.4,0,0,0,4.73,4.65,5.31,5.31,0,0,0,2.29-.4,7.67,7.67,0,0,0,1.66-1.14,5.55,5.55,0,0,1,.95-.73,2.13,2.13,0,0,1,2.5.39,1.93,1.93,0,0,1,.61,1.36,2.83,2.83,0,0,1-.77,1.94,6.12,6.12,0,0,1-2,1.44,11.72,11.72,0,0,1-2.62.86,13.18,13.18,0,0,1-2.61.28,11.51,11.51,0,0,1-4.45-.79,8.37,8.37,0,0,1-3.08-2.12,8.55,8.55,0,0,1-1.75-3,10.46,10.46,0,0,1-.56-3.4,10,10,0,0,1,2.59-7.23,9.31,9.31,0,0,1,7.07-2.71,10.47,10.47,0,0,1,3.87.68,8.51,8.51,0,0,1,2.94,1.89,8.22,8.22,0,0,1,1.82,2.69,8.07,8.07,0,0,1,.61,3.1,2.43,2.43,0,0,1-.47,1.75,2.57,2.57,0,0,1-1.77.46Zm9-2.94a4.62,4.62,0,0,0-1.42-2.92,4.07,4.07,0,0,0-2.89-1.14,4.39,4.39,0,0,0-3,1.07,5.44,5.44,0,0,0-1.61,3Z" transform="translate(-77.24 -76.61)"/>
        <path class="cls-5" d="M479.62,255.23a2.33,2.33,0,0,1,.65-1.75,2.51,2.51,0,0,1,3.33,0,2.33,2.33,0,0,1,.65,1.75v2h.07a8.46,8.46,0,0,1,1.52-3.12,3.31,3.31,0,0,1,2.71-1.22,2.92,2.92,0,0,1,2,.7,2.28,2.28,0,0,1,.79,1.79,2.42,2.42,0,0,1-.72,1.94,2.68,2.68,0,0,1-1.8.61h-.91a2.62,2.62,0,0,0-2.4,1.3,8.9,8.9,0,0,0-.79,4.38v5.95a2.82,2.82,0,0,1-.58,1.85,3.14,3.14,0,0,1-4,0,2.82,2.82,0,0,1-.58-1.85Z" transform="translate(-77.24 -76.61)"/>
        <path class="cls-5" d="M500.37,266.71h.07l3.11-11.58a3.7,3.7,0,0,1,.88-1.66,2.1,2.1,0,0,1,1.58-.61,2.71,2.71,0,0,1,1.23.26,2.45,2.45,0,0,1,.82.63,2.63,2.63,0,0,1,.44.75,2,2,0,0,1,.14.67,5.14,5.14,0,0,1-.39,1.61l-5.92,16.76a10.65,10.65,0,0,1-2.26,4.06,4.89,4.89,0,0,1-3.59,1.26,3.73,3.73,0,0,1-2.42-.67,2.09,2.09,0,0,1-.81-1.68,1.88,1.88,0,0,1,.65-1.52,2.55,2.55,0,0,1,1.7-.54h.52a2,2,0,0,0,1.1-.28,2.13,2.13,0,0,0,.68-1.33l-5.32-15.16-.1-.28q-.28-.87-.4-1.29a2.86,2.86,0,0,1-.12-.81,2.32,2.32,0,0,1,.73-1.75,2.45,2.45,0,0,1,1.75-.7,2.77,2.77,0,0,1,1.7.51,2.52,2.52,0,0,1,.93,1.42Z" transform="translate(-77.24 -76.61)"/>
        <path class="cls-5" d="M521.79,255.4a2.81,2.81,0,0,1,.58-1.87,2.54,2.54,0,0,1,3.46,0,2.81,2.81,0,0,1,.58,1.87v.67h.07a9,9,0,0,1,2.68-2.38,7,7,0,0,1,3.52-.84,8.39,8.39,0,0,1,2.36.33,5.59,5.59,0,0,1,2.06,1.12,5.4,5.4,0,0,1,1.47,2.1,8.29,8.29,0,0,1,.54,3.17v9.94a2.82,2.82,0,0,1-.58,1.85,3.14,3.14,0,0,1-4,0,2.82,2.82,0,0,1-.58-1.85v-8.92a3.88,3.88,0,0,0-.81-2.57,3,3,0,0,0-2.42-1,3.88,3.88,0,0,0-2.68,1.1,3.77,3.77,0,0,0-1.21,2.92v8.44a2.82,2.82,0,0,1-.58,1.85,3.14,3.14,0,0,1-4,0,2.82,2.82,0,0,1-.58-1.85Z" transform="translate(-77.24 -76.61)"/>
        <path class="cls-5" d="M543,258.64a8.7,8.7,0,0,1,1.8-3,10.33,10.33,0,0,1,14.07,0,8.72,8.72,0,0,1,1.8,3,11.32,11.32,0,0,1,.61,3.8,12.79,12.79,0,0,1-.53,3.73,8.5,8.5,0,0,1-1.63,3,7.57,7.57,0,0,1-2.94,2.08,12.8,12.8,0,0,1-8.7,0,7.5,7.5,0,0,1-2.94-2.08,8.53,8.53,0,0,1-1.65-3.06,12.79,12.79,0,0,1-.53-3.73A11.31,11.31,0,0,1,543,258.64Zm5.58,8a4,4,0,0,0,6.51,0,7.51,7.51,0,0,0,1.08-4.18,7.27,7.27,0,0,0-1.1-4.22,4.09,4.09,0,0,0-6.47,0,7.27,7.27,0,0,0-1.1,4.22A7.5,7.5,0,0,0,548.6,266.62Z" transform="translate(-77.24 -76.61)"/>
        <path class="cls-5" d="M563.16,257.11a6.53,6.53,0,0,1-.35-1.89,2.21,2.21,0,0,1,.75-1.68,2.47,2.47,0,0,1,1.73-.7,2.14,2.14,0,0,1,1.75.58,5.07,5.07,0,0,1,.77,1.91l2.69,11.2h.07l2.17-10.18a7.15,7.15,0,0,1,1-2.66,2.58,2.58,0,0,1,2.22-.84,2.79,2.79,0,0,1,2.31.84,6.55,6.55,0,0,1,1.05,2.66l2.21,10.18h.07l2.52-11.2a4.57,4.57,0,0,1,.75-1.91,2.2,2.2,0,0,1,1.77-.58,2.47,2.47,0,0,1,1.73.7,2.22,2.22,0,0,1,.75,1.68,6.54,6.54,0,0,1-.35,1.89L585,269.29a4.65,4.65,0,0,1-1.16,2.27,3.63,3.63,0,0,1-2.17.49,3.27,3.27,0,0,1-2.17-.54,4.49,4.49,0,0,1-1-2.12l-2.52-10h-.07l-2.52,10a4.5,4.5,0,0,1-1,2.12,3.27,3.27,0,0,1-2.17.54,3.54,3.54,0,0,1-2.15-.49,5,5,0,0,1-1.17-2.27Z" transform="translate(-77.24 -76.61)"/>
        <path class="cls-5" d="M434.12,302.67a8,8,0,0,0,.1,1.44q.11.56.25,1.12a3.16,3.16,0,0,1,.17.88,1.74,1.74,0,0,1-.68,1.4,2.49,2.49,0,0,1-1.63.56,2.79,2.79,0,0,1-2.24-.82,3.5,3.5,0,0,1-.77-2.15,8.75,8.75,0,0,1-3.15,2.27,10.11,10.11,0,0,1-3.85.7,6.1,6.1,0,0,1-4-1.45,4.68,4.68,0,0,1-1.73-3.76,5.7,5.7,0,0,1,.54-2.61,4.46,4.46,0,0,1,1.5-1.71,7.89,7.89,0,0,1,2.24-1,17.31,17.31,0,0,1,2.85-.54l3.11-.35a4,4,0,0,0,1.65-.51,1.53,1.53,0,0,0,.56-1.38,1.71,1.71,0,0,0-.91-1.58,4.57,4.57,0,0,0-2.31-.52,4.8,4.8,0,0,0-2.27.46,7.89,7.89,0,0,0-1.68,1.26,5.9,5.9,0,0,1-1,.82,1.81,1.81,0,0,1-1,.26,2.18,2.18,0,0,1-1.56-.58,1.83,1.83,0,0,1-.61-1.38,2.9,2.9,0,0,1,.54-1.59,5.37,5.37,0,0,1,1.59-1.5,9.18,9.18,0,0,1,2.57-1.1,12.82,12.82,0,0,1,3.41-.42,12.08,12.08,0,0,1,6.07,1.29,4.27,4.27,0,0,1,2.22,4ZM429,299a2.43,2.43,0,0,1-.89.49,10.58,10.58,0,0,1-1.28.31h0l-1.85.28a5.77,5.77,0,0,0-2.48.82,2,2,0,0,0-.81,1.7,1.84,1.84,0,0,0,.77,1.49,3.22,3.22,0,0,0,2.06.61,4.75,4.75,0,0,0,3.27-1.1A3.38,3.38,0,0,0,429,301Z" transform="translate(-77.24 -76.61)"/>
        <path class="cls-5" d="M438.53,291.4a2.81,2.81,0,0,1,.58-1.87,2.54,2.54,0,0,1,3.46,0,2.81,2.81,0,0,1,.58,1.87v.67h.07a9,9,0,0,1,2.68-2.38,7,7,0,0,1,3.52-.84,8.39,8.39,0,0,1,2.36.33,5.59,5.59,0,0,1,2.06,1.12,5.4,5.4,0,0,1,1.47,2.1,8.29,8.29,0,0,1,.54,3.17v9.94a2.82,2.82,0,0,1-.58,1.85,3.14,3.14,0,0,1-4,0,2.82,2.82,0,0,1-.58-1.85v-8.92a3.88,3.88,0,0,0-.81-2.57,3,3,0,0,0-2.42-1,3.88,3.88,0,0,0-2.68,1.1,3.77,3.77,0,0,0-1.21,2.92v8.44a2.82,2.82,0,0,1-.58,1.85,3.14,3.14,0,0,1-4,0,2.82,2.82,0,0,1-.58-1.85Z" transform="translate(-77.24 -76.61)"/>
        <path class="cls-5" d="M477.24,305.65q0,2.41-2.31,2.42t-2.31-2.42v-.81h-.07a4.52,4.52,0,0,1-2,2.4,6.64,6.64,0,0,1-3.36.82,8,8,0,0,1-3.08-.6,7.14,7.14,0,0,1-2.55-1.82,8.6,8.6,0,0,1-1.75-3.06,13.11,13.11,0,0,1-.63-4.25,12.86,12.86,0,0,1,.49-3.59,9.49,9.49,0,0,1,1.47-3,7,7,0,0,1,2.47-2.1,7.4,7.4,0,0,1,3.45-.77,6.43,6.43,0,0,1,3,.66,5.13,5.13,0,0,1,2.06,1.93h.07V284.5a2.52,2.52,0,0,1,.68-1.89,3,3,0,0,1,3.74,0,2.52,2.52,0,0,1,.68,1.89Zm-11.94-3.19a3.48,3.48,0,0,0,3,1.61,3.41,3.41,0,0,0,3.1-1.57,7.33,7.33,0,0,0,1-4,9.9,9.9,0,0,0-.21-2,6.19,6.19,0,0,0-.68-1.82,3.52,3.52,0,0,0-3.2-1.8,3.51,3.51,0,0,0-2,.52,3.72,3.72,0,0,0-1.26,1.37,6.36,6.36,0,0,0-.65,1.82,10.15,10.15,0,0,0-.19,2A7,7,0,0,0,465.3,302.46Z" transform="translate(-77.24 -76.61)"/>
        <path class="cls-5" d="M493.34,292.66h-.87q-2,0-2-1.68t2-1.68h.88v-3.11a2.52,2.52,0,0,1,.68-1.89,3,3,0,0,1,3.75,0,2.52,2.52,0,0,1,.68,1.89v3.11H500q2.31,0,2.31,1.68T500,292.66h-1.54v10.22q0,1.19,1.33,1.19h.74q1.78,0,1.78,1.72,0,2.28-3.71,2.27a5.84,5.84,0,0,1-4-1.14,4.36,4.36,0,0,1-1.26-3.41Z" transform="translate(-77.24 -76.61)"/>
        <path class="cls-5" d="M505,284.5a2.52,2.52,0,0,1,.68-1.89,3,3,0,0,1,3.75,0,2.52,2.52,0,0,1,.68,1.89v7h.07a6.82,6.82,0,0,1,5.71-2.69,8.39,8.39,0,0,1,2.36.33,5.59,5.59,0,0,1,2.06,1.12,5.4,5.4,0,0,1,1.47,2.1,8.29,8.29,0,0,1,.54,3.17v9.94a2.82,2.82,0,0,1-.58,1.85,3.14,3.14,0,0,1-4,0,2.82,2.82,0,0,1-.58-1.85v-8.92a3.88,3.88,0,0,0-.81-2.57,3,3,0,0,0-2.42-1,3.88,3.88,0,0,0-2.68,1.1,3.77,3.77,0,0,0-1.21,2.92v8.44a2.82,2.82,0,0,1-.58,1.85,3.14,3.14,0,0,1-4,0,2.82,2.82,0,0,1-.58-1.85Z" transform="translate(-77.24 -76.61)"/>
        <path class="cls-5" d="M530.68,299.42a4.4,4.4,0,0,0,4.73,4.65,5.31,5.31,0,0,0,2.29-.4,7.67,7.67,0,0,0,1.66-1.14,5.55,5.55,0,0,1,.95-.73,2.13,2.13,0,0,1,2.5.39,1.93,1.93,0,0,1,.61,1.36,2.83,2.83,0,0,1-.77,1.94,6.12,6.12,0,0,1-2,1.44,11.72,11.72,0,0,1-2.62.86,13.18,13.18,0,0,1-2.61.28,11.51,11.51,0,0,1-4.45-.79,8.37,8.37,0,0,1-3.08-2.12,8.55,8.55,0,0,1-1.75-3,10.46,10.46,0,0,1-.56-3.4,10,10,0,0,1,2.59-7.23,9.31,9.31,0,0,1,7.07-2.71,10.47,10.47,0,0,1,3.87.68,8.51,8.51,0,0,1,2.94,1.89,8.22,8.22,0,0,1,1.82,2.69,8.07,8.07,0,0,1,.61,3.1A2.43,2.43,0,0,1,544,299a2.57,2.57,0,0,1-1.77.46Zm9-2.94a4.62,4.62,0,0,0-1.42-2.92,4.07,4.07,0,0,0-2.89-1.14,4.39,4.39,0,0,0-3,1.07,5.44,5.44,0,0,0-1.61,3Z" transform="translate(-77.24 -76.61)"/>
        <path class="cls-5" d="M547.76,291.4a2.81,2.81,0,0,1,.58-1.87,2.54,2.54,0,0,1,3.46,0,2.81,2.81,0,0,1,.58,1.87v.67h.07a9,9,0,0,1,2.68-2.38,7,7,0,0,1,3.52-.84,8.39,8.39,0,0,1,2.36.33,5.59,5.59,0,0,1,2.06,1.12,5.4,5.4,0,0,1,1.47,2.1,8.29,8.29,0,0,1,.54,3.17v9.94a2.82,2.82,0,0,1-.58,1.85,3.14,3.14,0,0,1-4,0,2.82,2.82,0,0,1-.58-1.85v-8.92a3.88,3.88,0,0,0-.81-2.57,3,3,0,0,0-2.42-1,3.88,3.88,0,0,0-2.68,1.1,3.77,3.77,0,0,0-1.21,2.92v8.44a2.82,2.82,0,0,1-.58,1.85,3.14,3.14,0,0,1-4,0,2.82,2.82,0,0,1-.58-1.85Z" transform="translate(-77.24 -76.61)"/>
        <path class="cls-5" d="M580.49,284.82a3,3,0,0,1,5-2.08,2.85,2.85,0,0,1,.77,2.08v20.37a2.85,2.85,0,0,1-.77,2.08,2.88,2.88,0,0,1-5-2.08Z" transform="translate(-77.24 -76.61)"/>
      </g>
    </g>
    <g id="turnaround">
      <rect class="cls-2" x="2" y="55.48" width="265.17" height="191.01" rx="20" ry="20"/>
      <path class="cls-3" d="M122.05,140.5c-22.87-1-37,11-37,38.5l12.5,3s-2-28.5,19.5-29C118.55,153.5,122.05,140.5,122.05,140.5Z" transform="translate(-77.24 -76.61)"/>
      <path class="cls-4" d="M340.05,290l-11.5,2c-.21,15.08-7,18-22.5,18.5l-7,8.5C323.66,320,339.35,311.31,340.05,290Z" transform="translate(-77.24 -76.61)"/>
      <g>
        <path class="cls-5" d="M132.89,177.58a5.53,5.53,0,0,1-4.23-1.5,5.71,5.71,0,0,1-1.41-4.08,5.49,5.49,0,0,1,1.5-4.11,6.38,6.38,0,0,1,4.62-1.47h29.52a6.36,6.36,0,0,1,4.65,1.47A5.56,5.56,0,0,1,169,172a5.72,5.72,0,0,1-1.41,4.08,5.54,5.54,0,0,1-4.23,1.5H155V203a7.66,7.66,0,0,1-1.86,5.46,7.4,7.4,0,0,1-10.08,0,7.66,7.66,0,0,1-1.86-5.46V177.58Z" transform="translate(-77.24 -76.61)"/>
        <path class="cls-5" d="M189.89,183.58a5.92,5.92,0,0,1,1.68-4.56,7.27,7.27,0,0,1,9,0,5.92,5.92,0,0,1,1.68,4.56v20.94q0,5.88-5.94,5.88a4.91,4.91,0,0,1-3.9-1.44,8.06,8.06,0,0,1-1.62-4.38h-.12q-3.18,5.82-10.2,5.82-6.12,0-9.09-3.33a12.71,12.71,0,0,1-3-8.79v-14.7a5.92,5.92,0,0,1,1.68-4.56,7.27,7.27,0,0,1,9,0,5.92,5.92,0,0,1,1.68,4.56V195.4q0,5.28,4.56,5.28a3.9,3.9,0,0,0,3.39-1.65,7.59,7.59,0,0,0,1.17-4.47Z" transform="translate(-77.24 -76.61)"/>
        <path class="cls-5" d="M208.37,183.58A6.11,6.11,0,0,1,210,179a5.47,5.47,0,0,1,4-1.56,5.37,5.37,0,0,1,4,1.53q1.5,1.53,1.5,4.83v2.4h.12a20.74,20.74,0,0,1,3.54-6.6,5.85,5.85,0,0,1,4.5-2.16,4.4,4.4,0,0,1,3.84,1.68,6.74,6.74,0,0,1,1.2,4q0,4.68-3.36,5.52l-3.36.84a8,8,0,0,0-4,2,5.93,5.93,0,0,0-1.26,4.2v8.58a5.92,5.92,0,0,1-1.68,4.56,7.27,7.27,0,0,1-9,0,5.92,5.92,0,0,1-1.68-4.56Z" transform="translate(-77.24 -76.61)"/>
        <path class="cls-5" d="M258.71,192.46q0-5.28-4.56-5.28a3.92,3.92,0,0,0-3.39,1.62,7.57,7.57,0,0,0-1.17,4.5v11a5.92,5.92,0,0,1-1.68,4.56,7.27,7.27,0,0,1-9,0,5.92,5.92,0,0,1-1.68-4.56V183.34q0-5.88,5.94-5.88a5,5,0,0,1,3.93,1.44,7.62,7.62,0,0,1,1.59,4.38h.12q3.18-5.82,10.2-5.82,6.12,0,9.09,3.33a12.71,12.71,0,0,1,3,8.79v14.7a5.92,5.92,0,0,1-1.68,4.56,7.27,7.27,0,0,1-9,0,5.92,5.92,0,0,1-1.68-4.56Z" transform="translate(-77.24 -76.61)"/>
        <path class="cls-5" d="M133.43,272.44q0,1.14.18,3.3a22.24,22.24,0,0,1,.18,2.28,3.67,3.67,0,0,1-1.68,3.27A7.24,7.24,0,0,1,128,282.4a6.4,6.4,0,0,1-4.44-1.32,6,6,0,0,1-1.8-3.66,9.76,9.76,0,0,1-4.65,3.78,16.9,16.9,0,0,1-6.39,1.2q-5.4,0-8.55-2.37T99,272.68a8.53,8.53,0,0,1,.78-3.69,7.86,7.86,0,0,1,2.61-3,14.85,14.85,0,0,1,4.92-2.13,41.35,41.35,0,0,1,7.59-1.11,15.93,15.93,0,0,0,5-.9,2.23,2.23,0,0,0,1.44-2.16q0-3.06-5-3.06a7.79,7.79,0,0,0-3.15.57,17.41,17.41,0,0,0-3,1.77,18.24,18.24,0,0,1-2.37,1.44,5.23,5.23,0,0,1-2.31.48q-3.9,0-3.9-3.84,0-3.42,4.26-5.52a24.4,24.4,0,0,1,10.8-2.1,41.17,41.17,0,0,1,5.64.39,22.37,22.37,0,0,1,5.34,1.41,10.36,10.36,0,0,1,4.08,2.85,6.83,6.83,0,0,1,1.56,4.59Zm-12-4.92a4,4,0,0,1-1.89,1.11,27.66,27.66,0,0,1-3,.63,18,18,0,0,0-3.06.66,2.52,2.52,0,0,0-1.68,2.58,2.67,2.67,0,0,0,1.11,2.19,4.19,4.19,0,0,0,2.67.87,6.46,6.46,0,0,0,4.23-1.35,4,4,0,0,0,1.65-3.15Z" transform="translate(-77.24 -76.61)"/>
        <path class="cls-5" d="M139.55,255.58a6.11,6.11,0,0,1,1.59-4.56,5.47,5.47,0,0,1,4-1.56,5.37,5.37,0,0,1,4,1.53q1.5,1.53,1.5,4.83v2.4h.12a20.74,20.74,0,0,1,3.54-6.6,5.85,5.85,0,0,1,4.5-2.16,4.4,4.4,0,0,1,3.84,1.68,6.74,6.74,0,0,1,1.2,4q0,4.68-3.36,5.52l-3.36.84a8,8,0,0,0-4,2,5.93,5.93,0,0,0-1.26,4.2v8.58a5.92,5.92,0,0,1-1.68,4.56,7.27,7.27,0,0,1-9,0,5.92,5.92,0,0,1-1.68-4.56Z" transform="translate(-77.24 -76.61)"/>
        <path class="cls-5" d="M168,258.64a13.6,13.6,0,0,1,3.72-5.16,15.73,15.73,0,0,1,5.58-3,25,25,0,0,1,13.92,0,15.74,15.74,0,0,1,5.58,3,13.62,13.62,0,0,1,3.72,5.16,20.79,20.79,0,0,1,0,14.58,13.61,13.61,0,0,1-3.72,5.16,15.73,15.73,0,0,1-5.58,3,25,25,0,0,1-13.92,0,15.72,15.72,0,0,1-5.58-3,13.59,13.59,0,0,1-3.72-5.16,20.79,20.79,0,0,1,0-14.58Zm20.13,1.2a4.62,4.62,0,0,0-7.74,0q-1.35,2.1-1.35,6.42,0,7.86,5.22,7.86t5.22-7.86Q189.47,261.94,188.12,259.84Z" transform="translate(-77.24 -76.61)"/>
        <path class="cls-5" d="M228.77,255.58a5.92,5.92,0,0,1,1.68-4.56,7.27,7.27,0,0,1,9,0,5.92,5.92,0,0,1,1.68,4.56v20.94q0,5.88-5.94,5.88a4.91,4.91,0,0,1-3.9-1.44,8.06,8.06,0,0,1-1.62-4.38h-.12q-3.18,5.82-10.2,5.82-6.12,0-9.09-3.33a12.71,12.71,0,0,1-3-8.79v-14.7A5.92,5.92,0,0,1,209,251a7.27,7.27,0,0,1,9,0,5.92,5.92,0,0,1,1.68,4.56V267.4q0,5.28,4.56,5.28A3.9,3.9,0,0,0,227.6,271a7.59,7.59,0,0,0,1.17-4.47Z" transform="translate(-77.24 -76.61)"/>
        <path class="cls-5" d="M268.73,264.46q0-5.28-4.56-5.28a3.92,3.92,0,0,0-3.39,1.62,7.57,7.57,0,0,0-1.17,4.5v11a5.92,5.92,0,0,1-1.68,4.56,7.27,7.27,0,0,1-9,0,5.92,5.92,0,0,1-1.68-4.56V255.34q0-5.88,5.94-5.88a5,5,0,0,1,3.93,1.44,7.62,7.62,0,0,1,1.59,4.38h.12q3.18-5.82,10.2-5.82,6.12,0,9.09,3.33a12.71,12.71,0,0,1,3,8.79v14.7a5.92,5.92,0,0,1-1.68,4.56,7.27,7.27,0,0,1-9,0,5.92,5.92,0,0,1-1.68-4.56Z" transform="translate(-77.24 -76.61)"/>
        <path class="cls-5" d="M309,243.82a6.33,6.33,0,0,1,1.53-4.65,7.3,7.3,0,0,1,8.94,0,6.33,6.33,0,0,1,1.53,4.65V276.4q0,6-5.52,6a5.05,5.05,0,0,1-4-1.59,5.87,5.87,0,0,1-1.41-4H310a6.44,6.44,0,0,1-3.54,4.2,13.55,13.55,0,0,1-16.14-3q-3.78-4.47-3.78-12.09a21.26,21.26,0,0,1,.72-5.31,18.11,18.11,0,0,1,2.37-5.34,13.06,13.06,0,0,1,4.29-4.14,12,12,0,0,1,6.3-1.59,9.94,9.94,0,0,1,5.1,1.26,10.49,10.49,0,0,1,3.6,3.54H309ZM307.91,261a4.06,4.06,0,0,0-3.42-1.8,4.72,4.72,0,0,0-4.26,2,9.06,9.06,0,0,0-1.32,5.07,12.16,12.16,0,0,0,.27,2.61,8,8,0,0,0,.87,2.28,4.34,4.34,0,0,0,1.65,1.65,5.06,5.06,0,0,0,2.55.6,4.1,4.1,0,0,0,3.78-2,10.53,10.53,0,0,0,1.2-5.46A8.28,8.28,0,0,0,307.91,261Z" transform="translate(-77.24 -76.61)"/>
      </g>
    </g>
  </g>
  <g id="flipper">
    <rect class="cls-7" x="705.36" y="254.05" width="581.73" height="212.68" rx="12" ry="12"/>
  </g>
</svg>
