<svg xmlns="http://www.w3.org/2000/svg" width="634.55" height="439.01" viewBox="0 0 634.55 439.01">
  <defs>
    <style>
    </style>
  </defs>
  <title>flowchart1_classes</title>
  <g id="turnaround">
    <g id="turnaround_off" class="off">
      <rect class="screen" x="2" y="246" width="265.17" height="191.01" rx="20" ry="20"/>
      <path class="sc_highlight_top" d="M234.5,432.5c-22.87-1-37,11-37,38.5l12.5,3s-2-28.5,19.5-29C231,445.5,234.5,432.5,234.5,432.5Z" transform="translate(-189.69 -178.09)"/>
      <path class="sc_highlight_bottom" d="M452.5,582,441,584c-.21,15.08-7,18-22.5,18.5l-7,8.5C436.11,612,451.8,603.31,452.5,582Z" transform="translate(-189.69 -178.09)"/>
      <g>
        <path class="textcolor" d="M245.33,469.58a5.53,5.53,0,0,1-4.23-1.5,5.71,5.71,0,0,1-1.41-4.08,5.49,5.49,0,0,1,1.5-4.11,6.38,6.38,0,0,1,4.62-1.47h29.52a6.36,6.36,0,0,1,4.65,1.47,5.56,5.56,0,0,1,1.47,4.11,5.72,5.72,0,0,1-1.41,4.08,5.54,5.54,0,0,1-4.23,1.5h-8.34V495a7.66,7.66,0,0,1-1.86,5.46,7.4,7.4,0,0,1-10.08,0,7.66,7.66,0,0,1-1.86-5.46V469.58Z" transform="translate(-189.69 -178.09)"/>
        <path class="textcolor" d="M302.33,475.58A5.92,5.92,0,0,1,304,471a7.27,7.27,0,0,1,9,0,5.92,5.92,0,0,1,1.68,4.56v20.94q0,5.88-5.94,5.88a4.91,4.91,0,0,1-3.9-1.44,8.06,8.06,0,0,1-1.62-4.38h-.12q-3.18,5.82-10.2,5.82-6.12,0-9.09-3.33a12.71,12.71,0,0,1-3-8.79v-14.7a5.92,5.92,0,0,1,1.68-4.56,7.27,7.27,0,0,1,9,0,5.92,5.92,0,0,1,1.68,4.56V487.4q0,5.28,4.56,5.28a3.9,3.9,0,0,0,3.39-1.65,7.59,7.59,0,0,0,1.17-4.47Z" transform="translate(-189.69 -178.09)"/>
        <path class="textcolor" d="M320.81,475.58A6.11,6.11,0,0,1,322.4,471a5.47,5.47,0,0,1,4-1.56,5.37,5.37,0,0,1,4,1.53q1.5,1.53,1.5,4.83v2.4H332a20.74,20.74,0,0,1,3.54-6.6,5.85,5.85,0,0,1,4.5-2.16,4.4,4.4,0,0,1,3.84,1.68,6.74,6.74,0,0,1,1.2,4q0,4.68-3.36,5.52l-3.36.84a8,8,0,0,0-4,2,5.93,5.93,0,0,0-1.26,4.2v8.58a5.92,5.92,0,0,1-1.68,4.56,7.27,7.27,0,0,1-9,0,5.92,5.92,0,0,1-1.68-4.56Z" transform="translate(-189.69 -178.09)"/>
        <path class="textcolor" d="M371.15,484.46q0-5.28-4.56-5.28a3.92,3.92,0,0,0-3.39,1.62,7.57,7.57,0,0,0-1.17,4.5v11a5.92,5.92,0,0,1-1.68,4.56,7.27,7.27,0,0,1-9,0,5.92,5.92,0,0,1-1.68-4.56V475.34q0-5.88,5.94-5.88a5,5,0,0,1,3.93,1.44,7.62,7.62,0,0,1,1.59,4.38h.12q3.18-5.82,10.2-5.82,6.12,0,9.09,3.33a12.71,12.71,0,0,1,3,8.79v14.7a5.92,5.92,0,0,1-1.68,4.56,7.27,7.27,0,0,1-9,0,5.92,5.92,0,0,1-1.68-4.56Z" transform="translate(-189.69 -178.09)"/>
        <path class="textcolor" d="M245.88,564.44q0,1.14.18,3.3a22.24,22.24,0,0,1,.18,2.28,3.67,3.67,0,0,1-1.68,3.27,7.24,7.24,0,0,1-4.08,1.11,6.41,6.41,0,0,1-4.44-1.32,6,6,0,0,1-1.8-3.66,9.76,9.76,0,0,1-4.65,3.78,16.9,16.9,0,0,1-6.39,1.2q-5.4,0-8.55-2.37t-3.15-7.35a8.53,8.53,0,0,1,.78-3.69,7.87,7.87,0,0,1,2.61-3,14.86,14.86,0,0,1,4.92-2.13,41.31,41.31,0,0,1,7.59-1.11,16,16,0,0,0,5-.9,2.23,2.23,0,0,0,1.44-2.16q0-3.06-5-3.06a7.8,7.8,0,0,0-3.15.57,17.42,17.42,0,0,0-3,1.77,18.23,18.23,0,0,1-2.37,1.44,5.22,5.22,0,0,1-2.31.48q-3.9,0-3.9-3.84,0-3.42,4.26-5.52a24.4,24.4,0,0,1,10.8-2.1,41.17,41.17,0,0,1,5.64.39,22.37,22.37,0,0,1,5.34,1.41,10.36,10.36,0,0,1,4.08,2.85,6.83,6.83,0,0,1,1.56,4.59Zm-12-4.92a4,4,0,0,1-1.89,1.11,27.56,27.56,0,0,1-3,.63,18,18,0,0,0-3.06.66,2.52,2.52,0,0,0-1.68,2.58,2.67,2.67,0,0,0,1.11,2.19,4.19,4.19,0,0,0,2.67.87,6.46,6.46,0,0,0,4.23-1.35,4,4,0,0,0,1.65-3.15Z" transform="translate(-189.69 -178.09)"/>
        <path class="textcolor" d="M252,547.58a6.11,6.11,0,0,1,1.59-4.56,5.47,5.47,0,0,1,4-1.56,5.37,5.37,0,0,1,4,1.53q1.5,1.53,1.5,4.83v2.4h.12a20.73,20.73,0,0,1,3.54-6.6,5.85,5.85,0,0,1,4.5-2.16,4.4,4.4,0,0,1,3.84,1.68,6.74,6.74,0,0,1,1.2,4q0,4.68-3.36,5.52l-3.36.84a8,8,0,0,0-4,2,5.92,5.92,0,0,0-1.26,4.2v8.58a5.92,5.92,0,0,1-1.68,4.56,7.27,7.27,0,0,1-9,0,5.92,5.92,0,0,1-1.68-4.56Z" transform="translate(-189.69 -178.09)"/>
        <path class="textcolor" d="M280.44,550.64a13.61,13.61,0,0,1,3.72-5.16,15.73,15.73,0,0,1,5.58-3,25,25,0,0,1,13.92,0,15.74,15.74,0,0,1,5.58,3,13.63,13.63,0,0,1,3.72,5.16,20.79,20.79,0,0,1,0,14.58,13.61,13.61,0,0,1-3.72,5.16,15.73,15.73,0,0,1-5.58,3,25,25,0,0,1-13.92,0,15.72,15.72,0,0,1-5.58-3,13.59,13.59,0,0,1-3.72-5.16,20.79,20.79,0,0,1,0-14.58Zm20.13,1.2a4.62,4.62,0,0,0-7.74,0q-1.35,2.1-1.35,6.42,0,7.86,5.22,7.86t5.22-7.86Q301.92,553.94,300.56,551.84Z" transform="translate(-189.69 -178.09)"/>
        <path class="textcolor" d="M341.21,547.58a5.92,5.92,0,0,1,1.68-4.56,7.27,7.27,0,0,1,9,0,5.93,5.93,0,0,1,1.68,4.56v20.94q0,5.88-5.94,5.88a4.91,4.91,0,0,1-3.9-1.44,8.06,8.06,0,0,1-1.62-4.38H342q-3.18,5.82-10.2,5.82-6.12,0-9.09-3.33a12.71,12.71,0,0,1-3-8.79v-14.7a5.92,5.92,0,0,1,1.68-4.56,7.27,7.27,0,0,1,9,0,5.93,5.93,0,0,1,1.68,4.56V559.4q0,5.28,4.56,5.28A3.9,3.9,0,0,0,340,563a7.6,7.6,0,0,0,1.17-4.47Z" transform="translate(-189.69 -178.09)"/>
        <path class="textcolor" d="M381.17,556.46q0-5.28-4.56-5.28a3.92,3.92,0,0,0-3.39,1.62,7.57,7.57,0,0,0-1.17,4.5v11a5.92,5.92,0,0,1-1.68,4.56,7.27,7.27,0,0,1-9,0,5.92,5.92,0,0,1-1.68-4.56V547.34q0-5.88,5.94-5.88a5,5,0,0,1,3.93,1.44,7.63,7.63,0,0,1,1.59,4.38h.12q3.18-5.82,10.2-5.82,6.12,0,9.09,3.33a12.71,12.71,0,0,1,3,8.79v14.7a5.92,5.92,0,0,1-1.68,4.56,7.27,7.27,0,0,1-9,0,5.92,5.92,0,0,1-1.68-4.56Z" transform="translate(-189.69 -178.09)"/>
        <path class="textcolor" d="M421.49,535.82a6.33,6.33,0,0,1,1.53-4.65,7.3,7.3,0,0,1,8.94,0,6.33,6.33,0,0,1,1.53,4.65V568.4q0,6-5.52,6a5.05,5.05,0,0,1-4-1.59,5.87,5.87,0,0,1-1.41-4h-.12a6.44,6.44,0,0,1-3.54,4.2,13.55,13.55,0,0,1-16.14-3Q399,565.46,399,557.84a21.26,21.26,0,0,1,.72-5.31,18.11,18.11,0,0,1,2.37-5.34,13.07,13.07,0,0,1,4.29-4.14,12,12,0,0,1,6.3-1.59,10,10,0,0,1,5.1,1.26,10.5,10.5,0,0,1,3.6,3.54h.12ZM420.35,553a4.06,4.06,0,0,0-3.42-1.8,4.72,4.72,0,0,0-4.26,2,9.06,9.06,0,0,0-1.32,5.07,12.16,12.16,0,0,0,.27,2.61,8,8,0,0,0,.87,2.28,4.34,4.34,0,0,0,1.65,1.65,5.06,5.06,0,0,0,2.55.6,4.1,4.1,0,0,0,3.78-2,10.53,10.53,0,0,0,1.2-5.46A8.28,8.28,0,0,0,420.35,553Z" transform="translate(-189.69 -178.09)"/>
      </g>
    </g>
    <g id="turnaround_on" class="on">
      <rect class="screen" x="2" y="2" width="265.17" height="191.01" rx="20" ry="20"/>
      <path class="sc_highlight_bottom" d="M452.5,338,441,340c-.21,15.08-7,18-22.5,18.5l-7,8.5C436.11,368,451.8,359.31,452.5,338Z" transform="translate(-189.69 -178.09)"/>
      <path class="sc_highlight_top" d="M234.5,188.5c-22.87-1-37,11-37,38.5l12.5,3s-2-28.5,19.5-29C231,201.5,234.5,188.5,234.5,188.5Z" transform="translate(-189.69 -178.09)"/>
      <g>
        <path class="textcolor" d="M245.33,225.58a5.53,5.53,0,0,1-4.23-1.5,5.71,5.71,0,0,1-1.41-4.08,5.49,5.49,0,0,1,1.5-4.11,6.38,6.38,0,0,1,4.62-1.47h29.52a6.36,6.36,0,0,1,4.65,1.47,5.56,5.56,0,0,1,1.47,4.11,5.72,5.72,0,0,1-1.41,4.08,5.54,5.54,0,0,1-4.23,1.5h-8.34V251a7.66,7.66,0,0,1-1.86,5.46,7.4,7.4,0,0,1-10.08,0,7.66,7.66,0,0,1-1.86-5.46V225.58Z" transform="translate(-189.69 -178.09)"/>
        <path class="textcolor" d="M302.33,231.58A5.92,5.92,0,0,1,304,227a7.27,7.27,0,0,1,9,0,5.92,5.92,0,0,1,1.68,4.56v20.94q0,5.88-5.94,5.88a4.91,4.91,0,0,1-3.9-1.44,8.06,8.06,0,0,1-1.62-4.38h-.12q-3.18,5.82-10.2,5.82-6.12,0-9.09-3.33a12.71,12.71,0,0,1-3-8.79v-14.7a5.92,5.92,0,0,1,1.68-4.56,7.27,7.27,0,0,1,9,0,5.92,5.92,0,0,1,1.68,4.56V243.4q0,5.28,4.56,5.28a3.9,3.9,0,0,0,3.39-1.65,7.59,7.59,0,0,0,1.17-4.47Z" transform="translate(-189.69 -178.09)"/>
        <path class="textcolor" d="M320.81,231.58A6.11,6.11,0,0,1,322.4,227a5.47,5.47,0,0,1,4-1.56,5.37,5.37,0,0,1,4,1.53q1.5,1.53,1.5,4.83v2.4H332a20.74,20.74,0,0,1,3.54-6.6,5.85,5.85,0,0,1,4.5-2.16,4.4,4.4,0,0,1,3.84,1.68,6.74,6.74,0,0,1,1.2,4q0,4.68-3.36,5.52l-3.36.84a8,8,0,0,0-4,2,5.93,5.93,0,0,0-1.26,4.2v8.58a5.92,5.92,0,0,1-1.68,4.56,7.27,7.27,0,0,1-9,0,5.92,5.92,0,0,1-1.68-4.56Z" transform="translate(-189.69 -178.09)"/>
        <path class="textcolor" d="M371.15,240.46q0-5.28-4.56-5.28a3.92,3.92,0,0,0-3.39,1.62,7.57,7.57,0,0,0-1.17,4.5v11a5.92,5.92,0,0,1-1.68,4.56,7.27,7.27,0,0,1-9,0,5.92,5.92,0,0,1-1.68-4.56V231.34q0-5.88,5.94-5.88a5,5,0,0,1,3.93,1.44,7.62,7.62,0,0,1,1.59,4.38h.12q3.18-5.82,10.2-5.82,6.12,0,9.09,3.33a12.71,12.71,0,0,1,3,8.79v14.7a5.92,5.92,0,0,1-1.68,4.56,7.27,7.27,0,0,1-9,0,5.92,5.92,0,0,1-1.68-4.56Z" transform="translate(-189.69 -178.09)"/>
        <path class="textcolor" d="M245.88,320.44q0,1.14.18,3.3a22.24,22.24,0,0,1,.18,2.28,3.67,3.67,0,0,1-1.68,3.27,7.24,7.24,0,0,1-4.08,1.11,6.4,6.4,0,0,1-4.44-1.32,6,6,0,0,1-1.8-3.66,9.76,9.76,0,0,1-4.65,3.78,16.9,16.9,0,0,1-6.39,1.2q-5.4,0-8.55-2.37t-3.15-7.35a8.53,8.53,0,0,1,.78-3.69,7.86,7.86,0,0,1,2.61-3,14.85,14.85,0,0,1,4.92-2.13,41.35,41.35,0,0,1,7.59-1.11,15.93,15.93,0,0,0,5-.9,2.23,2.23,0,0,0,1.44-2.16q0-3.06-5-3.06a7.79,7.79,0,0,0-3.15.57,17.41,17.41,0,0,0-3,1.77,18.24,18.24,0,0,1-2.37,1.44,5.23,5.23,0,0,1-2.31.48q-3.9,0-3.9-3.84,0-3.42,4.26-5.52a24.4,24.4,0,0,1,10.8-2.1,41.17,41.17,0,0,1,5.64.39,22.37,22.37,0,0,1,5.34,1.41,10.36,10.36,0,0,1,4.08,2.85,6.83,6.83,0,0,1,1.56,4.59Zm-12-4.92a4,4,0,0,1-1.89,1.11,27.66,27.66,0,0,1-3,.63,18,18,0,0,0-3.06.66,2.52,2.52,0,0,0-1.68,2.58,2.67,2.67,0,0,0,1.11,2.19,4.19,4.19,0,0,0,2.67.87,6.46,6.46,0,0,0,4.23-1.35,4,4,0,0,0,1.65-3.15Z" transform="translate(-189.69 -178.09)"/>
        <path class="textcolor" d="M252,303.58a6.11,6.11,0,0,1,1.59-4.56,5.47,5.47,0,0,1,4-1.56,5.37,5.37,0,0,1,4,1.53q1.5,1.53,1.5,4.83v2.4h.12a20.74,20.74,0,0,1,3.54-6.6,5.85,5.85,0,0,1,4.5-2.16,4.4,4.4,0,0,1,3.84,1.68,6.74,6.74,0,0,1,1.2,4q0,4.68-3.36,5.52l-3.36.84a8,8,0,0,0-4,2,5.93,5.93,0,0,0-1.26,4.2v8.58a5.92,5.92,0,0,1-1.68,4.56,7.27,7.27,0,0,1-9,0,5.92,5.92,0,0,1-1.68-4.56Z" transform="translate(-189.69 -178.09)"/>
        <path class="textcolor" d="M280.44,306.64a13.6,13.6,0,0,1,3.72-5.16,15.73,15.73,0,0,1,5.58-3,25,25,0,0,1,13.92,0,15.74,15.74,0,0,1,5.58,3,13.62,13.62,0,0,1,3.72,5.16,20.79,20.79,0,0,1,0,14.58,13.61,13.61,0,0,1-3.72,5.16,15.73,15.73,0,0,1-5.58,3,25,25,0,0,1-13.92,0,15.72,15.72,0,0,1-5.58-3,13.59,13.59,0,0,1-3.72-5.16,20.79,20.79,0,0,1,0-14.58Zm20.13,1.2a4.62,4.62,0,0,0-7.74,0q-1.35,2.1-1.35,6.42,0,7.86,5.22,7.86t5.22-7.86Q301.92,309.94,300.56,307.84Z" transform="translate(-189.69 -178.09)"/>
        <path class="textcolor" d="M341.21,303.58a5.92,5.92,0,0,1,1.68-4.56,7.27,7.27,0,0,1,9,0,5.92,5.92,0,0,1,1.68,4.56v20.94q0,5.88-5.94,5.88a4.91,4.91,0,0,1-3.9-1.44,8.06,8.06,0,0,1-1.62-4.38H342q-3.18,5.82-10.2,5.82-6.12,0-9.09-3.33a12.71,12.71,0,0,1-3-8.79v-14.7a5.92,5.92,0,0,1,1.68-4.56,7.27,7.27,0,0,1,9,0,5.92,5.92,0,0,1,1.68,4.56V315.4q0,5.28,4.56,5.28A3.9,3.9,0,0,0,340,319a7.59,7.59,0,0,0,1.17-4.47Z" transform="translate(-189.69 -178.09)"/>
        <path class="textcolor" d="M381.17,312.46q0-5.28-4.56-5.28a3.92,3.92,0,0,0-3.39,1.62,7.57,7.57,0,0,0-1.17,4.5v11a5.92,5.92,0,0,1-1.68,4.56,7.27,7.27,0,0,1-9,0,5.92,5.92,0,0,1-1.68-4.56V303.34q0-5.88,5.94-5.88a5,5,0,0,1,3.93,1.44,7.62,7.62,0,0,1,1.59,4.38h.12q3.18-5.82,10.2-5.82,6.12,0,9.09,3.33a12.71,12.71,0,0,1,3,8.79v14.7a5.92,5.92,0,0,1-1.68,4.56,7.27,7.27,0,0,1-9,0,5.92,5.92,0,0,1-1.68-4.56Z" transform="translate(-189.69 -178.09)"/>
        <path class="textcolor" d="M421.49,291.82a6.33,6.33,0,0,1,1.53-4.65,7.3,7.3,0,0,1,8.94,0,6.33,6.33,0,0,1,1.53,4.65V324.4q0,6-5.52,6a5.05,5.05,0,0,1-4-1.59,5.87,5.87,0,0,1-1.41-4h-.12a6.44,6.44,0,0,1-3.54,4.2,13.55,13.55,0,0,1-16.14-3Q399,321.46,399,313.84a21.26,21.26,0,0,1,.72-5.31,18.11,18.11,0,0,1,2.37-5.34,13.06,13.06,0,0,1,4.29-4.14,12,12,0,0,1,6.3-1.59,9.94,9.94,0,0,1,5.1,1.26,10.49,10.49,0,0,1,3.6,3.54h.12ZM420.35,309a4.06,4.06,0,0,0-3.42-1.8,4.72,4.72,0,0,0-4.26,2,9.06,9.06,0,0,0-1.32,5.07,12.16,12.16,0,0,0,.27,2.61,8,8,0,0,0,.87,2.28,4.34,4.34,0,0,0,1.65,1.65,5.06,5.06,0,0,0,2.55.6,4.1,4.1,0,0,0,3.78-2,10.53,10.53,0,0,0,1.2-5.46A8.28,8.28,0,0,0,420.35,309Z" transform="translate(-189.69 -178.09)"/>
      </g>
    </g>
  </g>
  <g id="brighteyes">
    <g id="brighteyes_off" class="off">
      <rect class="screen" x="391.24" y="244" width="241.31" height="72.91" rx="20" ry="20"/>
      <path class="sc_highlight_top" d="M607.71,430.48c-13-.54-21,6.24-21,21.82l7.09,1.7s-1.13-16.15,11.05-16.44C605.72,437.85,607.71,430.48,607.71,430.48Z" transform="translate(-189.69 -178.09)"/>
      <path class="sc_highlight_bottom" d="M817.74,467l-9.12,1.59c-.16,12-5.55,14.27-17.84,14.66L785.24,490C804.74,490.81,817.18,483.92,817.74,467Z" transform="translate(-189.69 -178.09)"/>
      <g>
        <path class="textcolor" d="M605.76,449.15a3.44,3.44,0,0,1,.88-2.66,3.73,3.73,0,0,1,2.57-.79h7.85a21,21,0,0,1,3.46.27,9.84,9.84,0,0,1,3,1,5.65,5.65,0,0,1,2.2,2.05,6.32,6.32,0,0,1,.83,3.38,5.52,5.52,0,0,1-.94,3.13,5.75,5.75,0,0,1-2.7,2.12v.07a6.07,6.07,0,0,1,3.35,2.11,6.55,6.55,0,0,1,1.19,4.12,7.53,7.53,0,0,1-.74,3.44,6.44,6.44,0,0,1-2.07,2.39,9.38,9.38,0,0,1-3,1.39,14.42,14.42,0,0,1-3.69.45h-8.68a3.73,3.73,0,0,1-2.57-.79,3.44,3.44,0,0,1-.88-2.66Zm5.9,7.2h4.86q4.1,0,4.1-3.17a2.63,2.63,0,0,0-1.19-2.45,5.91,5.91,0,0,0-3.1-.72h-4.68Zm0,10.73h5a10.83,10.83,0,0,0,1.82-.14,5.3,5.3,0,0,0,1.55-.5,2.75,2.75,0,0,0,1.12-1,3.37,3.37,0,0,0,.41-1.76,3.42,3.42,0,0,0-.45-1.84,2.82,2.82,0,0,0-1.22-1.08,6,6,0,0,0-1.75-.49,17.24,17.24,0,0,0-2.2-.13h-4.25Z" transform="translate(-189.69 -178.09)"/>
        <path class="textcolor" d="M631.4,454.77a2.39,2.39,0,0,1,.67-1.8,2.58,2.58,0,0,1,3.42,0,2.4,2.4,0,0,1,.67,1.8v2h.07a8.69,8.69,0,0,1,1.57-3.2,3.41,3.41,0,0,1,2.79-1.26,3,3,0,0,1,2.07.72,2.35,2.35,0,0,1,.81,1.84,2.49,2.49,0,0,1-.74,2,2.76,2.76,0,0,1-1.85.63h-.94a2.69,2.69,0,0,0-2.47,1.33,9.16,9.16,0,0,0-.81,4.5v6.12a2.91,2.91,0,0,1-.59,1.91,3.23,3.23,0,0,1-4.07,0,2.91,2.91,0,0,1-.59-1.91Z" transform="translate(-189.69 -178.09)"/>
        <path class="textcolor" d="M646.73,445.88a2.78,2.78,0,1,1-.79,1.94A2.64,2.64,0,0,1,646.73,445.88Zm-.68,9.07a2.91,2.91,0,0,1,.59-1.91,3.23,3.23,0,0,1,4.07,0,2.91,2.91,0,0,1,.59,1.91v14.51a2.91,2.91,0,0,1-.59,1.91,3.23,3.23,0,0,1-4.07,0,2.91,2.91,0,0,1-.59-1.91Z" transform="translate(-189.69 -178.09)"/>
        <path class="textcolor" d="M673.59,470.07q0,4.57-2.54,6.91a9.67,9.67,0,0,1-6.82,2.34,13.16,13.16,0,0,1-2.93-.32,10.67,10.67,0,0,1-2.54-.9,5.58,5.58,0,0,1-1.78-1.39,2.7,2.7,0,0,1-.67-1.75,2.15,2.15,0,0,1,.65-1.58,2.07,2.07,0,0,1,1.51-.65,2.25,2.25,0,0,1,1.17.29,7.85,7.85,0,0,1,1.17.9,8.22,8.22,0,0,0,1.51,1.13,3.54,3.54,0,0,0,1.73.38,4.13,4.13,0,0,0,3.46-1.33,7.28,7.28,0,0,0,1-4.43v-1.08h-.07a5.73,5.73,0,0,1-2.14,1.78,6.29,6.29,0,0,1-2.93.74,8,8,0,0,1-6.25-2.39,9.13,9.13,0,0,1-2.18-6.39q0-4.86,2.45-7.56a7.19,7.19,0,0,1,2.61-1.84,8.33,8.33,0,0,1,3.19-.61,6.69,6.69,0,0,1,3.37.83,5.25,5.25,0,0,1,2.18,2.3h.07v-.65q0-2.48,2.38-2.48t2.38,2.48Zm-12.31-4.36a3.55,3.55,0,0,0,3.13,1.51,3.77,3.77,0,0,0,3-1.31,6,6,0,0,0,1.13-4,7,7,0,0,0-1-4.16,3.38,3.38,0,0,0-2.88-1.35,3.79,3.79,0,0,0-3.4,1.53,7.45,7.45,0,0,0-1,4.19A6.12,6.12,0,0,0,661.28,465.71Z" transform="translate(-189.69 -178.09)"/>
        <path class="textcolor" d="M677.76,447.86a2.59,2.59,0,0,1,.7-1.94,3.05,3.05,0,0,1,3.85,0,2.59,2.59,0,0,1,.7,1.94v7.24h.07a7,7,0,0,1,5.87-2.77,8.63,8.63,0,0,1,2.43.34,5.74,5.74,0,0,1,2.12,1.15A5.56,5.56,0,0,1,695,456a8.54,8.54,0,0,1,.56,3.26v10.22a2.91,2.91,0,0,1-.59,1.91,3.23,3.23,0,0,1-4.07,0,2.91,2.91,0,0,1-.59-1.91v-9.18a4,4,0,0,0-.83-2.65,3.05,3.05,0,0,0-2.48-1,4,4,0,0,0-2.75,1.13,3.87,3.87,0,0,0-1.24,3v8.68a2.9,2.9,0,0,1-.59,1.91,3.23,3.23,0,0,1-4.07,0,2.9,2.9,0,0,1-.59-1.91Z" transform="translate(-189.69 -178.09)"/>
        <path class="textcolor" d="M701.13,456.25h-.9q-2.09,0-2.09-1.73t2.09-1.73h.9v-3.2a2.59,2.59,0,0,1,.7-1.94,3.05,3.05,0,0,1,3.85,0,2.59,2.59,0,0,1,.7,1.94v3.2H708q2.38,0,2.38,1.73T708,456.25h-1.58v10.51q0,1.22,1.37,1.22h.76q1.84,0,1.84,1.76,0,2.34-3.82,2.34a6,6,0,0,1-4.1-1.17,4.49,4.49,0,0,1-1.3-3.51Z" transform="translate(-189.69 -178.09)"/>
        <path class="textcolor" d="M728.56,463.19a4.52,4.52,0,0,0,4.86,4.79,5.46,5.46,0,0,0,2.36-.41,7.9,7.9,0,0,0,1.71-1.17,5.74,5.74,0,0,1,1-.76,2.19,2.19,0,0,1,2.57.4,2,2,0,0,1,.63,1.4,2.91,2.91,0,0,1-.79,2,6.3,6.3,0,0,1-2.07,1.48,12.06,12.06,0,0,1-2.7.88,13.58,13.58,0,0,1-2.68.29,11.83,11.83,0,0,1-4.57-.81,8.6,8.6,0,0,1-3.17-2.18,8.79,8.79,0,0,1-1.8-3.06,10.74,10.74,0,0,1-.58-3.49,10.31,10.31,0,0,1,2.66-7.43,9.58,9.58,0,0,1,7.27-2.79,10.78,10.78,0,0,1,4,.7,8.75,8.75,0,0,1,3,1.94,8.45,8.45,0,0,1,1.87,2.77,8.29,8.29,0,0,1,.63,3.19,2.5,2.5,0,0,1-.49,1.8,2.65,2.65,0,0,1-1.82.47Zm9.22-3a4.75,4.75,0,0,0-1.46-3,4.18,4.18,0,0,0-3-1.17,4.51,4.51,0,0,0-3.13,1.1,5.6,5.6,0,0,0-1.66,3.08Z" transform="translate(-189.69 -178.09)"/>
        <path class="textcolor" d="M753.11,466.58h.07l3.2-11.92a3.81,3.81,0,0,1,.9-1.71,2.16,2.16,0,0,1,1.62-.63,2.78,2.78,0,0,1,1.26.27,2.51,2.51,0,0,1,.85.65,2.72,2.72,0,0,1,.45.77,2.06,2.06,0,0,1,.14.68,5.29,5.29,0,0,1-.4,1.66l-6.08,17.24a11,11,0,0,1-2.32,4.18,5,5,0,0,1-3.69,1.3,3.84,3.84,0,0,1-2.48-.68,2.15,2.15,0,0,1-.83-1.73,1.93,1.93,0,0,1,.67-1.57,2.63,2.63,0,0,1,1.75-.56h.54a2.07,2.07,0,0,0,1.13-.29,2.19,2.19,0,0,0,.7-1.37l-5.47-15.59q-.07-.18-.11-.29-.29-.9-.41-1.33a3,3,0,0,1-.13-.83,2.38,2.38,0,0,1,.76-1.8,2.52,2.52,0,0,1,1.8-.72,2.85,2.85,0,0,1,1.75.52,2.59,2.59,0,0,1,1,1.46Z" transform="translate(-189.69 -178.09)"/>
        <path class="textcolor" d="M768.16,463.19A4.52,4.52,0,0,0,773,468a5.46,5.46,0,0,0,2.36-.41,7.9,7.9,0,0,0,1.71-1.17,5.74,5.74,0,0,1,1-.76,2.19,2.19,0,0,1,2.57.4,2,2,0,0,1,.63,1.4,2.91,2.91,0,0,1-.79,2,6.3,6.3,0,0,1-2.07,1.48,12.06,12.06,0,0,1-2.7.88,13.58,13.58,0,0,1-2.68.29,11.83,11.83,0,0,1-4.57-.81,8.6,8.6,0,0,1-3.17-2.18,8.79,8.79,0,0,1-1.8-3.06,10.74,10.74,0,0,1-.58-3.49,10.31,10.31,0,0,1,2.66-7.43,9.58,9.58,0,0,1,7.27-2.79,10.78,10.78,0,0,1,4,.7,8.75,8.75,0,0,1,3,1.94,8.45,8.45,0,0,1,1.87,2.77,8.29,8.29,0,0,1,.63,3.19,2.5,2.5,0,0,1-.49,1.8,2.65,2.65,0,0,1-1.82.47Zm9.22-3a4.75,4.75,0,0,0-1.46-3,4.18,4.18,0,0,0-3-1.17,4.51,4.51,0,0,0-3.13,1.1,5.6,5.6,0,0,0-1.66,3.08Z" transform="translate(-189.69 -178.09)"/>
        <path class="textcolor" d="M785.58,455.51a5.36,5.36,0,0,1,1.84-1.84,8.6,8.6,0,0,1,2.54-1,12.38,12.38,0,0,1,2.83-.32,15,15,0,0,1,3,.29,12,12,0,0,1,2.59.81,5.3,5.3,0,0,1,1.82,1.28,2.41,2.41,0,0,1,.67,1.62,2.37,2.37,0,0,1-.59,1.64,2,2,0,0,1-1.6.67,2,2,0,0,1-1-.23,7.16,7.16,0,0,1-1-.77,6.74,6.74,0,0,0-1.48-1,4.4,4.4,0,0,0-1.94-.36,5.09,5.09,0,0,0-2.23.4,1.29,1.29,0,0,0-.79,1.22,1.24,1.24,0,0,0,.67,1.19,8.75,8.75,0,0,0,2.14.68l2.2.5a24.77,24.77,0,0,1,2.45.7,8.39,8.39,0,0,1,2,1,5.13,5.13,0,0,1,1.51,1.62,4.37,4.37,0,0,1,.58,2.27,5.39,5.39,0,0,1-.68,2.74,6,6,0,0,1-1.84,2,8.18,8.18,0,0,1-2.61,1.17,11.79,11.79,0,0,1-3,.38,15.09,15.09,0,0,1-3.35-.36,10.58,10.58,0,0,1-2.79-1,6.29,6.29,0,0,1-1.89-1.51,2.84,2.84,0,0,1-.68-1.82,2.33,2.33,0,0,1,.54-1.57,2,2,0,0,1,1.58-.63,2,2,0,0,1,1.12.31,7.88,7.88,0,0,1,1.15,1,8.28,8.28,0,0,0,1.76,1.44,4.63,4.63,0,0,0,2.34.5,4.06,4.06,0,0,0,2.21-.54,1.59,1.59,0,0,0,.85-1.37,1.3,1.3,0,0,0-.61-1.22,8.45,8.45,0,0,0-2.12-.72l-.29-.07-3.1-.76a9.57,9.57,0,0,1-4-1.87,4.61,4.61,0,0,1-1.4-3.67A5.09,5.09,0,0,1,785.58,455.51Z" transform="translate(-189.69 -178.09)"/>
      </g>
    </g>
    <g id="brighteyes_on" class="on">
      <rect class="screen" x="389.81" y="123.46" width="241.31" height="72.91" rx="20" ry="20"/>
      <path class="sc_highlight_top" d="M606.29,309.93c-13-.54-21,6.24-21,21.82l7.09,1.7S591.27,317.3,603.45,317C604.3,317.3,606.29,309.93,606.29,309.93Z" transform="translate(-189.69 -178.09)"/>
      <path class="sc_highlight_bottom" d="M816.31,346.48l-9.12,1.59c-.16,12-5.55,14.27-17.84,14.66l-5.55,6.74C803.32,370.27,815.76,363.37,816.31,346.48Z" transform="translate(-189.69 -178.09)"/>
      <g>
        <path class="textcolor" d="M604.34,328.61a3.44,3.44,0,0,1,.88-2.66,3.73,3.73,0,0,1,2.57-.79h7.85a21,21,0,0,1,3.46.27,9.85,9.85,0,0,1,3,1,5.65,5.65,0,0,1,2.2,2.05,6.32,6.32,0,0,1,.83,3.38,5.52,5.52,0,0,1-.94,3.13,5.75,5.75,0,0,1-2.7,2.12v.07a6.06,6.06,0,0,1,3.35,2.11A6.55,6.55,0,0,1,626,343.4a7.53,7.53,0,0,1-.74,3.44,6.44,6.44,0,0,1-2.07,2.39,9.39,9.39,0,0,1-3,1.39,14.43,14.43,0,0,1-3.69.45H607.8a3.73,3.73,0,0,1-2.57-.79,3.44,3.44,0,0,1-.88-2.66Zm5.9,7.2h4.86q4.1,0,4.1-3.17a2.63,2.63,0,0,0-1.19-2.45,5.91,5.91,0,0,0-3.1-.72h-4.68Zm0,10.73h5a10.82,10.82,0,0,0,1.82-.14,5.3,5.3,0,0,0,1.55-.5,2.75,2.75,0,0,0,1.12-1,3.37,3.37,0,0,0,.41-1.76,3.42,3.42,0,0,0-.45-1.84,2.82,2.82,0,0,0-1.22-1.08,6,6,0,0,0-1.75-.49,17.22,17.22,0,0,0-2.2-.13h-4.25Z" transform="translate(-189.69 -178.09)"/>
        <path class="textcolor" d="M630,334.22a2.39,2.39,0,0,1,.67-1.8,2.58,2.58,0,0,1,3.42,0,2.4,2.4,0,0,1,.67,1.8v2h.07a8.69,8.69,0,0,1,1.57-3.2,3.41,3.41,0,0,1,2.79-1.26,3,3,0,0,1,2.07.72,2.35,2.35,0,0,1,.81,1.84,2.49,2.49,0,0,1-.74,2,2.76,2.76,0,0,1-1.85.63h-.94a2.69,2.69,0,0,0-2.47,1.33,9.15,9.15,0,0,0-.81,4.5v6.12a2.9,2.9,0,0,1-.59,1.91,3.23,3.23,0,0,1-4.07,0,2.9,2.9,0,0,1-.59-1.91Z" transform="translate(-189.69 -178.09)"/>
        <path class="textcolor" d="M645.31,325.33a2.78,2.78,0,1,1-.79,1.94A2.64,2.64,0,0,1,645.31,325.33Zm-.68,9.07a2.9,2.9,0,0,1,.59-1.91,3.23,3.23,0,0,1,4.07,0,2.9,2.9,0,0,1,.59,1.91v14.51a2.9,2.9,0,0,1-.59,1.91,3.23,3.23,0,0,1-4.07,0,2.9,2.9,0,0,1-.59-1.91Z" transform="translate(-189.69 -178.09)"/>
        <path class="textcolor" d="M672.17,349.52q0,4.57-2.54,6.91a9.67,9.67,0,0,1-6.82,2.34,13.15,13.15,0,0,1-2.93-.32,10.69,10.69,0,0,1-2.54-.9,5.58,5.58,0,0,1-1.78-1.39,2.7,2.7,0,0,1-.67-1.75,2.15,2.15,0,0,1,.65-1.58,2.07,2.07,0,0,1,1.51-.65,2.25,2.25,0,0,1,1.17.29,7.85,7.85,0,0,1,1.17.9,8.2,8.2,0,0,0,1.51,1.13,3.54,3.54,0,0,0,1.73.38,4.13,4.13,0,0,0,3.46-1.33,7.28,7.28,0,0,0,1-4.43V348h-.07a5.73,5.73,0,0,1-2.14,1.78,6.29,6.29,0,0,1-2.93.74,8,8,0,0,1-6.25-2.39,9.13,9.13,0,0,1-2.18-6.39q0-4.86,2.45-7.56a7.19,7.19,0,0,1,2.61-1.84,8.32,8.32,0,0,1,3.19-.61,6.69,6.69,0,0,1,3.37.83,5.25,5.25,0,0,1,2.18,2.3h.07v-.65q0-2.48,2.38-2.48t2.38,2.48Zm-12.31-4.36a3.55,3.55,0,0,0,3.13,1.51,3.77,3.77,0,0,0,3-1.31,6,6,0,0,0,1.13-4,7,7,0,0,0-1-4.16,3.38,3.38,0,0,0-2.88-1.35,3.79,3.79,0,0,0-3.4,1.53,7.45,7.45,0,0,0-1,4.19A6.11,6.11,0,0,0,659.85,345.17Z" transform="translate(-189.69 -178.09)"/>
        <path class="textcolor" d="M676.34,327.31a2.59,2.59,0,0,1,.7-1.94,3.05,3.05,0,0,1,3.85,0,2.59,2.59,0,0,1,.7,1.94v7.24h.07a7,7,0,0,1,5.87-2.77,8.63,8.63,0,0,1,2.43.34,5.75,5.75,0,0,1,2.12,1.15,5.56,5.56,0,0,1,1.51,2.16,8.53,8.53,0,0,1,.56,3.26v10.22a2.9,2.9,0,0,1-.59,1.91,3.23,3.23,0,0,1-4.07,0,2.9,2.9,0,0,1-.59-1.91v-9.18a4,4,0,0,0-.83-2.65,3.06,3.06,0,0,0-2.48-1,4,4,0,0,0-2.75,1.13,3.87,3.87,0,0,0-1.24,3v8.68a2.9,2.9,0,0,1-.59,1.91,3.23,3.23,0,0,1-4.07,0,2.9,2.9,0,0,1-.59-1.91Z" transform="translate(-189.69 -178.09)"/>
        <path class="textcolor" d="M699.71,335.7h-.9q-2.09,0-2.09-1.73t2.09-1.73h.9V329a2.59,2.59,0,0,1,.7-1.94,3.05,3.05,0,0,1,3.85,0A2.59,2.59,0,0,1,705,329v3.2h1.58q2.38,0,2.38,1.73t-2.38,1.73H705v10.51q0,1.22,1.37,1.22h.76q1.84,0,1.84,1.76,0,2.34-3.82,2.34a6,6,0,0,1-4.1-1.17,4.49,4.49,0,0,1-1.3-3.51Z" transform="translate(-189.69 -178.09)"/>
        <path class="textcolor" d="M727.14,342.65a4.52,4.52,0,0,0,4.86,4.79,5.47,5.47,0,0,0,2.36-.41,7.9,7.9,0,0,0,1.71-1.17,5.72,5.72,0,0,1,1-.76,2.19,2.19,0,0,1,2.57.4,2,2,0,0,1,.63,1.4,2.91,2.91,0,0,1-.79,2,6.3,6.3,0,0,1-2.07,1.48,12.06,12.06,0,0,1-2.7.88,13.59,13.59,0,0,1-2.68.29,11.83,11.83,0,0,1-4.57-.81,8.61,8.61,0,0,1-3.17-2.18,8.8,8.8,0,0,1-1.8-3.06,10.75,10.75,0,0,1-.58-3.49,10.31,10.31,0,0,1,2.66-7.43,9.58,9.58,0,0,1,7.27-2.79,10.78,10.78,0,0,1,4,.7,8.75,8.75,0,0,1,3,1.94,8.45,8.45,0,0,1,1.87,2.77,8.3,8.3,0,0,1,.63,3.19,2.5,2.5,0,0,1-.49,1.8,2.65,2.65,0,0,1-1.82.47Zm9.22-3a4.75,4.75,0,0,0-1.46-3,4.18,4.18,0,0,0-3-1.17,4.51,4.51,0,0,0-3.13,1.1,5.6,5.6,0,0,0-1.66,3.08Z" transform="translate(-189.69 -178.09)"/>
        <path class="textcolor" d="M751.69,346h.07l3.2-11.92a3.81,3.81,0,0,1,.9-1.71,2.16,2.16,0,0,1,1.62-.63,2.78,2.78,0,0,1,1.26.27,2.51,2.51,0,0,1,.85.65,2.72,2.72,0,0,1,.45.77,2.06,2.06,0,0,1,.14.68,5.28,5.28,0,0,1-.4,1.66l-6.08,17.24a11,11,0,0,1-2.32,4.18,5,5,0,0,1-3.69,1.3,3.84,3.84,0,0,1-2.48-.68,2.15,2.15,0,0,1-.83-1.73,1.93,1.93,0,0,1,.67-1.57,2.62,2.62,0,0,1,1.75-.56h.54a2.07,2.07,0,0,0,1.13-.29,2.18,2.18,0,0,0,.7-1.37l-5.47-15.59-.11-.29q-.29-.9-.41-1.33a2.93,2.93,0,0,1-.13-.83,2.38,2.38,0,0,1,.76-1.8,2.52,2.52,0,0,1,1.8-.72,2.85,2.85,0,0,1,1.75.52,2.59,2.59,0,0,1,1,1.46Z" transform="translate(-189.69 -178.09)"/>
        <path class="textcolor" d="M766.74,342.65a4.52,4.52,0,0,0,4.86,4.79A5.47,5.47,0,0,0,774,347a7.9,7.9,0,0,0,1.71-1.17,5.72,5.72,0,0,1,1-.76,2.19,2.19,0,0,1,2.57.4,2,2,0,0,1,.63,1.4,2.91,2.91,0,0,1-.79,2,6.3,6.3,0,0,1-2.07,1.48,12.06,12.06,0,0,1-2.7.88,13.59,13.59,0,0,1-2.68.29,11.83,11.83,0,0,1-4.57-.81,8.61,8.61,0,0,1-3.17-2.18,8.8,8.8,0,0,1-1.8-3.06,10.75,10.75,0,0,1-.58-3.49,10.31,10.31,0,0,1,2.66-7.43,9.58,9.58,0,0,1,7.27-2.79,10.78,10.78,0,0,1,4,.7,8.75,8.75,0,0,1,3,1.94,8.45,8.45,0,0,1,1.87,2.77,8.3,8.3,0,0,1,.63,3.19,2.5,2.5,0,0,1-.49,1.8,2.65,2.65,0,0,1-1.82.47Zm9.22-3a4.75,4.75,0,0,0-1.46-3,4.18,4.18,0,0,0-3-1.17,4.51,4.51,0,0,0-3.13,1.1,5.6,5.6,0,0,0-1.66,3.08Z" transform="translate(-189.69 -178.09)"/>
        <path class="textcolor" d="M784.16,335a5.37,5.37,0,0,1,1.84-1.84,8.61,8.61,0,0,1,2.54-1,12.38,12.38,0,0,1,2.83-.32,15,15,0,0,1,3,.29,12,12,0,0,1,2.59.81,5.3,5.3,0,0,1,1.82,1.28,2.41,2.41,0,0,1,.67,1.62,2.37,2.37,0,0,1-.59,1.64,2,2,0,0,1-1.6.67,2,2,0,0,1-1-.23,7.1,7.1,0,0,1-1-.77,6.73,6.73,0,0,0-1.48-1,4.4,4.4,0,0,0-1.94-.36,5.09,5.09,0,0,0-2.23.4,1.29,1.29,0,0,0-.79,1.22,1.24,1.24,0,0,0,.67,1.19,8.76,8.76,0,0,0,2.14.68l2.2.5a24.75,24.75,0,0,1,2.45.7,8.39,8.39,0,0,1,2,1,5.14,5.14,0,0,1,1.51,1.62,4.37,4.37,0,0,1,.58,2.27,5.39,5.39,0,0,1-.68,2.74,6,6,0,0,1-1.84,2,8.18,8.18,0,0,1-2.61,1.17,11.79,11.79,0,0,1-3,.38,15.08,15.08,0,0,1-3.35-.36,10.58,10.58,0,0,1-2.79-1,6.3,6.3,0,0,1-1.89-1.51,2.84,2.84,0,0,1-.68-1.82,2.32,2.32,0,0,1,.54-1.57,2,2,0,0,1,1.58-.63,2,2,0,0,1,1.12.31,7.88,7.88,0,0,1,1.15,1,8.28,8.28,0,0,0,1.76,1.44,4.63,4.63,0,0,0,2.34.5,4.06,4.06,0,0,0,2.21-.54A1.59,1.59,0,0,0,795,346a1.3,1.3,0,0,0-.61-1.22,8.46,8.46,0,0,0-2.12-.72l-.29-.07-3.1-.76a9.56,9.56,0,0,1-4-1.87,4.61,4.61,0,0,1-1.4-3.67A5.09,5.09,0,0,1,784.16,335Z" transform="translate(-189.69 -178.09)"/>
      </g>
    </g>
  </g>
</svg>
